<svg width="448" height="357" viewBox="0 0 448 357" version="1.1" xmlns="http://www.w3.org/2000/svg" xmlns:xlink="http://www.w3.org/1999/xlink" xmlns:figma="http://www.figma.com/figma/ns">
<title>Group</title>
<desc>Created using Figma</desc>
<g id="Canvas" transform="translate(221 252)" figma:type="canvas">
<g id="Group" figma:type="frame">
<g id="Rectangle" filter="url(#filter0_f)" figma:type="rounded-rectangle">
<use xlink:href="#path0_fill" transform="translate(-217 -248)" fill="#23D160"/>
</g>
<g id="Vector" style="mix-blend-mode:darken" filter="url(#filter1_b)" figma:type="vector">
<use xlink:href="#path1_fill" transform="translate(-90.1617 -163)" fill="#1C76EA"/>
<use xlink:href="#path2_stroke" transform="translate(-90.1617 -163)" fill="#333333"/>
</g>
<g id="Vector 2" style="mix-blend-mode:darken" filter="url(#filter2_b)" figma:type="vector">
<use xlink:href="#path3_fill" transform="translate(-118 -63.1256)" fill="#1C76EA"/>
<use xlink:href="#path4_stroke" transform="translate(-118 -63.1256)" fill="#333333"/>
</g>
</g>
</g>
<defs>
<filter id="filter0_f" filterUnits="userSpaceOnUse" x="-221" y="-252" width="448" height="357" color-interpolation-filters="sRGB">
<feFlood flood-opacity="0" result="BackgroundImageFix"/>
<feBlend mode="normal" in="SourceGraphic" in2="BackgroundImageFix" result="shape"/>
<desc>type="foregroundBlur" size="4"</desc>
<feGaussianBlur stdDeviation="2" result="effect1_foregroundBlur"/>
</filter>
<filter id="filter1_b" filterUnits="userSpaceOnUse" x="-100" y="-167" width="204" height="100" color-interpolation-filters="sRGB">
<feFlood flood-opacity="0" result="BackgroundImageFix"/>
<desc>type="backgroundBlur" size="4"</desc>
<feGaussianBlur in="BackgroundImage" stdDeviation="2"/>
<feComposite in2="SourceAlpha" operator="in" result="effect1_backgroundBlur"/>
<feBlend mode="normal" in="SourceGraphic" in2="effect1_backgroundBlur" result="shape"/>
</filter>
<filter id="filter2_b" filterUnits="userSpaceOnUse" x="-127" y="-83" width="259" height="88" color-interpolation-filters="sRGB">
<feFlood flood-opacity="0" result="BackgroundImageFix"/>
<desc>type="backgroundBlur" size="4"</desc>
<feGaussianBlur in="BackgroundImage" stdDeviation="2"/>
<feComposite in2="SourceAlpha" operator="in" result="effect1_backgroundBlur"/>
<feBlend mode="normal" in="SourceGraphic" in2="effect1_backgroundBlur" result="shape"/>
</filter>
<path id="path0_fill" d="M 0 0L 440 0L 440 349L 0 349L 0 0Z"/>
<path id="path1_fill" d="M 34.8344 86.2915L 34.8344 57.5276L 64.9614 57.5276L 64.9614 39.9497L 92.264 39.9497L 121.45 39.9497L 121.45 57.5276L 152.518 57.5276L 152.518 39.9497L 184.528 39.9497L 184.528 86.2915L 152.518 86.2915L 121.45 86.2915L 121.45 57.5276L 121.45 39.9497L 92.264 39.9497L 64.9614 39.9497L 64.9614 57.5276L 64.9614 86.2915L 34.8344 86.2915Z"/>
<path id="path2_stroke" d="M 34.8344 86.2915L 29.8344 86.2915L 29.8344 91.2915L 34.8344 91.2915L 34.8344 86.2915ZM 64.9614 86.2915L 64.9614 91.2915L 69.9614 91.2915L 69.9614 86.2915L 64.9614 86.2915ZM 121.45 39.9497L 126.45 39.9497L 126.45 34.9497L 121.45 34.9497L 121.45 39.9497ZM 121.45 86.2915L 116.45 86.2915L 116.45 91.2915L 121.45 91.2915L 121.45 86.2915ZM 184.528 86.2915L 184.528 91.2915L 189.528 91.2915L 189.528 86.2915L 184.528 86.2915ZM -5 0L -5 57.5276L 5 57.5276L 5 0L -5 0ZM -5 57.5276L -5 86.2915L 5 86.2915L 5 57.5276L -5 57.5276ZM 0 62.5276L 34.8344 62.5276L 34.8344 52.5276L 0 52.5276L 0 62.5276ZM 29.8344 57.5276L 29.8344 86.2915L 39.8344 86.2915L 39.8344 57.5276L 29.8344 57.5276ZM 34.8344 91.2915L 64.9614 91.2915L 64.9614 81.2915L 34.8344 81.2915L 34.8344 91.2915ZM 69.9614 86.2915L 69.9614 57.5276L 59.9614 57.5276L 59.9614 86.2915L 69.9614 86.2915ZM 64.9614 52.5276L 34.8344 52.5276L 34.8344 62.5276L 64.9614 62.5276L 64.9614 52.5276ZM 69.9614 57.5276L 69.9614 39.9497L 59.9614 39.9497L 59.9614 57.5276L 69.9614 57.5276ZM 64.9614 34.9497L 44.2491 34.9497L 44.2491 44.9497L 64.9614 44.9497L 64.9614 34.9497ZM 64.9614 44.9497L 92.264 44.9497L 92.264 34.9497L 64.9614 34.9497L 64.9614 44.9497ZM 87.264 39.9497L 87.264 86.2915L 97.264 86.2915L 97.264 39.9497L 87.264 39.9497ZM 92.264 44.9497L 121.45 44.9497L 121.45 34.9497L 92.264 34.9497L 92.264 44.9497ZM 121.45 91.2915L 152.518 91.2915L 152.518 81.2915L 121.45 81.2915L 121.45 91.2915ZM 157.518 86.2915L 157.518 57.5276L 147.518 57.5276L 147.518 86.2915L 157.518 86.2915ZM 116.45 39.9497L 116.45 57.5276L 126.45 57.5276L 126.45 39.9497L 116.45 39.9497ZM 116.45 57.5276L 116.45 86.2915L 126.45 86.2915L 126.45 57.5276L 116.45 57.5276ZM 152.518 52.5276L 121.45 52.5276L 121.45 62.5276L 152.518 62.5276L 152.518 52.5276ZM 152.518 34.9497L 134.63 34.9497L 134.63 44.9497L 152.518 44.9497L 152.518 34.9497ZM 147.518 39.9497L 147.518 57.5276L 157.518 57.5276L 157.518 39.9497L 147.518 39.9497ZM 179.528 39.9497L 179.528 86.2915L 189.528 86.2915L 189.528 39.9497L 179.528 39.9497ZM 184.528 81.2915L 152.518 81.2915L 152.518 91.2915L 184.528 91.2915L 184.528 81.2915ZM 184.528 34.9497L 152.518 34.9497L 152.518 44.9497L 184.528 44.9497L 184.528 34.9497ZM 179.528 0L 179.528 39.9497L 189.528 39.9497L 189.528 0L 179.528 0Z"/>
<path id="path3_fill" d="M 0 35.8557L 26.6954 0L 26.6954 35.8557L 59.3231 35.8557L 93.4338 35.8557L 93.4338 58.9627L 113.455 35.8557L 133.477 58.9627L 133.477 38.6445L 169.812 38.6445L 169.812 18.3262L 196.508 18.3262L 205.406 14.3423L 205.406 36.6525L 241 35.8557L 241 58.9627L 205.406 58.9627L 205.406 36.6525L 205.406 14.3423L 196.508 18.3262L 169.812 18.3262L 169.812 38.6445L 169.812 58.9627L 133.477 58.9627L 113.455 35.8557L 93.4338 58.9627L 59.3231 58.9627L 59.3231 35.8557L 26.6954 35.8557L 26.6954 58.9627C 26.6954 55.7755 8.89846 42.23 0 35.8557Z"/>
<path id="path4_stroke" d="M 26.6954 0L 31.6954 0L 31.6954 -15.0883L 22.6849 -2.98592L 26.6954 0ZM 59.3231 58.9627L 54.3231 58.9627L 54.3231 63.9627L 59.3231 63.9627L 59.3231 58.9627ZM 93.4338 58.9627L 93.4338 63.9627L 95.7173 63.9627L 97.2127 62.2369L 93.4338 58.9627ZM 93.4338 18.3262L 98.4338 18.3262L 98.4338 13.3262L 93.4338 13.3262L 93.4338 18.3262ZM 113.455 35.8557L 117.234 32.5814L 113.455 28.2203L 109.677 32.5814L 113.455 35.8557ZM 133.477 58.9627L 129.698 62.2369L 131.193 63.9627L 133.477 63.9627L 133.477 58.9627ZM 169.812 58.9627L 169.812 63.9627L 174.812 63.9627L 174.812 58.9627L 169.812 58.9627ZM 196.508 18.3262L 196.508 23.3262L 197.576 23.3262L 198.551 22.8897L 196.508 18.3262ZM 205.406 14.3423L 210.406 14.3423L 210.406 6.62546L 203.363 9.77877L 205.406 14.3423ZM 241 58.9627L 241 63.9627L 246 63.9627L 246 58.9627L 241 58.9627ZM 241 14.3423L 246 14.3423L 246 9.34227L 241 9.34227L 241 14.3423ZM -5 0L -5 35.8557L 5 35.8557L 5 0L -5 0ZM -5 35.8557L -5 58.9627L 5 58.9627L 5 35.8557L -5 35.8557ZM 4.01052 38.8416L 30.7059 2.98592L 22.6849 -2.98592L -4.01052 32.8698L 4.01052 38.8416ZM -2.91172 39.9204C 1.49812 43.0791 8.03751 47.9572 13.5055 52.4635C 16.2286 54.7061 18.5465 56.7322 20.2301 58.4296C 21.0426 59.2442 21.5253 59.7771 21.8801 60.2714C 22.41 60.9946 21.6954 60.3625 21.6954 58.9627L 31.6954 58.9627C 31.6954 56.7661 30.4246 55.0134 29.9465 54.3609C 29.2932 53.4795 28.316 52.3815 27.321 51.3784C 25.3897 49.4404 22.7021 47.0842 19.8638 44.7452C 14.2086 40.0884 7.40034 35.0066 2.91172 31.791L -2.91172 39.9204ZM 31.6954 58.9627L 31.6954 35.8557L 21.6954 35.8557L 21.6954 58.9627L 31.6954 58.9627ZM 31.6954 35.8557L 31.6954 0L 21.6954 0L 21.6954 35.8557L 31.6954 35.8557ZM 26.6954 40.8557L 59.3231 40.8557L 59.3231 30.8557L 26.6954 30.8557L 26.6954 40.8557ZM 54.3231 35.8557L 54.3231 58.9627L 64.3231 58.9627L 64.3231 35.8557L 54.3231 35.8557ZM 59.3231 40.8557L 93.4338 40.8557L 93.4338 30.8557L 59.3231 30.8557L 59.3231 40.8557ZM 88.4338 35.8557L 88.4338 58.9627L 98.4338 58.9627L 98.4338 35.8557L 88.4338 35.8557ZM 93.4338 53.9627L 59.3231 53.9627L 59.3231 63.9627L 93.4338 63.9627L 93.4338 53.9627ZM 98.4338 35.8557L 98.4338 18.3262L 88.4338 18.3262L 88.4338 35.8557L 98.4338 35.8557ZM 93.4338 13.3262L 71.9292 13.3262L 71.9292 23.3262L 93.4338 23.3262L 93.4338 13.3262ZM 109.677 32.5814L 89.655 55.6884L 97.2127 62.2369L 117.234 39.1299L 109.677 32.5814ZM 109.677 39.1299L 129.698 62.2369L 137.256 55.6884L 117.234 32.5814L 109.677 39.1299ZM 138.477 58.9627L 138.477 38.6445L 128.477 38.6445L 128.477 58.9627L 138.477 58.9627ZM 138.477 38.6445L 138.477 18.3262L 128.477 18.3262L 128.477 38.6445L 138.477 38.6445ZM 133.477 43.6445L 169.812 43.6445L 169.812 33.6445L 133.477 33.6445L 133.477 43.6445ZM 164.812 38.6445L 164.812 58.9627L 174.812 58.9627L 174.812 38.6445L 164.812 38.6445ZM 169.812 53.9627L 133.477 53.9627L 133.477 63.9627L 169.812 63.9627L 169.812 53.9627ZM 174.812 38.6445L 174.812 18.3262L 164.812 18.3262L 164.812 38.6445L 174.812 38.6445ZM 169.812 13.3262L 149.049 13.3262L 149.049 23.3262L 169.812 23.3262L 169.812 13.3262ZM 169.812 23.3262L 196.508 23.3262L 196.508 13.3262L 169.812 13.3262L 169.812 23.3262ZM 198.551 22.8897L 207.449 18.9058L 203.363 9.77877L 194.465 13.7627L 198.551 22.8897ZM 205.406 53.9627L 183.16 53.9627L 183.16 63.9627L 205.406 63.9627L 205.406 53.9627ZM 200.406 14.3423L 200.406 36.6525L 210.406 36.6525L 210.406 14.3423L 200.406 14.3423ZM 200.406 36.6525L 200.406 58.9627L 210.406 58.9627L 210.406 36.6525L 200.406 36.6525ZM 205.518 41.6512L 241.112 40.8544L 240.888 30.8569L 205.294 31.6537L 205.518 41.6512ZM 236 35.8557L 236 58.9627L 246 58.9627L 246 35.8557L 236 35.8557ZM 241 53.9627L 205.406 53.9627L 205.406 63.9627L 241 63.9627L 241 53.9627ZM 236 14.3423L 236 35.8557L 246 35.8557L 246 14.3423L 236 14.3423ZM 218.754 19.3423L 241 19.3423L 241 9.34227L 218.754 9.34227L 218.754 19.3423Z"/>
</defs>
</svg>
