<svg width="297" height="299" viewBox="0 0 297 299" version="1.1" xmlns="http://www.w3.org/2000/svg" xmlns:xlink="http://www.w3.org/1999/xlink" xmlns:figma="http://www.figma.com/figma/ns">
<title>Vector</title>
<desc>Created using Figma</desc>
<g id="Canvas" transform="translate(115 210)" figma:type="canvas">
<g id="Vector" filter="url(#filter0_d)" figma:type="vector">
<use xlink:href="#path0_fill" transform="translate(-108 -207)" fill="#23D160"/>
<use xlink:href="#path1_fill" transform="translate(-108 -207)" fill="#23D160"/>
<use xlink:href="#path2_fill" transform="translate(-108 -207)" fill="#23D160"/>
<use xlink:href="#path3_fill" transform="translate(-108 -207)" fill="#23D160"/>
<use xlink:href="#path4_fill" transform="translate(-108 -207)" fill="#23D160"/>
<use xlink:href="#path5_fill" transform="translate(-108 -207)" fill="#23D160"/>
<use xlink:href="#path6_fill" transform="translate(-108 -207)" fill="#23D160"/>
<use xlink:href="#path7_fill" transform="translate(-108 -207)" fill="#23D160"/>
<use xlink:href="#path8_stroke" transform="translate(-108 -207)" fill="#FFFFFF"/>
</g>
</g>
<defs>
<filter id="filter0_d" filterUnits="userSpaceOnUse" x="-115" y="-210" width="297" height="299" color-interpolation-filters="sRGB">
<feFlood flood-opacity="0" result="BackgroundImageFix"/>
<desc>type="dropShadow" x="0" y="4" size="4" spread="0" color="0,0,0,0.25" blend="normal"</desc>
<feColorMatrix in="SourceAlpha" type="matrix" values="0 0 0 0 0 0 0 0 0 0 0 0 0 0 0 0 0 0 255 0"/>
<feOffset dx="0" dy="4"/>
<feGaussianBlur stdDeviation="2"/>
<feColorMatrix type="matrix" values="0 0 0 0 0 0 0 0 0 0 0 0 0 0 0 0 0 0 0.25 0"/>
<feBlend mode="normal" in2="BackgroundImageFix" result="effect1_dropShadow"/>
<feBlend mode="normal" in="SourceGraphic" in2="effect1_dropShadow" result="shape"/>
</filter>
<path id="path0_fill" d="M 0 5.83176L 0 157.573C 0 157.573 62.0414 0 45.6248 0C 29.2082 0 0 5.83176 0 5.83176Z"/>
<path id="path1_fill" d="M 0 157.573L 0 267.093C 0 267.093 34.1608 279.923 45.6248 279.923C 57.0887 279.923 0 157.573 0 157.573Z"/>
<path id="path2_fill" d="M 138.075 272.925L 139.276 179.818C 139.276 179.818 86.2969 279.923 98.4535 279.923C 110.61 279.923 138.075 272.925 138.075 272.925Z"/>
<path id="path3_fill" d="M 139.276 122.351L 139.276 5.83176C 139.276 5.83176 111.938 0 98.4535 0C 84.9693 0 139.276 122.351 139.276 122.351Z"/>
<path id="path4_fill" d="M 0 157.573L 139.276 157.573L 139.276 122.351L 0 157.573Z"/>
<path id="path5_fill" d="M 139.276 157.573L 0 157.573L 139.276 179.818L 139.276 157.573Z"/>
<path id="path6_fill" d="M 276.15 279.923C 260.218 314.914 139.276 157.573 139.276 157.573L 139.276 179.818C 139.276 179.818 292.082 244.933 276.15 279.923Z"/>
<path id="path7_fill" d="M 139.276 157.573C 139.276 157.573 232.338 0 276.15 0C 319.962 0 139.276 122.351 139.276 122.351L 139.276 157.573Z"/>
<path id="path8_stroke" d="M 0 5.83176L -0.489493 3.38015L -2.5 3.78157L -2.5 5.83176L 0 5.83176ZM 0 267.093L -2.5 267.093L -2.5 268.825L -0.878976 269.434L 0 267.093ZM 139.276 5.83176L 141.776 5.83176L 141.776 3.80881L 139.797 3.38677L 139.276 5.83176ZM 138.075 272.925L 138.692 275.348L 140.55 274.874L 140.575 272.957L 138.075 272.925ZM -2.5 5.83176L -2.5 157.573L 2.5 157.573L 2.5 5.83176L -2.5 5.83176ZM -2.5 157.573L -2.5 267.093L 2.5 267.093L 2.5 157.573L -2.5 157.573ZM 0 160.073L 139.276 160.073L 139.276 155.073L 0 155.073L 0 160.073ZM 276.15 -2.5C 269.974 -2.5 263.242 0.252605 256.343 4.66453C 249.465 9.06982 242.031 15.3942 234.519 22.8462C 219.534 37.7228 203.668 57.5723 189.264 77.3128C 174.859 97.0571 161.813 116.819 152.393 131.609C 147.679 139.009 143.86 145.185 141.226 149.499C 139.908 151.659 138.882 153.36 138.188 154.517C 137.84 155.097 137.574 155.543 137.396 155.842C 137.306 155.992 137.238 156.107 137.193 156.184C 137.17 156.222 137.153 156.251 137.141 156.271C 137.135 156.281 137.131 156.288 137.128 156.293C 137.126 156.296 137.125 156.298 137.124 156.299C 137.124 156.3 137.123 156.301 139.276 157.573C 141.428 158.844 141.429 158.844 141.429 158.843C 141.43 158.841 141.431 158.84 141.432 158.838C 141.435 158.833 141.439 158.826 141.444 158.817C 141.455 158.798 141.472 158.771 141.494 158.733C 141.538 158.658 141.604 158.547 141.692 158.399C 141.869 158.102 142.131 157.664 142.475 157.089C 143.166 155.938 144.182 154.253 145.494 152.105C 148.12 147.802 151.914 141.667 156.61 134.295C 166.008 119.54 178.966 99.9087 193.303 80.2598C 207.641 60.6072 223.255 41.0635 238.041 26.3952C 245.415 19.0748 252.439 13.0888 259.037 8.87687C 265.613 4.67154 271.373 2.5 276.15 2.5L 276.15 -2.5ZM 273.875 278.887C 273.088 280.616 272.087 281.543 270.986 282.025C 269.837 282.527 268.276 282.673 266.179 282.259C 261.903 281.415 256.238 278.414 249.508 273.542C 236.079 263.829 219.649 247.612 203.577 230.175C 187.501 212.737 171.935 194.22 160.359 180.03C 154.575 172.939 149.801 166.946 146.467 162.717C 144.801 160.605 143.499 158.938 142.611 157.796C 142.168 157.226 141.83 156.79 141.601 156.494C 141.487 156.346 141.401 156.235 141.343 156.16C 141.315 156.123 141.293 156.095 141.279 156.076C 141.272 156.067 141.266 156.06 141.263 156.056C 141.261 156.053 141.26 156.052 141.259 156.051C 141.258 156.049 141.258 156.049 139.276 157.573C 137.294 159.096 137.294 159.097 137.295 159.098C 137.296 159.1 137.298 159.102 137.3 159.104C 137.303 159.109 137.309 159.116 137.317 159.126C 137.331 159.145 137.354 159.175 137.383 159.213C 137.442 159.289 137.53 159.403 137.645 159.552C 137.875 159.85 138.218 160.292 138.664 160.866C 139.556 162.012 140.868 163.691 142.54 165.813C 145.882 170.052 150.682 176.077 156.485 183.191C 168.084 197.409 183.749 216.041 199.9 233.564C 216.055 251.088 232.848 267.645 246.576 277.592C 253.426 282.551 259.823 286.101 265.211 287.165C 267.945 287.704 270.616 287.643 272.989 286.606C 275.41 285.548 277.221 283.605 278.425 280.959L 273.875 278.887ZM 140.575 272.957L 141.775 179.85L 136.776 179.786L 135.575 272.893L 140.575 272.957ZM 141.776 179.818L 141.776 157.573L 136.776 157.573L 136.776 179.818L 141.776 179.818ZM 278.425 280.959C 280.842 275.65 279.929 269.967 277.063 264.427C 274.261 259.047 269.32 253.29 263.17 247.673C 250.927 236.516 233.092 224.94 214.926 214.578C 196.758 204.217 178.069 194.94 163.971 188.279C 156.915 184.945 150.983 182.253 146.828 180.401C 144.748 179.474 143.104 178.753 141.986 178.266C 141.425 178.022 140.992 177.835 140.702 177.71C 140.556 177.647 140.445 177.599 140.371 177.567C 140.333 177.551 140.304 177.539 140.286 177.531C 140.276 177.527 140.269 177.524 140.264 177.522C 140.261 177.521 140.259 177.52 140.258 177.519C 140.257 177.519 140.256 177.518 139.276 179.818C 138.296 182.118 138.296 182.118 138.297 182.119C 138.298 182.119 138.299 182.12 138.302 182.121C 138.306 182.122 138.312 182.125 138.321 182.129C 138.34 182.137 138.366 182.148 138.402 182.164C 138.475 182.195 138.582 182.241 138.725 182.302C 139.012 182.426 139.436 182.609 139.99 182.85C 141.102 183.334 142.726 184.046 144.793 184.968C 148.932 186.813 154.814 189.482 161.835 192.799C 175.89 199.44 194.407 208.629 212.449 218.921C 230.492 229.211 247.872 240.474 259.8 251.367C 265.734 256.775 270.118 261.846 272.622 266.724C 275.064 271.443 275.441 275.448 273.875 278.887L 278.425 280.959ZM 136.776 5.83176L 136.776 122.351L 141.776 122.351L 141.776 5.83176L 136.776 5.83176ZM 136.776 122.351L 136.776 179.818L 141.776 179.818L 141.776 122.351L 136.776 122.351ZM 141.776 157.573L 141.776 122.351L 136.776 122.351L 136.776 157.573L 141.776 157.573ZM 139.276 122.351C 140.677 124.421 140.678 124.42 140.68 124.419C 140.681 124.418 140.683 124.417 140.686 124.415C 140.692 124.411 140.7 124.405 140.711 124.398C 140.733 124.383 140.766 124.36 140.81 124.331C 140.897 124.272 141.027 124.183 141.198 124.067C 141.539 123.835 142.046 123.49 142.704 123.041C 144.018 122.144 145.942 120.827 148.373 119.152C 153.231 115.804 160.129 111.017 168.265 105.276C 184.53 93.7982 205.789 78.4735 225.668 63.1555C 245.55 47.8348 264.18 32.4101 275.069 20.8292C 277.809 17.9114 280.136 15.1451 281.835 12.7261C 283.531 10.3058 284.807 7.954 285.287 5.80251C 285.793 3.54225 285.462 1.13177 283.426 -0.552277C 281.651 -2.02106 279.045 -2.5 276.15 -2.5L 276.15 2.5C 278.731 2.5 279.848 2.97692 280.239 3.30038C 280.37 3.40858 280.65 3.62672 280.408 4.71198C 280.141 5.90602 279.31 7.61664 277.741 9.85619C 276.173 12.097 274.073 14.588 271.425 17.4053C 260.757 28.7651 242.43 43.928 222.617 59.195C 202.801 74.4647 181.627 89.7275 165.382 101.191C 157.263 106.92 150.387 111.691 145.535 115.035C 143.111 116.705 141.196 118.017 139.885 118.912C 139.23 119.359 138.727 119.701 138.387 119.932C 138.218 120.047 138.089 120.134 138.003 120.193C 137.96 120.222 137.928 120.244 137.906 120.259C 137.895 120.266 137.887 120.272 137.882 120.275C 137.879 120.277 137.877 120.278 137.876 120.279C 137.875 120.28 137.874 120.28 139.276 122.351ZM 138.663 119.927C 84.2722 133.682 53.7776 141.394 -0.612941 155.149L 0.612941 159.996C 55.0035 146.241 85.4981 138.529 139.889 124.774L 138.663 119.927ZM 139.67 177.349L 0.39431 155.104L -0.39431 160.041L 138.881 182.287L 139.67 177.349ZM 0 5.83176C 0.489493 8.28337 0.489475 8.28337 0.489568 8.28336C 0.489747 8.28332 0.489951 8.28328 0.490309 8.28321C 0.491111 8.28305 0.492183 8.28283 0.493782 8.28252C 0.497152 8.28184 0.501935 8.28089 0.508634 8.27956C 0.522382 8.27683 0.542384 8.27286 0.569551 8.26748C 0.624589 8.25659 0.705379 8.24066 0.812857 8.21959C 1.02925 8.17718 1.34626 8.11546 1.75839 8.03635C 2.58566 7.87755 3.77958 7.65185 5.26927 7.3799C 8.25511 6.83479 12.3872 6.11132 17.0412 5.38606C 26.3613 3.93317 37.5753 2.49495 45.6248 2.5L 45.6248 -2.5C 37.2577 -2.49495 25.6593 -1.01729 16.2712 0.445703C 11.571 1.17838 7.37502 1.91285 4.37131 2.46119C 2.86622 2.73598 1.65 2.96588 0.815819 3.126C 0.397223 3.20635 0.0706765 3.26993 -0.148797 3.31294C -0.259255 3.33459 -0.34448 3.3514 -0.400973 3.36258C -0.429572 3.36824 -0.451714 3.37263 -0.466169 3.3755C -0.473571 3.37698 -0.479405 3.37814 -0.483125 3.37888C -0.485072 3.37927 -0.486665 3.37958 -0.48764 3.37978C -0.488171 3.37988 -0.488634 3.37998 -0.4889 3.38003C -0.489252 3.3801 -0.489493 3.38015 0 5.83176ZM 45.6248 2.5C 45.7161 2.46417 45.3605 2.43985 45.3543 2.38622C 45.2629 2.34802 45.3724 2.33902 45.4868 2.67322C 45.75 3.35226 45.9387 4.63865 45.8788 6.69801C 45.7652 10.8269 44.727 16.7301 42.9893 24.0431C 39.5041 38.7277 33.3227 58.3094 26.6029 77.9781C 19.8832 97.6473 12.6542 117.308 7.09769 132.071C 4.32044 139.45 1.96494 145.595 0.301724 149.901C -0.529405 152.053 -1.18629 153.741 -1.63619 154.894C -1.86091 155.47 -2.03339 155.911 -2.15004 156.208C -2.20826 156.357 -2.25229 156.469 -2.28194 156.544C -2.2967 156.582 -2.30777 156.61 -2.31522 156.629C -2.31892 156.638 -2.32166 156.645 -2.32352 156.65C -2.32443 156.652 -2.3251 156.654 -2.32556 156.655C -2.32599 156.656 -2.32619 156.657 0 157.573C 2.32619 158.489 2.32646 158.488 2.32698 158.487C 2.32746 158.485 2.32821 158.483 2.32918 158.481C 2.33109 158.476 2.334 158.469 2.3378 158.459C 2.34536 158.44 2.35676 158.411 2.37175 158.373C 2.40161 158.297 2.44632 158.183 2.50499 158.033C 2.62211 157.734 2.796 157.29 3.02168 156.712C 3.47257 155.557 4.13258 153.86 4.96583 151.703C 6.63138 147.391 8.99461 141.226 11.7772 133.833C 17.3404 119.051 24.5957 99.3184 31.3344 79.5945C 38.0728 59.8701 44.3237 40.0586 47.854 25.1983C 49.6241 17.7389 50.7396 11.3317 50.8766 6.84339C 50.9421 4.59412 50.7803 2.49516 50.1488 0.866008C 49.8228 0.0251769 49.3187 -0.829934 48.5222 -1.48217C 47.8003 -2.02482 46.5595 -2.46417 45.6248 -2.5L 45.6248 2.5ZM 139.276 5.83176C 139.797 3.38677 139.797 3.38672 139.797 3.38665C 139.796 3.3866 139.796 3.38651 139.796 3.3864C 139.795 3.38621 139.793 3.38589 139.791 3.3855C 139.788 3.38476 139.782 3.3836 139.775 3.38213C 139.762 3.37926 139.741 3.37486 139.714 3.3692C 139.662 3.35803 139.582 3.34122 139.479 3.31957C 139.274 3.27655 138.969 3.21298 138.579 3.13262C 137.802 2.97249 136.671 2.74255 135.277 2.46774C 132.495 1.91935 128.625 1.1846 124.343 0.451697C 115.789 -1.01182 105.373 -2.49371 98.4535 -2.5L 98.4535 2.5C 105.018 2.49371 115.014 3.9277 123.5 5.38006C 127.737 6.10509 131.545 6.82829 134.31 7.37335C 135.689 7.64527 136.8 7.87094 137.57 8.02973C 137.954 8.10884 138.25 8.17055 138.452 8.21296C 138.552 8.23403 138.628 8.24996 138.679 8.26086C 138.705 8.26623 138.723 8.2702 138.736 8.27293C 138.742 8.27427 138.747 8.27522 138.75 8.27589C 138.752 8.27621 138.753 8.27642 138.753 8.27658C 138.754 8.27666 138.754 8.2767 138.754 8.27673C 138.754 8.27675 138.754 8.27675 139.276 5.83176ZM 98.4535 -2.5C 97.6283 -2.46716 96.4853 -2.07825 95.8334 -1.60987C 95.2556 -1.11437 94.6415 -0.22399 94.355 0.480473C 93.8181 1.88336 93.7374 3.63098 93.8403 5.40232C 94.0529 8.93598 95.1177 13.9775 96.735 19.7881C 99.9568 31.3482 105.522 46.7591 111.478 62.0811C 117.434 77.4025 123.816 92.7327 128.701 104.212C 131.144 109.954 133.217 114.744 134.677 118.092C 135.407 119.768 135.986 121.086 136.381 121.984C 136.579 122.433 136.731 122.778 136.834 123.01C 136.885 123.127 136.924 123.215 136.951 123.274C 136.964 123.304 136.974 123.327 136.98 123.342C 136.984 123.349 136.986 123.355 136.988 123.359C 136.989 123.361 136.99 123.362 136.99 123.363C 136.99 123.364 136.991 123.365 139.276 122.351C 141.561 121.336 141.561 121.336 141.56 121.335C 141.56 121.334 141.559 121.333 141.558 121.331C 141.557 121.327 141.554 121.322 141.551 121.315C 141.545 121.3 141.535 121.278 141.522 121.249C 141.496 121.191 141.458 121.104 141.407 120.989C 141.305 120.758 141.154 120.416 140.957 119.969C 140.563 119.074 139.988 117.764 139.26 116.094C 137.803 112.752 135.739 107.982 133.301 102.254C 128.425 90.7931 122.073 75.5357 116.138 60.2694C 110.203 45.0038 104.72 29.827 101.552 18.4464C 99.9739 12.7867 99.0083 8.26956 98.8319 5.11218C 98.7404 3.53799 98.8757 2.65699 99.0247 2.26763C 99.0867 2.10555 99.0924 2.18736 98.9351 2.31183C 98.7441 2.46287 98.5388 2.5 98.4535 2.5L 98.4535 -2.5ZM 138.075 272.925C 137.458 270.503 137.458 270.503 137.458 270.503C 137.458 270.503 137.457 270.503 137.457 270.503C 137.456 270.503 137.455 270.503 137.454 270.504C 137.451 270.504 137.446 270.505 137.44 270.507C 137.427 270.51 137.408 270.515 137.383 270.522C 137.331 270.535 137.255 270.554 137.155 270.579C 136.952 270.63 136.656 270.704 136.272 270.799C 135.5 270.989 134.391 271.26 133.016 271.586C 130.261 272.24 126.481 273.107 122.312 273.977C 113.895 275.733 104.235 277.423 98.4535 277.423L 98.4535 282.423C 104.829 282.423 114.979 280.614 123.334 278.871C 127.551 277.992 131.397 277.109 134.171 276.451C 135.561 276.121 136.692 275.845 137.471 275.653C 137.861 275.556 138.167 275.48 138.372 275.428C 138.476 275.402 138.556 275.382 138.609 275.369C 138.636 275.362 138.657 275.357 138.67 275.353C 138.677 275.352 138.683 275.35 138.686 275.349C 138.688 275.349 138.69 275.348 138.691 275.348C 138.691 275.348 138.691 275.348 138.692 275.348C 138.692 275.348 138.692 275.348 138.075 272.925ZM 98.4535 277.423C 98.5225 277.423 98.7486 277.449 98.9869 277.625C 99.2072 277.788 99.2598 277.948 99.2444 277.908C 99.1796 277.738 99.0721 277.145 99.2038 275.881C 99.4595 273.346 100.462 269.715 102.065 265.101C 105.288 255.809 110.72 243.416 116.57 230.931C 122.419 218.446 128.643 205.969 133.416 196.594C 135.8 191.908 137.817 188.008 139.241 185.274C 139.952 183.908 140.513 182.837 140.897 182.105C 141.089 181.739 141.236 181.46 141.335 181.271C 141.385 181.177 141.423 181.106 141.448 181.058C 141.46 181.035 141.47 181.017 141.476 181.005C 141.479 180.999 141.482 180.995 141.483 180.992C 141.484 180.99 141.484 180.989 141.485 180.989C 141.485 180.988 141.485 180.988 139.276 179.818C 137.066 178.649 137.066 178.649 137.065 178.65C 137.065 178.651 137.064 178.652 137.063 178.654C 137.062 178.657 137.059 178.662 137.056 178.668C 137.049 178.68 137.04 178.699 137.027 178.723C 137.001 178.771 136.963 178.844 136.913 178.939C 136.812 179.129 136.664 179.412 136.47 179.78C 136.085 180.514 135.519 181.594 134.805 182.965C 133.379 185.705 131.352 189.626 128.96 194.326C 124.178 203.719 117.918 216.269 112.042 228.81C 106.166 241.352 100.633 253.985 97.3416 263.462C 95.6871 268.233 94.5455 272.423 94.2308 275.363C 94.0772 276.836 94.0781 278.394 94.5729 279.69C 94.8392 280.336 95.4534 281.19 96.0151 281.646C 96.6293 282.056 97.7003 282.395 98.4535 282.423L 98.4535 277.423ZM 0 267.093C -0.878976 269.434 -0.87872 269.434 -0.878333 269.434C -0.87803 269.434 -0.877513 269.434 -0.876909 269.435C -0.875785 269.435 -0.873973 269.436 -0.871732 269.436C -0.867418 269.438 -0.860702 269.441 -0.852126 269.444C -0.835315 269.45 -0.809677 269.46 -0.77648 269.472C -0.710777 269.497 -0.611973 269.534 -0.483996 269.581C -0.229462 269.676 0.147882 269.815 0.629374 269.992C 1.58937 270.344 2.9801 270.849 4.67898 271.453C 8.07031 272.66 12.7348 274.276 17.748 275.888C 22.758 277.499 28.1825 279.126 33.0536 280.344C 37.8768 281.549 42.4236 282.423 45.6248 282.423L 45.6248 277.423C 43.094 277.423 39.0717 276.694 34.2655 275.493C 29.5072 274.305 24.242 272.725 19.2788 271.128C 14.3188 269.533 9.72661 267.942 6.35453 266.743C 4.6717 266.144 3.30406 265.647 2.3511 265.298C 1.87612 265.123 1.50835 264.987 1.25688 264.894C 1.13185 264.847 1.03744 264.812 0.973171 264.788C 0.941382 264.776 0.917848 264.768 0.901732 264.762C 0.893845 264.759 0.888159 264.756 0.884188 264.755C 0.882286 264.754 0.880984 264.754 0.88003 264.753C 0.879595 264.753 0.879332 264.753 0.879114 264.753C 0.87898 264.753 0.878976 264.753 0 267.093ZM 45.6248 282.423C 46.602 282.423 47.5508 282.07 48.283 281.327C 48.9487 280.652 49.2694 279.824 49.4347 279.124C 49.7569 277.759 49.6735 276.064 49.4321 274.323C 48.9417 270.822 47.5983 265.828 45.7091 260.031C 41.9439 248.487 35.8457 233.097 29.4165 217.78C 22.9873 202.464 16.1962 187.14 11.02 175.662C 8.43081 169.921 6.24173 165.133 4.70195 161.785C 3.93158 160.11 3.32238 158.793 2.90656 157.895C 2.69842 157.446 2.53814 157.101 2.43024 156.869C 2.37619 156.753 2.335 156.665 2.30749 156.606C 2.29369 156.576 2.28319 156.553 2.27623 156.539C 2.27272 156.531 2.27004 156.525 2.26828 156.521C 2.26739 156.52 2.2667 156.518 2.26625 156.517C 2.26577 156.516 2.26552 156.516 0 157.573C -2.26552 158.63 -2.26534 158.63 -2.26494 158.631C -2.26452 158.632 -2.26391 158.633 -2.26307 158.635C -2.26136 158.639 -2.25884 158.644 -2.25544 158.651C -2.24859 158.666 -2.23842 158.688 -2.22483 158.717C -2.19754 158.776 -2.15702 158.863 -2.10341 158.978C -1.99597 159.209 -1.83708 159.551 -1.62989 159.998C -1.21505 160.893 -0.608931 162.204 0.159335 163.874C 1.69681 167.217 3.87822 171.988 6.46203 177.718C 11.6316 189.181 18.3963 204.444 24.8062 219.715C 31.2162 234.986 37.2407 250.184 40.9554 261.581C 42.8062 267.254 44.042 271.819 44.4794 275.009C 44.7018 276.613 44.6695 277.547 44.5685 277.975C 44.5222 278.171 44.5128 278.03 44.7221 277.817C 44.9979 277.537 45.364 277.423 45.6248 277.423L 45.6248 282.423ZM 138.663 119.927L -0.612941 155.149L 0.612941 159.996L 139.889 124.774L 138.663 119.927Z"/>
</defs>
</svg>
