<?xml version="1.0" encoding="utf-8"?>
<!-- Generator: Adobe Illustrator 21.0.0, SVG Export Plug-In . SVG Version: 6.00 Build 0)  -->
<svg version="1.1" id="Layer_1" xmlns="http://www.w3.org/2000/svg" xmlns:amcharts="http://amcharts.com/ammap" xmlns:xlink="http://www.w3.org/1999/xlink" x="0px" y="0px"
	 width="1024px" height="768px" viewBox="0 0 1024 768" style="enable-background:new 0 0 1024 768;" xml:space="preserve">
    <defs>
     <amcharts:ammap projection="mercator" leftLongitude="71.873" topLatitude="35.304" rightLongitude="76.981" bottomLatitude="32.616"></amcharts:ammap>
    </defs>
    
	<g><path id="Bimbher" title="Bimbher" class="land" d="M559.9,700.1c-1.4-8.4-9.3-12.2-16.5-11.2c0,0,0,0,0-0.2
		c-0.6,0.5-0.6,0.5,0,0c-0.2-3.5,0.6-8.4-0.2-11.7c-0.6-3-2.5-4.2-3.3-7c-1.6-7.7-0.2-11.4-6.2-16.4c-7.6-6.5-15-10.9-23.7-14.7
		c-8.2-3.5-7.2-10.7-10.9-19.9c-5.2-13.2-15.3-14.9-22.5-25.6c-3.3-4.7-5.6-9.4-3.9-13.7c-7,2.2-17.1,10.2-22.9,9.9
		c-1,0-1.9-0.2-2.5-0.5c-0.4,13.4-6.2,23.9-7.8,35.5c-1,7.7,1.4,13.7,1.6,20.6c0,4.7-1.2,8.9-2.5,13.4c1.6-1.2,4.1-1.7,8-1.2
		c8.5,1.2,11.3,5.7,18.1,12.4c3.3,3.2,5.8,6.5,8.9,9.7s4.9,1.7,8.7,3.7c10.5,5.2,19.8,12.9,30.1,18.4c5.4,3,13.6,8.4,18.5,12.9
		c5.2,4.5,5.2,14.2,10.9,18.4c8.9,6.2,12.8-5,20.8-4.2l0,0c-0.4-4.7-2.1-8-2.5-12.9C559.5,711,560.8,705,559.9,700.1z"/>

	<path id="mirpur" title="Mirpur" class="land" d="M439.6,625.3c1.9-11.7,7.4-22.1,7.8-35.5c-7-3.2-11.7-17.4-18.8-20.4
		c-3.9-1.7-7.6-0.7-11.5-3.2c-4.5-3.2-7.4-7.5-11.7-11.2c-5.6-5-12.4-15.4-19.8-17.6c-0.8,2-1.6,4-1.9,6c-2.3,10.4,2.7,9.4,4.7,16.6
		c1,4-2.1,7.5-2.3,11.2c-0.2,5,2.7,6.2,4.1,10.4c1.9,5,2.3,8,4.9,12.4c2.1,3.2,4.7,4.7,5.4,9.4c0.4,4.7-2.3,8.4-3.7,12.4
		c-3.9,10.7-3.7,14.9,5.4,19.6c4.3,2.2,6.4,2,9.9,6.7c2.5,3.2,4.5,8.7,7,12.4c4.3,6.5,7.6,20.1,15,16.4c1-5.7,1.6-9.7,4.1-11.7
		c1.2-4.5,2.5-8.7,2.5-13.4C441,638.7,438.1,633,439.6,625.3z"/>

	<path id="Neelum-Valley" title="Neelum" class="land" d="M669.4,143c1-5,3.3-6.5,6.2-10.4c2.5-3.5,4.7-7.2,6.4-11.9
		c2.5-7.2,0-9.4-1.2-15.7c-5.4,3.7-5.6,14.4-11.3,16.6c-6.2,2.7-7.6-4.2-10.9-8.7c-2.9-3.7-2.7-3.5-6.6-4.7c-2.5-1-5.4-2.2-7.4-2.7
		c-6.2-2.2-11.3,2.5-17.3-1c-9.5-6-17.1-18.9-27.8-22.1c-4.7-1.2-5.2,1.2-6.8-5c-0.8-2.7-0.4-8.2-0.2-10.9
		c0.6-6.2,1.9-13.2,1.4-20.9C582.8,57.5,589,29.1,583,27.2c0.4-1.5-0.4-4-0.4-5.7c-2.5-1.2-5.6-1.2-7.8-3c-2.3-1.7-2.9-6-5.4-6.5
		c0.2,0-1.6,1.2-3.5,2.5c0.2,0.2,0.2,0.5,0.4,0.5c-0.2-0.2-0.2-0.5-0.4-0.5c-2.3,1.5-4.7,3.2-4.7,3.2c-2.1,3-2.1,8.4-3.1,12.2
		c-3.7-0.5-5.8,3.7-9.5,4.5c-2.3,0.5-5.6-2.5-7.8-2.2c-2.5,0.5-14.6,13.2-12-0.7c-3.5-0.5-7.6-3.7-10.9-5c-3.3-1.5-7.8-3.2-12-5l0,0
		l-0.2-0.2c-0.6-0.2-1.2-0.5-1.9-0.7c-2.5-0.5-4.9,1.5-6.8,3.7c0.2-0.2-2.3,5.7-2.3,6c-0.4,1.7-3.3,0.5-2.3,5.5
		c4.1,1.7,7,5.7,5.4,10.9c-1.2,3.7-4.7,2.5-6.8,5.7c-5.2,8,2.1,4,3.3,10.4c0.6,3-2.9,8.9-3.9,11.2c-3.7,6.5-7.4,13.9-12.8,18.9
		c-4.3,4.2-9.1,10.9-14.2,12.2c-5.8,1.2-12.8-2-18.3,0c-3.9,1.2-3.9,4.5-7.4,7.7c-2.9,2.5-4.3,2-7.6,3c-6.4,1.7-8.7,9.4-12,16.6
		c-1.6,4-1.9,7-3.9,9.7c-2.5,3-7,2.5-7,8.4c2.7,0.5,4.9,1.2,7.6,2.7c-1.9,8.7-7.4,17.4-7,27.3l0,0c2.5,3.2,4.9,6.7,6.8,9.4
		c6.2,8.9,0.4,8-1.9,16.2c-2.1,7.2,2.7,14.9,7.4,18.1c3.5,2.2,12.8-1.2,13.8,5.2c0.4-0.2,0.8-0.5,1.2-0.7c2.5-2,7.2-4.7,9.5-7
		c3.7-3.7,1.9-5,3.5-9.7c2.1-6.7,6.4-15.7,9.7-21.1c1.9-3.2,5.8-6.5,6.2-11.2c0.6-4.7-0.6-8.4-0.4-12.2c0.6-7.5,3.7-18.6,9.9-21.9
		c5.8-3,14,3.5,19.6,4c8.2,0.5,12.8-5.7,19.2-9.9c7.6-5,13.2-8.2,20-15.7c6.2-6.7,9.3-12.9,17.5-7.7c3.9,2.2,5.4,5,9.9,5.5
		c3.1,0.5,6.4,0,9.5,0c3.3,0,7.2-0.7,10.3,0c4.9,1.2,11.5,5.2,16.3,8c2.5,1.2,4.7,6,6.8,9.4V139c0,0.2,0,0.2,0,0.2
		c1.2,2.2,2.5,3.7,3.3,4c5.4,2.2,11.1,4,16.5,6.5c5.6,2.5,11.3,1,17.5,1.7c4.9,0.7,11.5,3.2,16.7,4c5.2,0.7,8.9,0.5,12.8,1.5v-0.2
		l0,0C668.1,154.1,668.8,145.9,669.4,143z"/>

	<path id="Kotli" title="Kotli" class="land" d="M417.1,565.9c3.9,2.7,7.6,1.5,11.5,3.2c7,3.2,11.7,17.4,18.8,20.4
		c0-0.5,0-1,0-1.2c0,0.5,0,1,0,1.2c0.8,0.5,1.9,0.5,2.5,0.5c5.8,0.2,15.9-7.7,22.9-9.9c0.6-1.5,1.6-3,3.3-4.2c7-5.5,12-6,17.5-13.4
		c4.9-6.7,11.3-8.7,12.2-19.4c0.6-7.2,0.6-17.4-0.8-23.9c-3.3-14.4-3.9-25.8-14.8-35.3c-3.9-3.2-7.8-7.5-12-10.9c-2.3-2-4.1-3-5.8-4
		c0,0.2,0,0.2,0,0.2c0-0.2,0-0.2,0-0.2c-2.1-1.2-3.5-3-4.3-6.7c-3.9-1.5-9.1,2.2-13.6,3c-0.2,0-0.2,0-0.4,0.2c0.2,0,0.2,0,0.4-0.2
		c-1,0.2-2.1,0-3.1-0.5c-5.4-2.2-4.7-6-10.3-3.5c-3.9,1.5-6.4,8.2-11.3,6.7c1.2-6.7-4.9-12.2-9.7-12.7c-5.6-0.7-8.5,4-12.2,7.2
		c-5.4,5-7.6,5-12.8,0.2c-4.1-4-6.4-6-9.9-6.7c-1.9,5.7-2.3,10.2,3.5,16.9c3.9,4.5,5.2,9.7,5.4,16.2c0,5.7-3.3,10.4-3.3,15.7
		c0,4,2.7,3.5,3.3,6.2c0.6,3.2,0.4,2.2-0.4,5.7c-1,7.7-5.8,13.7-8.7,20.1c7.2,2.2,14.2,12.7,19.8,17.6
		C409.7,558.4,412.6,562.7,417.1,565.9z"/>

    <path id="poonch" title="Poonch" class="land" d="M465.5,405.1c-2.5,1.2-7.2,0.5-10.1,0.5c-11.7,0-18.5-7.7-27.6-16.2
		c-4.1-4-8.9-7.7-12.8-11.9c-3.5-4-6.2-14.2-11.1-13.9c-4.9,0.2-9.1,12.9-10.3,18.1c-1,5.2-2.7,10.4-5.8,8.4c0,1.7-0.2,3.7-0.4,5.7
		c-1.6,10.2-6,16.4-3.3,26.8c0.2,0.5,0.4,1.2,0.6,1.7c4.1,0,8,0.5,12.6-1c5.6-2.2,9.1-4,15.7-1.7c3.7,1.2,6.8,6.2,10.3,7
		c5.2,1.2,9.1-4.2,14.2,1c3.1,3,5.2,8.9,7.4,12.9c1.4-15.7,24.7,17.9,10.3,22.9c4.5-0.5,9.7-4.5,13.6-3c-0.2-1-0.4-2-0.4-3.2
		c-0.6-8.4-5.4-13.7-1.2-20.1c2.3-3.7,6-7.2,8-9.9c1.9-2.5,4.1-8.2,5.8-9.9c-0.4-5.2,0.4-12.4-1.9-16.9
		C473.8,392.4,470.7,402.4,465.5,405.1z"/>

	<path id="Bagh" title="Bagh" class="land" d="M524.9,359.6c-0.2-0.2-0.4-0.5-0.4-0.7c-0.4-1-0.8-2-1.2-3
		c-0.4-0.7-1.2-1.2-1.9-2c-0.6-0.7-1-1-1.9-1.2c-0.6-0.2-1-0.7-1.6-1.2c-0.6-0.2-1.2-0.5-1.9-1c-1.9-0.5-4.1-0.7-5.8-1.5
		c-1.2-0.5-2.5-1.2-3.5-1.7c-4.5-1.2-8.9-3.2-13.2-4c-3.5,0-6.8-0.5-10.1-0.5c-0.4,0-0.6,0-1,0.2c-3.3,0.5-6.8,0.7-10.5,1.5
		c-3.1,1.2-6.2,3-9.3,4c-1.4,0.5-3.1,1-4.7,0.5c-4.9,0.2-9.1,0.7-12.8-4.2c-2.3-3.2-5.4-12.2-5.2-16.6c-6.6-0.5-12.2,1.5-19,1.7
		c-6,0.2-12.4,6.7-18.3,4c-4.3-2.2-3.9-6.7-8.5-6.7c-2.3,0-1.9,5-6.2,2.2c-1.9-1.2-7.6-9.9-8.2-12.7c-3.3-0.5-6.8-0.2-10.1-0.2
		c0.4,13.7,2.3,27.3,7,39.3c4.5,11.2,10.9,21.1,10.7,33.8c3.1,2,4.7-3.2,5.8-8.4c1-5,5.4-17.9,10.3-18.1c4.7-0.2,7.6,10.2,11.1,13.9
		c3.9,4.2,8.7,8,12.8,11.9c9.1,8.7,15.9,16.4,27.6,16.2c3.1,0,7.6,1,10.1-0.5c5.4-2.7,8.5-12.9,13.2-2.5c2.1,4.5,1.2,11.7,1.9,16.9
		l0.2-0.2c6.2-6.2,13.4-1,19.4-7.5c3.9-4.2,8.5-6.5,13-8.9c6-3.2,4.7-4.5,8.5-10.4c1.6-2.7,5.8-6,6.8-8.7c1-2.7,0.4-6.5,0-9.4
		c-0.4-3.2-1-6.7-1.9-10.2c-0.4-1.2-0.6-2.5-1-3.7C525.1,360.4,525.1,359.9,524.9,359.6z"/>

    <path id="muzaffarabad" title="Muzaffarabad" class="land" d="M473.2,296.8c3.5-4.7,2.5-9.7,1.9-17.1c-0.4-9.4-2.9-8-7.8-12.7
		c-5.4-5-2.5-7.2-4.7-14.2c-3.5-11.7-20.6-14.2-22.9-1.2c-2.9-3.2-10.3-6-12.2-8.9c-5.2-7.5,1.4-10.2,6.2-13.4
		c-1-6.2-10.3-3-13.8-5.2c-4.7-3-9.5-10.9-7.4-18.1c2.5-8,7.8-7.2,1.9-16.2c-1.9-2.7-4.3-6.2-6.8-9.4c-5.8,2-5.6-6.5-9.3-8.7
		c-5.4-3.2-9.9,5-14.2,6.2c-6,2-17.1-6.2-21.8,0.2c-2.5,3.2-1.6,13.7-2.1,17.9c-1,9.2-1.2,18.4-2.1,27.6c-0.6,6.7-4.3,15.7-3.9,21.9
		c0.4,7,9.3,14.2,11.1,21.1c1.9,7,1,14.9,1.9,22.6c0.6,6.7,2.9,13.7,2.9,21.4c0,2,0,4,0,6c3.3,0,6.8-0.2,10.1,0.2
		c0.4,2.7,6.4,11.4,8.2,12.7c4.5,2.7,4.1-2.2,6.2-2.2c4.7-0.2,4.3,4.7,8.5,6.7c5.8,2.7,12.4-4,18.3-4c6.8-0.2,12.4-2.2,19-1.7
		c-0.4,4.5,2.9,13.4,5.2,16.6c3.3,5,7.6,4.5,12.8,4.2c-0.4,0-0.4-0.2-0.8-0.2c-3.9-6.2-0.6-13.7-0.2-19.9c0.6-6.7-1-13.4,1.9-18.6
		c1-1.7,2.3-3,3.5-4c0.8-0.5,1.4-1.2,2.3-1.7C467.6,302,470.7,300,473.2,296.8z"/>
	
    <path id="sidhnoti" title="Sidhnoti" class="land" d="M408.2,462.8c3.9-3.5,6.6-8,12.2-7.2c4.7,0.5,10.9,5.7,9.7,12.7
		c4.9,1.5,7.6-5,11.3-6.7c5.6-2.2,4.9,1.5,10.3,3.5c1,0.5,1.9,0.5,3.1,0.5c14.2-5-8.9-38.5-10.3-22.9c-2.1-4-4.3-9.9-7.4-12.9
		c-5.4-5-9.3,0.2-14.2-1c-3.5-0.7-6.8-5.7-10.3-7c-6.2-2.2-9.9-0.2-15.7,1.7c-4.3,1.5-8.2,1-12.6,1c1.6,4,4.1,6.7,4.9,11.2
		c0.8,4.2-0.4,8.4-1.4,12.2c-0.8,3.2-1.9,6-2.5,8.4c3.3,1,5.8,3,9.9,6.7C400.4,467.7,402.7,467.7,408.2,462.8z"/>
</g>
</svg>
