<svg version="1.1" id="Layer_1" xmlns="http://www.w3.org/2000/svg" xmlns:amcharts="http://amcharts.com/ammap" xmlns:xlink="http://www.w3.org/1999/xlink" x="0px" y="0px"
	 width="1400px" height="768px" viewBox="0 0 1024 768" style="enable-background:new 0 0 1400 768;" xml:space="preserve">
    <defs>
    <amcharts:ammap projection="mercator" leftLongitude="73.443604" topLatitude="75.19043" rightLongitude="74.245605" bottomLatitude="74.4104"></amcharts:ammap>
    </defs>
 <g>
  <path id="dhirkot" title="Dhirkot" d="m164.355333,39.999054c-0.666665,0 -13.999972,5.999988 -14.666637,6.666653c-0.666665,0.666666 -1.33333,11.333311 -1.33333,11.333311c0,0 5.999987,13.333306 5.999987,13.333306c0,0 -8.666649,9.999979 -11.33331,9.999979c-2.666661,0 -13.999971,1.333331 -13.999971,1.333331c0,0 -14.666637,7.999984 -13.999972,7.999984c0.666665,0 9.333314,18.666629 9.333314,18.666629c0,0 -3.999991,17.333298 -3.999991,17.999963c0,0.666665 0.666665,14.666637 0.666665,15.333302c0,0.666665 -2.666661,18.666629 -2.666661,18.666629c0,0 10.666645,12.666641 10.666645,12.666641c0,0 4.666657,32.6666 4.666657,33.333265c0,0.666665 1.999996,30.666604 1.999996,30.666604c0,0 4.666657,23.999952 4.666653,23.999945c0.000004,0.000007 3.33333,28.666615 3.33333,28.666615c0,0 0,8.666649 8.666646,21.333283c0.000003,0.000007 2.666665,31.999942 2.666661,31.999934c0.000004,0.000008 7.999987,18.666636 7.999987,18.666636c0,0 3.999992,21.999956 3.999988,21.999948c0.000004,0.000008 6.666657,23.333294 6.666657,23.333294c0,0 9.99998,23.333285 9.99998,23.333285c0,0 11.33331,18.666629 11.33331,18.666629c0,0 3.999992,9.99998 3.999992,9.99998c0,0 14.666637,24.666616 15.333302,24.666616c0.666666,0 9.99998,-7.333318 9.999975,-7.333328c0.000005,0.00001 8.666654,2.666671 9.333319,2.000006c0.666666,-0.666666 1.999996,-13.333306 1.999996,-13.333306c0,0 7.999984,3.999991 7.999979,3.999982c0.000005,0.000009 3.333331,-14.666627 3.333331,-14.666627c0,0 5.999988,-17.999964 7.333319,-19.99996c1.333331,-1.999996 7.999984,-22.66662 7.999984,-24.666616c0,-1.999996 1.33333,-31.33327 1.33333,-31.999935c0,-0.666665 1.999996,-11.999976 5.333323,-13.333306c3.333326,-1.333331 16.666632,-5.333323 17.333298,-6.666653c0.666665,-1.333331 19.333294,-12.666641 19.333294,-12.666641c0,0 23.999951,21.33329 24.666616,21.33329c0.666666,0 12.666641,13.333306 12.666641,13.999971c0,0.666665 10.666645,-30.666604 10.666645,-31.333269c0,-0.666666 -3.333326,-14.666637 1.999996,-16.666633c5.333323,-1.999996 13.333306,-13.333306 13.333306,-13.333306c0,0 -9.333314,-25.333282 -9.333314,-25.333282c0,0 -3.999992,-1.999996 -3.999992,-3.333327c0,-1.33333 0,-12.666641 0,-13.333306c0,-0.666665 -1.333331,-23.333286 -1.999996,-25.333282c-0.666665,-1.999996 1.999996,-17.999963 2.666661,-18.666628c0.666666,-0.666666 5.333323,-13.333307 5.333323,-13.333307c0,0 1.33333,-11.33331 1.33333,-11.33331c0,0 0,-13.999971 0,-15.333302c0,-1.333331 2.666662,-24.666617 2.666655,-24.666622c0.000007,0.000005 -7.333312,10.66665 -7.333312,10.66665c0,0 -12.666641,1.999996 -12.666641,1.999996c0,0 -10.666645,7.333319 -11.33331,7.333319c-0.666665,0 -25.999947,-0.666666 -25.999947,-0.666666c0,0 -13.333306,-9.999979 -13.333312,-9.999985c0.000006,0.000006 -8.666643,-32.666594 -8.666643,-32.666594c0,0 -5.999988,-7.333319 -5.999993,-7.333324c0.000005,0.000005 -7.333313,17.333303 -6.666648,17.333303c0.666665,0 2.666661,20.666625 2.666656,20.66662c0.000005,0.000005 -9.333309,2.666666 -9.333309,2.666666c0,0 -26.666613,-15.333302 -26.666613,-15.333302c0,0 -18.666628,-27.999943 -19.333294,-29.333274c-0.666665,-1.33333 -9.333314,-25.333281 -9.333314,-25.333281c0,0 -9.99998,-1.999996 -9.99998,-1.999996c0,0 -28.666608,-1.999996 -28.666608,-1.999996c0,0 3.333327,-17.333298 3.333327,-17.333298c0,0 -2.666662,-11.999976 -2.666662,-11.999976c0,0 -0.666665,-17.999963 -0.666669,-17.999967c0.000004,0.000004 -3.333323,-13.333303 -3.333323,-13.333303c0,0 -4.666657,-4.666657 -5.333322,-4.666657z"/>
  <path id="baghtehsil" title="Bagh" d="m364.354918,169.332124c-0.666665,0 -2.666661,22.666621 -2.666661,22.666621c0,0 -1.333331,25.333282 -1.333331,25.333282c0,0 -7.999984,27.333278 -7.999984,27.333278c0,0 0.666666,26.666612 0.666666,26.666612c0,0 -0.666666,20.666625 -0.666666,20.666625c0,0 9.99998,6.666653 9.999973,6.666646c0.000007,0.000007 3.999999,19.999966 3.999999,19.999966c0,0 -11.999976,15.333302 -11.999976,15.333302c0,0 -1.999996,13.333306 -1.999996,13.333306c0,0 -9.999979,32.666601 -9.999979,32.666601c0,0 -3.999992,-3.333327 -3.999992,-3.333327c0,0 -1.333331,11.33331 -1.333331,11.999976c0,0.666665 5.999988,17.333298 5.999988,17.333298c0,0 7.999984,19.333294 7.999977,19.333285c0.000007,0.000009 13.999978,4 13.999978,4c0,0 7.333319,7.333319 7.333319,7.333319c0,0 6.666653,10.666645 6.666653,10.666645c0,0 9.99998,15.333302 9.99998,15.333302c0,0 5.999987,14.666637 5.999987,14.666637c0,0 30.666605,-8.666649 30.666605,-8.666649c0,0 4.666657,8.666649 4.666657,9.999979c0,1.333331 -0.666666,11.333311 -0.666666,11.999976c0,0.666665 -3.333326,11.999976 -3.333326,11.999976c0,0 -5.999988,12.666641 -5.999988,12.666641c0,0 18.666629,11.999975 18.666629,11.999975c0,0 15.333302,7.333319 15.333302,7.333319c0,0 13.333306,-11.999976 13.333306,-11.999976c0,0 6.666653,6.666653 7.33331,5.333312c0.000009,0.00001 2.66667,-5.999977 2.66667,-5.999977c0,0 13.333306,7.999983 13.333306,7.999983c0,0 11.999976,1.333331 13.999963,1.333321c0.000009,0.00001 12.666649,8.666659 12.666649,8.666659c0,0 11.333311,1.999996 11.333311,1.999996c0,0 7.999983,-3.333327 7.999983,-3.333327c0,0 -0.666665,-17.333298 -0.666665,-19.333294c0,-1.999996 11.33331,-27.999943 11.33331,-27.999943c0,0 9.333315,3.999992 9.99998,3.999992c0.666665,0 7.999984,0 7.999984,0c0,0 33.999931,15.999968 33.999931,15.999968c0,0 5.999987,1.999996 5.999987,1.999996c0,0 9.333315,-4.666658 9.99997,-4.666667c0.00001,0.000009 12.666651,2.666671 12.666651,2.666671c0,0 11.999976,5.999987 12.666641,5.999987c0.666665,0 9.333314,7.999984 9.333314,7.999984c0,0 11.33331,4.666657 11.33331,4.666657c0,0 10.666645,-5.333322 10.666645,-5.999987c0,-0.666666 8.666649,-15.333303 8.666649,-15.333303c0,0 20.666625,-25.999947 20.666625,-25.999947c0,0 15.333302,-13.333306 15.999968,-13.333306c0.666665,0 7.333318,-21.33329 7.333318,-21.33329c0,0 11.33331,-23.333286 11.33331,-23.999951c0,-0.666665 3.999992,-16.666633 4.666657,-17.333298c0.666666,-0.666665 15.333303,-15.333302 15.333303,-15.333302c0,0 2.666661,-15.999968 2.666649,-15.999976c0.000012,0.000008 -1.999984,-22.666612 -1.999984,-22.666612c0,0 -7.333319,-9.99998 -7.333319,-9.99998c0,0 -36.666592,0.666665 -36.666592,0.666665c0,0 -17.999963,-14.666636 -18.666628,-15.333302c-0.666666,-0.666665 -6.666653,-35.333261 -7.333319,-34.666596c-0.666665,0.666665 -12.666641,4.666657 -13.999971,4.666657c-1.333331,0 -16.666633,-3.333326 -17.999964,-3.999992c-1.33333,-0.666665 -30.666604,-20.666624 -31.333269,-20.666624c-0.666666,0 -27.999943,0 -27.333278,0c0.666665,0 -19.333294,-18.666629 -19.333294,-18.666629c0,0 -2.666661,-11.33331 -2.666661,-11.33331c0,0 -2.666661,-16.666633 -2.666661,-17.333298c0,-0.666665 6.666653,-25.999947 5.999987,-25.999947c-0.666665,0 -7.999983,-20.666625 -7.999983,-20.666625c0,0 -15.999968,-12.666641 -19.99996,-14.666637c-3.999992,-1.999996 -28.666608,-23.333286 -28.666608,-23.333286c0,0 -17.999963,5.999988 -18.666629,5.999988c-0.666665,0 -13.333306,17.333298 -13.333306,17.333298c0,0 -9.99998,-3.333326 -10.666645,-3.999992c-0.666665,-0.666665 -18.666629,-7.333318 -18.666629,-7.333318c0,0 -15.999967,-10.666645 -16.666632,-10.666645c-0.666666,0 -13.999972,3.333327 -14.666637,3.333327c-0.666665,0 -11.33331,1.999996 -13.333306,2.666661c-1.999996,0.666665 -16.666633,8.666649 -18.666629,8.666649c-1.999996,0 -13.333306,-7.999984 -13.333306,-7.999984c0,0 -17.999964,19.999959 -18.666629,19.999959z"/>
  <path id="havelitehsil" title="Haveli" transform="rotate(0.11747554689645767 982.863037109326,413.9933471679656) " d="m788.082291,259.177113c0,0 31.429524,10.891593 31.429524,10.891593c0,0 18.19604,7.779709 23.158596,6.223767c4.962557,-1.555942 44.663008,-9.335651 43.836777,-10.112848c0.826231,0.777198 25.639014,-14.78222 25.639014,-14.78222c0,0 23.158596,10.891593 23.158596,10.891593c0,0 66.167419,-6.223767 65.341187,-7.000965c0.826233,0.777198 20.676459,-3.890628 20.676459,-3.890628c0,0 38.046266,20.227243 38.046266,20.227243c0,0 56.242306,7.779709 56.242306,9.335651c0,1.555942 39.700452,4.667825 38.874217,3.890628c0.826235,0.777198 37.218315,25.672267 37.218315,25.672267c0,0 -8.270927,56.013905 -8.270927,57.569847c0,1.555942 -4.962556,32.674778 -4.962556,32.674778c0,0 14.887669,34.230719 11.579298,40.454486c-3.308371,6.223767 -51.279749,59.125789 -51.279749,60.68173c0,1.555942 -26.466968,7.77971 -26.466968,7.77971c0,0 -21.504411,21.783185 -24.812782,23.339127c-3.308371,1.555942 -64.513234,21.783185 -64.513234,21.783185c0,0 -52.933936,6.223767 -57.896492,6.223767c-4.962556,0 -44.663008,-1.555942 -44.663008,-1.555942c0,0 -19.850226,7.77971 -20.676457,7.002507c0.826231,0.777202 -15.715624,10.112853 -15.715624,10.112853c0,0 -13.233484,-42.010429 -14.059715,-42.78763c0.826231,0.777201 -14.061438,-11.670333 -14.061438,-11.670333c0,0 0,-15.559419 0,-15.559419c0,0 -18.196041,-21.783185 -18.196041,-21.783185c0,0 4.962556,-37.342604 3.308371,-38.898545c-1.654185,-1.555942 -41.354636,-35.786661 -41.354636,-35.786661c0,0 9.925113,-18.671302 9.925113,-20.227244c0,-1.555942 29.775338,-35.786661 29.775338,-35.786661c0,0 -3.308371,-32.674778 -3.308371,-32.674778c0,0 -41.354636,-1.555942 -41.354636,-1.555942c0,0 -19.850226,-29.562894 -20.676456,-30.340092c0.826229,0.777198 14.059714,-30.341638 14.059714,-30.341638z"/>
 </g>
</svg>