<svg version="1.1" id="Layer_1" xmlns="http://www.w3.org/2000/svg" xmlns:amcharts="http://amcharts.com/ammap" xmlns:xlink="http://www.w3.org/1999/xlink" x="0px" y="0px"
	 width="1024px" height="768px" viewBox="0 0 1024 768" style="enable-background:new 0 0 1024 768;" xml:space="preserve">
    <defs>
    <amcharts:ammap projection="mercator" leftLongitude="73.443604" topLatitude="75.19043" rightLongitude="74.245605" bottomLatitude="74.4104"></amcharts:ammap>
    </defs>
    <g>
  <path id="bimbhertehsil" title="Bimbher" class="land" d="m645.246156,522.769255c0,0 -11.333751,-19.334047 -11.333751,-19.334047c0,0 0.666691,-13.333825 0.666673,-13.333839c0.000018,0.000014 -14.000499,-25.334254 -14.000499,-25.334254c0,0 -10.000369,-25.334268 -10.000369,-25.334268c0,0 2.000074,-13.333825 2.000074,-13.333825c0,0 -8.666986,-10.000369 -8.666986,-10.000369c0,0 -9.333678,-1.333383 -9.333678,-1.333383c0,0 -12.667134,-20.000738 -13.333825,-20.000738c-0.666691,0 -24.000885,-3.333456 -24.000885,-3.333456c0,0 -8.666986,-6.666913 -8.666986,-6.666913c0,0 -21.33412,-10.000369 -21.334135,-10.00038c0.000015,0.000011 -0.666676,-7.333593 -0.666691,-7.333604c0.000015,0.00001 10.000384,-20.000727 10.000384,-20.000727c0,0 0,-20.667429 0,-20.667429c0,0 -6.000221,-19.334047 -6.000221,-19.334047c0,0 -6.666913,-9.333678 -6.666913,-9.333678c0,0 -6.000221,0.666691 -6.000221,0.666691c0,0 3.333456,-10.66706 3.333456,-10.66706c0,0 -7.333604,-7.333604 -7.333618,-7.333612c0.000015,0.000008 -12.000428,0.000008 -12.000428,0.000008c0,0 -10.66706,-5.33353 -10.66706,-5.33353c0,0 -10.000369,3.333456 -10.66706,4.000148c-0.666691,0.666691 -20.667429,0.666691 -22.000812,0.666691c-1.333383,0 -15.333899,-2.000074 -15.333899,-2.000074c0,0 -18.000664,-6.666913 -18.000664,-6.666913c0,0 -6.000221,0.666691 -6.000221,0.666691c0,0 0.666691,23.334194 0.666691,23.334194c0,0 -7.333604,0.666691 -7.333604,0.666691c0,0 -2.666765,13.333825 -2.666765,13.333825c0,0 2.666765,10.66706 2.666765,10.66706c0,0 -4.000148,4.666839 -4.000148,4.666839c0,0 0,8.000295 0,8.000295c0,0 -1.333383,14.000517 -1.333394,14.000507c0.000012,0.00001 -5.333519,8.000305 -5.333519,8.000305c0,0 -1.333383,12.667134 -1.333383,12.667134c0,0 -7.333604,12.000443 -7.333615,12.000432c0.000011,0.000011 1.333394,12.000453 1.333382,12.000442c0.000011,0.000011 0.666702,6.666924 0.666691,6.666912c0.000011,0.000011 -1.333371,13.333837 -1.333382,13.333825c0.000011,0.000012 20.000749,8.666998 20.000749,8.666998c0,0 15.333899,7.333604 15.333899,8.000295c0,0.666691 10.66706,4.666839 10.667048,4.666827c0.000012,0.000012 3.333469,17.333985 4.00016,17.333985c0.666691,0 23.334194,9.333678 23.334181,9.333665c0.000013,0.000013 18.667369,10.000382 18.667369,10.000382c0,0 20.667429,1.333383 20.667415,1.333369c0.000014,0.000013 14.000531,11.333765 14.000516,11.333751c0.000015,0.000014 7.333619,25.334282 7.333619,25.334282c0,0 8.666986,14.000517 8.666971,14.000502c0.000015,0.000015 14.000532,12.000458 14.000516,12.000442c0.000016,0.000015 21.334136,7.333619 21.334136,7.333619c0,0 12.667134,0.666691 12.667117,0.666676c0.000017,0.000015 6.000238,-2.66675 6.000221,-2.666765c0.000017,0.000015 22.66752,-13.33381 22.667502,-13.333825c0.000017,0.000015 19.334064,-4.666824 19.334064,-4.666824c0,0 12.667134,2.000074 12.667134,2.000074z"/>
  <path id="samani" title="Samani" class="land" d="m394.681227,411.348509c0,-2.000074 1.333383,-14.667208 1.333383,-14.667208c0,0 -2.666765,-18.667355 -2.666776,-18.667366c0.000011,0.000011 6.666924,-12.000432 6.666912,-12.000442c0.000011,0.00001 1.333394,-12.667124 1.333382,-12.667134c0.000011,0.00001 7.333615,-6.000211 7.333604,-6.000221c0.000012,0.00001 0.000012,-22.667493 0.666703,-23.334184c0.666691,-0.666691 4.666839,-6.000221 4.666827,-6.00023c0.000012,0.000009 -4.000136,-9.333669 -4.000136,-9.333669c0,0 3.333456,-12.000443 3.333456,-12.000443c0,0 6.666913,-0.666691 6.666913,-0.666691c0,0 -2.000074,-26.000959 -2.000074,-26.000959c0,0 -20.000738,0 -20.667429,0c-0.666691,0 -16.667282,2.000074 -17.333973,2.000074c-0.666691,0 -8.666986,-0.666691 -8.666986,-0.666691c0,0 -9.333678,4.000148 -9.333678,4.000148c0,0 -24.667577,0 -24.667577,0c0,0 -8.000295,-7.333604 -8.000295,-7.333604c0,0 7.333604,-6.000221 7.333604,-6.000221c0,0 -0.666691,-16.667282 -1.333383,-16.00059c-0.666691,0.666691 -14.000517,-14.667208 -14.000517,-14.667208c0,0 -27.334342,-17.333973 -27.334342,-17.333973c0,0 -15.333899,-5.33353 -15.333899,-5.33353c0,0 -10.000369,-16.00059 -10.000369,-16.00059c0,0 -16.667282,-10.66706 -16.667282,-10.66706c0,0 -32.001181,6.666913 -33.334563,6.666913c-1.333383,0 -8.666986,-5.33353 -8.666992,-5.333535c0.000006,0.000005 6.000227,-16.000585 6.000227,-16.667276c0,-0.666691 0.666691,-15.333899 0.666691,-15.333899c0,0 -12.000443,-10.000369 -12.000443,-10.000369c0,0 -8.666986,-10.66706 -8.666986,-10.66706c0,0 -14.667208,-8.666986 -14.667213,-8.66699c0.000005,0.000003 -10.000364,10.000372 -10.667055,10.667064c-0.666691,0.666691 -19.334047,12.000443 -19.334047,12.000443c0,0 0,25.334268 0,25.334268c0,0 -14.667208,14.000517 -14.667208,14.000517c0,0 -6.666913,15.333899 -6.666913,15.333899c0,0 16.667282,20.000738 16.667282,20.667429c0,0.666691 8.000295,8.000295 8.000295,8.000295c0,0 -5.33353,5.33353 -5.33353,5.33353c0,0 -6.000221,13.333825 -5.33353,13.333825c0.666691,0 -13.333825,16.00059 -13.333825,16.00059c0,0 -12.000443,12.000443 -12.000443,12.667134c0,0.666691 -5.33353,19.334047 -5.33353,19.334047c0,0 31.334489,2.666765 31.334489,2.666765c0,0 12.667134,5.33353 12.66713,5.333522c0.000004,0.000009 22.667507,-0.666683 22.667507,-0.666683c0,0 7.333604,7.333604 7.333604,7.333604c0,0 8.666986,1.333383 8.666986,1.333383c0,0 11.333751,8.000295 11.333751,8.000295c0,0 14.667208,-6.000221 14.667208,-6.000221c0,0 10.000369,4.666839 10.000369,4.666839c0,0 0.666691,16.00059 0.666691,16.00059c0,0 28.001033,8.666986 28.001026,8.666977c0.000007,0.00001 -3.333449,23.334204 -3.333449,23.334204c0,0 8.666986,5.33353 8.666986,5.33353c0,0 16.667282,2.666765 16.667282,2.666765c0,0 16.667282,-6.000221 17.333973,-6.000221c0.666691,0 9.333678,7.333604 9.333678,7.333604c0,0 -1.333383,17.333973 -1.333383,17.333973c0,0 18.667355,0.666691 18.667346,0.66668c0.000009,0.000011 14.000526,6.666924 14.000516,6.666912c0.00001,0.000011 26.000969,7.333615 26.000969,7.333615c0,0 20.000738,4.000148 20.000727,4.000136c0.000011,0.000012 8.000306,2.666777 8.000306,0.666703z"/>
  <path id="barnala" title="Barnala" class="land" d="m182.00671,122.0045c0,0 14.00052,8.66699 14.00052,9.33368c0,0.66669 9.33368,11.33375 9.33368,11.33375c0,0 12.00044,10.00037 12.00044,10.00037c0,0 0,13.33382 0,13.33382c0,0 -8.00029,17.33398 -8.00029,16.66729c0,-0.6667 8.66698,7.3336 8.66698,7.3336c0,0 34.00126,-8.0003 34.00126,-8.0003c0,0 16.00059,10.00037 16.00059,10.00037c0,0 10.00037,16.66729 10.00037,17.33398c0,0.66669 20.00073,6.00022 20.00073,6.00022c0,0 24.66758,16.66728 24.66758,16.00059c0,-0.66669 12.66714,16.00059 12.66714,16.00059c0,0 0.66669,14.00051 0.66668,14.00051c0.00001,0 -6.66691,6.66692 -6.66691,6.66692c0,0 6.66692,6.66691 6.66692,6.66691c0,0 26.00096,1.33338 26.00096,1.33338c0,0 10.66706,-4.66684 10.66706,-4.66684c0,0 10.66706,0.6667 10.66706,0.6667c0,0 20.00073,-2.66677 20.66743,-2.66677c0.66669,0 15.33389,0.66669 15.33389,0.66669c0,0 6.00023,0.66669 6.00023,0.66669c0,0 16.00059,7.33361 16.00059,7.33361c0,0 24.00088,2.00007 24.00088,2.00007c0,0 19.33405,-0.66669 19.33405,-0.66669c0,0 7.3336,-5.33353 7.3336,-5.33353c0,0 -18.66735,-11.33375 -18.66737,-11.33376c0.00002,0.00001 -23.33418,-18.66735 -23.33418,-18.66735c0,0 -11.33375,-4.00015 -12.00044,-4.00015c-0.66669,0 -9.33368,-8.00029 -9.33368,-8.00029c0,0 -9.33368,-2.00007 -9.33368,-2.00007c0,0 -6.66691,-6.66692 -6.66691,-7.33361c0,-0.66669 2.00008,-8.00029 2.00008,-8.00029c0,0 -2.00008,-12.00045 -2.00008,-12.00045c0,0 -6.66691,-4.66684 -6.66691,-5.33353c0,-0.66669 1.33338,-6.66691 1.33337,-6.66691c0.00001,0 -6.6669,-4.00015 -6.66691,-4.00015c0.00001,0 -0.66668,-9.33367 -0.66669,-9.33368c0.00001,0.00001 -24.66757,-32.00117 -24.66757,-32.00117c0,0 -12.66713,-6.00023 -12.66713,-6.00023c0,0 -27.33434,-18.66735 -27.33435,-18.66735c0.00001,0 -8.00029,-8.0003 -8.00029,-8.0003c0,0 -24.00089,-9.33367 -24.00089,-9.33367c0,0 -26.00095,-13.33383 -26.00095,-13.33383c0,0 -11.33376,-10.00037 -11.33376,-11.33375c0,-1.33338 -5.33353,-16.00059 -5.33353,-16.00059c0,0 -8.00029,-14.00052 -8.00029,-14.00052c0,0 -8.0003,3.33346 -8.66699,3.33346c-0.66669,0 -16.00059,1.33338 -16.00059,1.33338c0,0 -20.00074,-16.66728 -20.00074,-16.66728c0,0 -9.33367,10.00037 -9.33367,10.00037c0,0 -14.00052,14.00051 -14.66721,14.00051c-0.66669,0 -9.33368,5.33353 -9.33368,5.33353c0,0 2.00007,14.66721 2.00007,14.66721c0,0 0.6667,8.66699 0.6667,8.66699c0,0 1.33338,13.33382 1.33338,13.33382c0,0 5.33353,11.33376 5.33353,11.33376c0,0 -2.00008,8.00029 -2.00008,8.00029z"/>
 </g>
</svg>