<?xml version="1.0" encoding="utf-8"?>
<!-- Generator: Adobe Illustrator 21.0.0, SVG Export Plug-In . SVG Version: 6.00 Build 0)  -->
<svg version="1.1" id="Layer_1" onload="init(evt)" xmlns="http://www.w3.org/2000/svg" xmlns:amcharts="http://amcharts.com/ammap" xmlns:xlink="http://www.w3.org/1999/xlink"
	 x="0px" y="0px" viewBox="0 0 800 600" style="enable-background:new 0 0 800 600;" xml:space="preserve">
    <!-- <defs>
    <amcharts:ammap projection="mercator" leftLongitude="71.873" topLatitude="35.304" rightLongitude="76.981" bottomLatitude="32.616"></amcharts:ammap>
    </defs>-->
      <defs>
    <amcharts:ammap projection="mercator" leftLongitude="73.399315" topLatitude="36.665665" rightLongitude="78.997192" bottomLatitude="32.292756"></amcharts:ammap>
    </defs>
<g id="kashmir-grouping">
	<path id="shanksgam" title="Shanksgam" class="land" d="M351.9,115.5c-2.3,2.3-4.1,2.7-3.9,6.4c0.1,1.6,0.8,2.3,0.7,4.2c-0.1,1.2-0.6,2.3-0.6,3.7
		c2.5-0.1,4.8,1.2,4.6,4c1.4,0,5.5-0.3,6.9-1c2.8-1.5,2.1-3.6,6-3.2c1.2,4.1-4.7,6.6-0.6,10c0.7,0.5,1.8,0.1,2.7,1.2
		c0.4,0.5,0.6,1.8,0.8,2.4c0.8,4.2-3.2,14.3,4.2,13.3c2.3-0.3,4.3-1.6,6.5-2.1c2.8-0.6,4.1,1.3,6.2,1.3c2.5,0,4-3.4,6.5-4.1
		c1.8-0.5,4.3,0,6.2,0c2.3,0,4.5,0.2,6.5,0.6c1.9,0.4,1.2,1,2.9,0.3c0.9-0.4,1.6-1.8,2.6-2.5c3,1.6,2.1,4.1,3,6.8
		c1,3.1,1.5,3.8,0.9,7.2s-0.3,4.5,2,7.2c2.2,2.5,3.5,4.2,3.7,7.5c2.7,0.5,4.1,0.2,6.3,2.3c1.4,1.3,4.1,3.4,3.7,5.7
		c3.2,0.5,6.7-0.2,9.6,0.9c3.8,1.6,4.6,6.5,7.9,8.7c2.5,1.6,6.3-1.3,9.4-1c2.5,0.2,8.8,5.2,3.9,6.2c2.2,3.6,4.2,3.7,7.9,3.9
		c0.5,4.9,6.3-0.2,8.3-0.5c1.8-0.3,2.5,1.2,4.2,0.9c2.6-0.5,1.9-1.9,2.6-3.6c1.2-2.7,3.7-5.2,6.2-6.8c1.4-0.9,1.6-1.5,3.4-1.7
		c0.1,0,0.2,0,0.2,0c0.1-0.8,0.1-1.7,0.2-2.7c3-0.2,7.3,0.6,9.6-1.6c-1.3-3.1-3.3-6.4-5.1-9.2c-0.6-0.9-1.9-3.7-2.8-4.4
		c-1.2-0.9-2.7-1.2-4.1-2.2c-2.4-1.9-4.7-4.6-7.8-4.7c-2.2-0.1-3.6,1.5-5.8,0.9c-1.5-0.4-3.5-2.6-4.6-3.2c-1.4-0.9-2.1-1.6-3.6-2.7
		c-1.4-1.2-1.9-0.6-3.3-1.3c-1.1-0.5-2.3-1.7-3.3-2.1c-2.3-0.9-1.8,0.2-4,0.7c-5.8,1.6-11.1,0.9-16.3-2.5c-1.4-0.9-3-1.5-4.2-2.8
		c-1.1-1.3-1.5-2.9-2.7-4s-2.8-0.5-3.7-1.3c-0.9-0.7-1.3-2.8-1.8-4.1c-1.1-2.9-2.2-5.2-2.4-8.4c-0.3-3.8,1.7-5.2,1.5-9.2
		c-2.4-0.2-4.5-4.2-6-5.8c-1.9-2-2.9-3.8-4.8-5.4c-1.1-0.9-1.9-1.9-3.2-2.4c-2.2-0.9-2.6,0.2-4.4,0.5c-2.9,0.6-3.8-1.8-6-3.1
		c-2.4-1.5-5.5-1.4-7.9-2.8c-4.2-2.4,0.4-4.5-0.5-7.9c-3.3-0.8-4.1-5.2-8-5.7c-4.4-0.6-9.2-0.5-12.2,2.4c-2.1-2.4-2.3-5.8-5.1-6.9
		c-3.2-1.2-5-1.4-7.9-3.6c-1.2-0.9-2.2-2.1-3.3-3.1c-0.6-0.5-2.9-1.6-3.1-2c0-0.1-0.1-0.1-0.1-0.2c-0.9,0.9-1.8,1.7-2.9,2.6
		c-1.6,1.2-3.3,2.2-2.3,5.2c0.7,2.1,3.3,4.7,4.3,6.3c1,1.7,3.6,4.5,3,6.7c-3.4,0.2-4.4,0.6-4.2,4.5c0.1,1.7,1.2,2.2,0.3,4.2
		C354.4,113.7,352.7,114.7,351.9,115.5z"/>
	
    <path id="siachen" title="Siachen-Glacier" class="land" d="M532.4,192.2c-2.3-0.5-3.6,1.9-5.6,2.4c-1.1,0.3-2.4-0.3-3.5,0c-0.9,0.2-1.7,1.3-2.6,1.8
		c-1.8,0.9-4,0.7-6.1,0.5c-1.8-0.1-4-0.5-5.8-0.8c-3-0.6-2.6-0.7-5,1.1c-1.5,1.1-3.9,3.1-6.2,2.2c-2-0.7-2.6-3.1-4.9-2.9
		c0.3-0.9,0.5-1.9,0.6-2.8c-0.1,0-0.2,0-0.2,0c-1.9,0.2-2,0.7-3.4,1.7c-2.5,1.6-4.9,4.2-6.2,6.8c-0.9,1.8-0.1,3.1-2.6,3.6
		c-1.7,0.3-2.4-1.1-4.2-0.9c-1.9,0.3-7.7,5.4-8.3,0.5c-3.7-0.2-5.7-0.3-7.9-3.9c4.9-0.9-1.4-6-3.9-6.2c-3-0.2-6.9,2.7-9.4,1
		c-3.3-2.1-4.1-7-7.9-8.7c-2.9-1.2-6.3-0.4-9.6-0.9c0.4-2.3-2.3-4.4-3.7-5.7c-2.2-2.1-3.7-1.9-6.3-2.3c0-0.5-0.1-0.9-0.2-1.3
		c-0.5,3.5,0.5,9.2,1.6,11.4c1.7,3.1,3.8,5.5,6.2,8c4.6,5,9.6,9.2,14.2,14.1c4.8,5,9,9.8,11.9,16.1c2.4,5.2,5.5,11.4,6.2,17.3
		c0.2,2.3,0.6,4.5,0.8,6.9c0.2,3-0.8,6-1.8,8.8c0.1-0.1,0.2-0.2,0.2-0.2c2.2-1.7,4.4-3.5,6.5-5.2c8.1-6.5,16.2-13,24.2-19.4
		c14.7-11.8,29.4-23.6,44.2-35.4c2.2-1,3-2.4,3.9-2.3C536,196,534.6,192.8,532.4,192.2z"/>
    
	<path id="aksai" title="Aksai-Chin" class="land" d="M786.1,184.6c-1.9-4.4-6.1-5.2-9.9-7.8c-1.3-0.9-3.2-2.9-4.8-3.4c-2.9-1-3.9,0.5-6.2-2
		c-1.9-2.1-2.8-4.8-4.1-7.4c-0.9-1.8-1.9-5.9-3.3-7.1c-1.6-1.4-7.5-1.6-9.6-0.9c-3.6,1.1-3.7,4.4-8.2,3.8c-3.1-0.5-6.2-0.6-9.1-1.8
		c-2.3-0.9-4.3-2.8-6.5-3.5c-4.2-1.3-8.6-2.4-12.9-3.8c-4-1.3-6.6-1.2-10.7-1.5c-3.8-0.3-3.7-2.3-5-5.6c-1.3-3.4-1.6-5.1-5-5.6
		c-2.8-0.4-6.5-0.1-8.9,0.8c-2.6,0.9-7.9,3.4-8.5,6.4c-0.5,2.6,1.9,3.7,1.7,5.4c-0.2,1.6-3.3,2.9-4.4,3.6c-3.5,2.2-5,1.6-8.9,0.6
		c-2.8-0.8-4.6-2.3-6.9-3.2c-2.6-1-6.3-0.4-9.2-0.4c-3.2,0-6.4-0.9-9.7-0.4c-2.3,0.4-2.9,1.7-5,2.8c-1.8,0.9-3.6,0.2-5.4,0.7
		c-2.8,0.9-4.1,4.5-6.2,6.4c-1.2,1-2.3,1.1-3.4,1.7c-1.5,0.8-2.7,2-4.2,3.2c-1.6,1.4-1.8,1.7-4.2,1.6c-1.3-0.1-2.4-0.5-3.8-0.4
		c-3.3,0.2-4.8,4-7.6,3.3c0,3.7-4.8,1.3-6.6,0.8c-2.5-0.9-6.1-2-7.8,1.2c3.3,3.5-1.3,3.9-3.7,4.1c0,2.2-1,1.3-2,2
		c-0.5,0.4-1.7,0.9-2.4,1.4c-2.5,1.8-3.7,5.2-6.4,5.5c-3.2,0.2-6.2-2-9.7-1.6c-1.9,0.2-5.3-0.3-6.9,1c-2.7,2.2,0.5,4.2-0.3,7
		c-0.3,0.9-3.3,4.5-4.1,5.1c-1.9,1.7-5.1,0.9-6.8,2.9l-0.2,0.4c0,0.1,0.1,0.1,0.1,0.1c1.8,3.1,2.3,4.1,2.6,7.8
		c3.2,0.3,6.3-1.6,8.6-3.8c2.7-2.7,3-2.8,7.1-2.8c2.5,0,7.8-0.2,7.2,2.6c-0.5,2.8-5.5,4.1-6.9,6.6c-1.8,3.2-0.9,6-0.2,9.1
		c0.6,2.4,0.1,5.5,0.6,8.2c0.6,3.4,3.3,6.4,5.6,9.1c1.9,2.2,6.5,5,7.5,7.2c-2.1,1.9-4.1,3.9-6.2,5.8c-3.7,3.3,0.5,6.4,3.1,9.4
		c2.1,2.3,1.2,2.4,2.2,5.1c0.6,1.9,2.8,3.1,3.7,4.8c1.6,3.1,1.2,7,2.5,10c0.8,1.8,1.9,3.1,2.3,5.1c0.3,1.6-0.2,3.4,0.2,5
		c0.9,4,3.8,6.8,6.9,9.2c1.4,1.1,3.2,2.7,4.9,3.7c1.6,0.9,2.8,0.5,4.5,1c2.5,0.8,2.5,1.3,3.3,3.8c0.7,2.2,0,3.3,2.6,3.2
		c6.3-0.2,11.8-5.8,18.1-1.1c2.4,1.8,4.6,3.8,6.9,5.6c2.3,1.8,4.7,3.1,6.7,5.1c3.8,3.8,7.2,11,12.7,12c2.4,0.4,4.9-0.2,7,0.7
		c2.4,1.1,4.3,3.8,6.7,4.5c1,3.4-3.3,8.5-0.5,11.1c-0.7,2.1-1.7,3.4-3.1,5c-1.7,1.9-2.3,2-4.2,3c-3,1.5-6.2,3.4-9.2,4.9
		c-1.6,0.7-3.4,0.3-5,1.3c-1,0.7-1.4,2.2-2.2,2.8c-0.5,0.4-2.2,1.1-2.4,1.3c-2.5,2.5-1.2,6.7,1.7,8c1.3,0.6,4.1-0.5,4.5,1.9
		c0.2,1.3-1.7,2.4-2.4,3.2c-2.6,3-2.3,6.5-3.5,10.1c-1.5,4.2-1.2,6.5,1.9,10c2.7,3.1,7.1,5.2,5.1,9.6c-1.5,3.4-4.1,6.8-6.2,9.6
		c-2.8,3.7-1,5.4,1.1,9.2c1.9,3.4,4.3,7.1,6.5,10.2c2.6,3.5,5.9,6.6,8.9,9.9c1.9,2.2,8.2,7,8.3,9.8c1.1-0.1,2.2,0.2,3.3,0.7
		c-0.6-1.9-1.1-5-3.3-5.9c-0.2-3.8-0.4-6.8-1.2-10.4c-0.8-3.1,0.4-6.8-0.4-10c-0.7-3.1-4.6-5.1-0.8-6.8c1.9-0.9,15.6-0.5,16-2.1
		c1.3-4.8-4.8-6.7-7.5-9.2c1.2-3.1,3-4.7,1.6-8.4c-2-4.9-5.1-9.5-7.2-14.5c-1.2-2.7-1.9-5.7-3.2-8.4c-1.7-3.8-2.3-5.1,1.6-7.5
		c1.2-0.8,3.3-2.7,4.5-3.2c1.8-0.7,3.3,0.6,4.6,0.8c3.7,0.4,6.1,2.5,9.7,2.4c3.3-0.2,6.4-2,9.6-2c2.6,0.1,3,1.6,4.8,2
		c2.2,0.4,4.3-1.1,6.5-0.7c2.6,0.4,4.7,2.4,7.2,0.5c3.3-2.4-1.9-6.2-1.2-9.3c0.5-2.8,3.7-2.5,5.5-3.9c2.6-2,1.9-4.5,2.6-7.4
		c0.4-1.3,1.8-2.7,3-3.6c1.6-1.2,3.2-1.5,3.8-3.2c0.4-1.1,0.1-3.7,0-4.9c-0.2-3.1-1.2-6.2-2-9.2c-0.8-3.2-1.1-6.1-2.3-9.2
		c-1.5-4.2-0.5-5.6,4-7.1c6-2.1,11.7,0.2,17.7-0.2c6.7-0.4,2-6-1.2-8.5c2.5-3.1,0.5-6.6,4-9.1c2.6-1.9,5.8-3,8.7-4.1
		c4.6-1.9,9.7-1.2,14.3-2.9c6.4-2.3,2.1-7.3,2.9-12.8c0.4-2.8,2.6-6.7,3.7-8.9c1.6-3.5,4.1-6.6,6.4-9.9c0.9-1.3,1-0.4,1.5-2.1
		c0.2-0.7,0-1.7,0-2.4c0-1.7,0-3.5,0-5.2c0-3.3-0.3-6.8,0-10c0.4-3.9,1.4-6.4,2.9-10c0.9-2,0.7-3.1,0.9-5.3c0.2-2,1.2-3.1,1.6-4.7
		c0.3-1.6-0.5-3.6-0.1-5.2c0.9-3.5,2.7-5.2,3.2-9.1c0.4-3.6,1.1-7,2.8-10.3C790.2,192.1,788,188.9,786.1,184.6z"/>
		
			<path id="Bimbher" title="Bimbher" class="land" d="
			M193.8,520.5c-0.7-3.4-4.5-4.9-8-4.5c0,0,0,0,0-0.1c-0.3,0.2-0.3,0.2,0,0c-0.1-1.4,0.3-3.4-0.1-4.7c-0.3-1.2-1.2-1.7-1.6-2.8
			c-0.8-3.1-0.1-4.6-3-6.6c-3.7-2.6-7.3-4.4-11.5-5.9c-4-1.4-3.5-4.3-5.3-8c-2.5-5.3-7.4-6-10.9-10.3c-1.6-1.9-2.7-3.8-1.9-5.5
			c-3.4,0.9-8.3,4.1-11.1,4c-0.5,0-0.9-0.1-1.2-0.2c-0.2,5.4-3,9.6-3.8,14.3c-0.5,3.1,0.7,5.5,0.8,8.3c0,1.9-0.6,3.6-1.2,5.4
			c0.8-0.5,2-0.7,3.9-0.5c4.1,0.5,5.5,2.3,8.8,5c1.6,1.3,2.8,2.6,4.3,3.9s2.4,0.7,4.2,1.5c5.1,2.1,9.6,5.2,14.6,7.4
			c2.6,1.2,6.6,3.4,9,5.2c2.5,1.8,2.5,5.7,5.3,7.4c4.3,2.5,6.2-2,10.1-1.7l0,0c-0.2-1.9-1-3.2-1.2-5.2
			C193.6,524.9,194.2,522.5,193.8,520.5z"/>
		
			<path id="mirpur" title="Mirpur" class="land" d="
			M135.4,490.4c0.9-4.7,3.6-8.9,3.8-14.3c-3.4-1.3-5.7-7-9.1-8.2c-1.9-0.7-3.7-0.3-5.6-1.3c-2.2-1.3-3.6-3-5.7-4.5
			c-2.7-2-6-6.2-9.6-7.1c-0.4,0.8-0.8,1.6-0.9,2.4c-1.1,4.2,1.3,3.8,2.3,6.7c0.5,1.6-1,3-1.1,4.5c-0.1,2,1.3,2.5,2,4.2
			c0.9,2,1.1,3.2,2.4,5c1,1.3,2.3,1.9,2.6,3.8c0.2,1.9-1.1,3.4-1.8,5c-1.9,4.3-1.8,6,2.6,7.9c2.1,0.9,3.1,0.8,4.8,2.7
			c1.2,1.3,2.2,3.5,3.4,5c2.1,2.6,3.7,8.1,7.3,6.6c0.5-2.3,0.8-3.9,2-4.7c0.6-1.8,1.2-3.5,1.2-5.4
			C136.1,495.8,134.7,493.5,135.4,490.4z"/>
		
			<path id="Neelum-Valley" title="Neelum-Valley" class="land" d="
			M246.9,296.3c0.5-2,1.6-2.6,3-4.2c1.2-1.4,2.3-2.9,3.1-4.8c1.2-2.9,0-3.8-0.6-6.3c-2.6,1.5-2.7,5.8-5.5,6.7
			c-3,1.1-3.7-1.7-5.3-3.5c-1.4-1.5-1.3-1.4-3.2-1.9c-1.2-0.4-2.6-0.9-3.6-1.1c-3-0.9-5.5,1-8.4-0.4c-4.6-2.4-8.3-7.6-13.5-8.9
			c-2.3-0.5-2.5,0.5-3.3-2c-0.4-1.1-0.2-3.3-0.1-4.4c0.3-2.5,0.9-5.3,0.7-8.4c-5.3,4.8-2.3-6.6-5.2-7.4c0.2-0.6-0.2-1.6-0.2-2.3
			c-1.2-0.5-2.7-0.5-3.8-1.2s-1.4-2.4-2.6-2.6c0.1,0-0.8,0.5-1.7,1c0.1,0.1,0.1,0.2,0.2,0.2c-0.1-0.1-0.1-0.2-0.2-0.2
			c-1.1,0.6-2.3,1.3-2.3,1.3c-1,1.2-1,3.4-1.5,4.9c-1.8-0.2-2.8,1.5-4.6,1.8c-1.1,0.2-2.7-1-3.8-0.9c-1.2,0.2-7.1,5.3-5.8-0.3
			c-1.7-0.2-3.7-1.5-5.3-2c-1.6-0.6-3.8-1.3-5.8-2l0,0l-0.1-0.1c-0.3-0.1-0.6-0.2-0.9-0.3c-1.2-0.2-2.4,0.6-3.3,1.5
			c0.1-0.1-1.1,2.3-1.1,2.4c-0.2,0.7-1.6,0.2-1.1,2.2c2,0.7,3.4,2.3,2.6,4.4c-0.6,1.5-2.3,1-3.3,2.3c-2.5,3.2,1,1.6,1.6,4.2
			c0.3,1.2-1.4,3.6-1.9,4.5c-1.8,2.6-3.6,5.6-6.2,7.6c-2.1,1.7-4.4,4.4-6.9,4.9c-2.8,0.5-6.2-0.8-8.9,0c-1.9,0.5-1.9,1.8-3.6,3.1
			c-1.4,1-2.1,0.8-3.7,1.2c-3.1,0.7-4.2,3.8-5.8,6.7c-0.8,1.6-0.9,2.8-1.9,3.9c-1.2,1.2-3.4,1-3.4,3.4c1.3,0.2,2.4,0.5,3.7,1.1
			c-0.9,3.5-3.6,7-3.4,11l0,0c1.2,1.3,2.4,2.7,3.3,3.8c3,3.6,0.2,3.2-0.9,6.5c-1,2.9,1.3,6,3.6,7.3c1.7,0.9,6.2-0.5,6.7,2.1
			c0.2-0.1,0.4-0.2,0.6-0.3c1.2-0.8,3.5-1.9,4.6-2.8c1.8-1.5,0.9-2,1.7-3.9c1-2.7,3.1-6.3,4.7-8.5c0.9-1.3,2.8-2.6,3-4.5
			c0.3-1.9-0.3-3.4-0.2-4.9c0.3-3,1.8-7.5,4.8-8.8c2.8-1.2,6.8,1.4,9.5,1.6c4,0.2,6.2-2.3,9.3-4c3.7-2,6.4-3.3,9.7-6.3
			c3-2.7,4.5-5.2,8.5-3.1c1.9,0.9,2.6,2,4.8,2.2c1.5,0.2,3.1,0,4.6,0c1.6,0,3.5-0.3,5,0c2.4,0.5,5.6,2.1,7.9,3.2
			c1.2,0.5,2.3,2.4,3.3,3.8v-0.1c0,0.1,0,0.1,0,0.1c0.6,0.9,1.2,1.5,1.6,1.6c2.6,0.9,5.4,1.6,8,2.6c2.7,1,5.5,0.4,8.5,0.7
			c2.4,0.3,5.6,1.3,8.1,1.6c2.5,0.3,4.3,0.2,6.2,0.6v-0.1l0,0C246.3,300.8,246.6,297.5,246.9,296.3z"/>
		
			<path id="Kotli" title="Kotli" class="land" d="
			M124.5,466.5c1.9,1.1,3.7,0.6,5.6,1.3c3.4,1.3,5.7,7,9.1,8.2c0-0.2,0-0.4,0-0.5c0,0.2,0,0.4,0,0.5c0.4,0.2,0.9,0.2,1.2,0.2
			c2.8,0.1,7.7-3.1,11.1-4c0.3-0.6,0.8-1.2,1.6-1.7c3.4-2.2,5.8-2.4,8.5-5.4c2.4-2.7,5.5-3.5,5.9-7.8c0.3-2.9,0.3-7-0.4-9.6
			c-1.6-5.8-1.9-10.4-7.2-14.2c-1.9-1.3-3.8-3-5.8-4.4c-1.1-0.8-2-1.2-2.8-1.6c0,0.1,0,0.1,0,0.1c0-0.1,0-0.1,0-0.1
			c-1-0.5-1.7-1.2-2.1-2.7c-1.9-0.6-4.4,0.9-6.6,1.2c-0.1,0-0.1,0-0.2,0.1c0.1,0,0.1,0,0.2-0.1c-0.5,0.1-1,0-1.5-0.2
			c-2.6-0.9-2.3-2.4-5-1.4c-1.9,0.6-3.1,3.3-5.5,2.7c0.6-2.7-2.4-4.9-4.7-5.1c-2.7-0.3-4.1,1.6-5.9,2.9c-2.6,2-3.7,2-6.2,0.1
			c-2-1.6-3.1-2.4-4.8-2.7c-0.9,2.3-1.1,4.1,1.7,6.8c1.9,1.8,2.5,3.9,2.6,6.5c0,2.3-1.6,4.2-1.6,6.3c0,1.6,1.3,1.4,1.6,2.5
			c0.3,1.3,0.2,0.9-0.2,2.3c-0.5,3.1-2.8,5.5-4.2,8.1c3.5,0.9,6.9,5.1,9.6,7.1C120.9,463.5,122.3,465.2,124.5,466.5z"/>
		
			<path id="poonch" title="Poonch-AJK" class="land" d="
			M148,401.8c-1.2,0.5-3.5,0.2-4.9,0.2c-5.7,0-9-3.1-13.4-6.5c-2-1.6-4.3-3.1-6.2-4.8c-1.7-1.6-3-5.7-5.4-5.6s-4.4,5.2-5,7.3
			c-0.5,2.1-1.3,4.2-2.8,3.4c0,0.7-0.1,1.5-0.2,2.3c-0.8,4.1-2.9,6.6-1.6,10.8c0.1,0.2,0.2,0.5,0.3,0.7c2,0,3.9,0.2,6.1-0.4
			c2.7-0.9,4.4-1.6,7.6-0.7c1.8,0.5,3.3,2.5,5,2.8c2.5,0.5,4.4-1.7,6.9,0.4c1.5,1.2,2.5,3.6,3.6,5.2c0.7-6.3,12,7.2,5,9.2
			c2.2-0.2,4.7-1.8,6.6-1.2c-0.1-0.4-0.2-0.8-0.2-1.3c-0.3-3.4-2.6-5.5-0.6-8.1c1.1-1.5,2.9-2.9,3.9-4c0.9-1,2-3.3,2.8-4
			c-0.2-2.1,0.2-5-0.9-6.8C152,396.7,150.5,400.7,148,401.8z"/>
		
			<path id="Bagh" title="Bagh" class="land" d="
			M176.8,383.5c-0.1-0.1-0.2-0.2-0.2-0.3c-0.2-0.4-0.4-0.8-0.6-1.2c-0.2-0.3-0.6-0.5-0.9-0.8c-0.3-0.3-0.5-0.4-0.9-0.5
			c-0.3-0.1-0.5-0.3-0.8-0.5c-0.3-0.1-0.6-0.2-0.9-0.4c-0.9-0.2-2-0.3-2.8-0.6c-0.6-0.2-1.2-0.5-1.7-0.7c-2.2-0.5-4.3-1.3-6.4-1.6
			c-1.7,0-3.3-0.2-4.9-0.2c-0.2,0-0.3,0-0.5,0.1c-1.6,0.2-3.3,0.3-5.1,0.6c-1.5,0.5-3,1.2-4.5,1.6c-0.7,0.2-1.5,0.4-2.3,0.2
			c-2.4,0.1-4.4,0.3-6.2-1.7c-1.1-1.3-2.6-4.9-2.5-6.7c-3.2-0.2-5.9,0.6-9.2,0.7c-2.9,0.1-6,2.7-8.9,1.6c-2.1-0.9-1.9-2.7-4.1-2.7
			c-1.1,0-0.9,2-3,0.9c-0.9-0.5-3.7-4-4-5.1c-1.6-0.2-3.3-0.1-4.9-0.1c0.2,5.5,1.1,11,3.4,15.8c2.2,4.5,5.3,8.5,5.2,13.6
			c1.5,0.8,2.3-1.3,2.8-3.4c0.5-2,2.6-7.2,5-7.3c2.3-0.1,3.7,4.1,5.4,5.6c1.9,1.7,4.2,3.2,6.2,4.8c4.4,3.5,7.7,6.6,13.4,6.5
			c1.5,0,3.7,0.4,4.9-0.2c2.6-1.1,4.1-5.2,6.4-1c1,1.8,0.6,4.7,0.9,6.8l0.1-0.1c3-2.5,6.5-0.4,9.4-3c1.9-1.7,4.1-2.6,6.3-3.6
			c2.9-1.3,2.3-1.8,4.1-4.2c0.8-1.1,2.8-2.4,3.3-3.5s0.2-2.6,0-3.8c-0.2-1.3-0.5-2.7-0.9-4.1c-0.2-0.5-0.3-1-0.5-1.5
			C176.9,383.8,176.9,383.6,176.8,383.5z"/>
		
			<path id="muzaffarabad" title="Muzaffarabad" class="land" d="
			M151.7,358.2c1.7-1.9,1.2-3.9,0.9-6.9c-0.2-3.8-1.4-3.2-3.8-5.1c-2.6-2-1.2-2.9-2.3-5.7c-1.7-4.7-10-5.7-11.1-0.5
			c-1.4-1.3-5-2.4-5.9-3.6c-2.5-3,0.7-4.1,3-5.4c-0.5-2.5-5-1.2-6.7-2.1c-2.3-1.2-4.6-4.4-3.6-7.3c1.2-3.2,3.8-2.9,0.9-6.5
			c-0.9-1.1-2.1-2.5-3.3-3.8c-2.8,0.8-2.7-2.6-4.5-3.5c-2.6-1.3-4.8,2-6.9,2.5c-2.9,0.8-8.3-2.5-10.6,0.1c-1.2,1.3-0.8,5.5-1,7.2
			c-0.5,3.7-0.6,7.4-1,11.1c-0.3,2.7-2.1,6.3-1.9,8.8c0.2,2.8,4.5,5.7,5.4,8.5s0.5,6,0.9,9.1c0.3,2.7,1.4,5.5,1.4,8.6
			c0,0.8,0,1.6,0,2.4c1.6,0,3.3-0.1,4.9,0.1c0.2,1.1,3.1,4.6,4,5.1c2.2,1.1,2-0.9,3-0.9c2.3-0.1,2.1,1.9,4.1,2.7
			c2.8,1.1,6-1.6,8.9-1.6c3.3-0.1,6-0.9,9.2-0.7c-0.2,1.8,1.4,5.4,2.5,6.7c1.6,2,3.7,1.8,6.2,1.7c-0.2,0-0.2-0.1-0.4-0.1
			c-1.9-2.5-0.3-5.5-0.1-8c0.3-2.7-0.5-5.4,0.9-7.5c0.5-0.7,1.1-1.2,1.7-1.6c0.4-0.2,0.7-0.5,1.1-0.7
			C149,360.3,150.5,359.5,151.7,358.2z"/>
		
			<path id="sidhnoti" title="Sidhnoti" class="land"  d="
			M120.2,425c1.9-1.4,3.2-3.2,5.9-2.9c2.3,0.2,5.3,2.3,4.7,5.1c2.4,0.6,3.7-2,5.5-2.7c2.7-0.9,2.4,0.6,5,1.4
			c0.5,0.2,0.9,0.2,1.5,0.2c6.9-2-4.3-15.5-5-9.2c-1-1.6-2.1-4-3.6-5.2c-2.6-2-4.5,0.1-6.9-0.4c-1.7-0.3-3.3-2.3-5-2.8
			c-3-0.9-4.8-0.1-7.6,0.7c-2.1,0.6-4,0.4-6.1,0.4c0.8,1.6,2,2.7,2.4,4.5c0.4,1.7-0.2,3.4-0.7,4.9c-0.4,1.3-0.9,2.4-1.2,3.4
			c1.6,0.4,2.8,1.2,4.8,2.7C116.4,427,117.5,427,120.2,425z"/>
		
			<path id="Baltistan" title="Baltistan" class="land"  d="
			M460.3,251.4c-0.2-2.3-0.5-4.6-0.8-6.9c-0.7-5.9-3.7-12.1-6.2-17.3c-2.9-6.3-7.1-11-11.9-16.1c-4.7-4.9-9.7-9-14.2-14.1
			c-2.3-2.6-4.4-4.9-6.2-8c-1.2-2.3-2.2-7.9-1.6-11.4c-0.5-2.5-1.7-4.1-3.6-6.3c-2.3-2.7-2.6-3.8-2-7.2s0.2-4.1-0.9-7.2
			c-0.9-2.7,0-5.1-3-6.8c-0.9,0.6-1.6,2-2.6,2.5c-1.7,0.8-1,0.1-2.9-0.3c-2-0.4-4.2-0.6-6.5-0.6c-1.9,0-4.4-0.5-6.2,0
			c-2.6,0.6-4.1,4.1-6.5,4.1c-2.1,0-3.3-2-6.2-1.3c-2.3,0.5-4.3,1.8-6.5,2.1c-7.4,1-3.4-9-4.2-13.3c-0.2-0.6-0.4-2-0.8-2.4
			c-0.9-1-2-0.5-2.7-1.2c-4.1-3.4,1.9-6,0.6-10c-3.9-0.4-3.3,1.7-6,3.2c-1.3,0.7-5.5,1.1-6.9,1c0.1-2.5-1.7-3.8-3.9-4
			c-1.4,2.8-5.8,3.6-8.1,4.7c-1.9,0.9-2,1.4-4.6,1.4c-1.6,0-3.6,0.3-4.8-1.1c-0.9-1-0.1-2.8-0.9-3.8c-0.5-0.5-2.5-0.9-2.6-1.2
			c-1-1.6-1.1-4.1-2.1-5.5c-1.1-1.6-4-1.3-5.7-1.3c-2.7,0-3.5-0.7-5.8-1.5c-2.2-0.8-4.7-0.2-6.9-0.5c-6.3-0.8-12.9-7.8-15.7-13.3
			c-2.2,2-3.9,0.8-6.1,1.9c-1.8,0.9-1.7,2.8-4.4,2.3c-3.6-2-7.7,9.2-9,12.5c-0.5,1.3-0.4,3.1-0.9,4.3c-0.9,2.2-0.4,1.6-2.7,2
			c-1.3,0.2-2.9-0.3-4.2,0c-1.3,0.3-2.4,1.6-3.8,1.6c-1-2-1.8-3.9-2.9-6c-0.9,1-1.1,0.3-2.2,0.8c-0.9,0.4-1.3,0.9-2.3,1.4
			c-1.3,0.5-12.3,1.6-12.2,2.7c0.2,4.7,3.6,5.8,6.2,9.2c2,2.7-0.1,1.4,0.3,4.4c0.2,2,2.6,2.7,3.9,4c-1.2,3.5-3.4,7.9-7.7,7.3
			c-0.1,2.5,0.2,5.2-3,4.4c-0.1,0.9-0.5,1.6-0.5,2.6c-1.5,0.1-1.6,0.9-2.3,1.7c-0.2,0.2-0.4,1.4-0.7,1.8c-0.5,0.6-0.7,0.3-1.2,0.8
			c-1.6,1.6-4.8,1.8-5.8,3.3c0.5,0.8,1.2,1.3,2.3,1.3c-1.1,0-1.8-0.5-2.3-1.3c-0.1,0.1-0.1,0.2-0.2,0.2c2.3,4.7,13.1,0.4,12,6.6
			c0.3,0.2,0.6,0.2,0.9,0.2c2.1,6.8-9,4.9-7.1,9.4c1.2,3,10,10.6,12.9,10.7c-0.2,5.2,6,6.6,9.5,8.6c2.3,1.3,3.2,2.3,4.4,4.6
			c1.2,2.3,2.5,6.4,5.7,6.4c1.5,3.3,3.9,5.1,4.1,8.9c0.1,3.2-2.6,6,0,8.5c2.1,2,6.2,2.5,6.2,6.7c0,3.4-3.9,4.5-5.5,6.1
			c1.6,1.7,1.2,8.5,1.6,10.8c0.6,3.4-0.5,2.5-1.6,5.6c-0.5,1.6,0.2,4.2,0.8,5.5c-3.7,0.8-6.9,1.4-10.4,2.6c-4.2,1.4-3.7,4.2-3.9,8.7
			c-2.1,0.4-4.4-0.9-6.5-0.3c-0.2,0.1-0.5,0.2-0.7,0.3c0.5,2.6,1.8,3.5,0.6,6.3c-0.8,1.9-1.9,3.4-3.1,4.8c-1.4,1.6-2.5,2.3-3,4.2
			c-0.3,1.2-0.5,4.5,0,5.8c0.6,0.2,1.3,0.5,2,0.9c3.6,2.2,6.7,1.6,10.1,0.9c0.6-0.3,1.2-0.7,1.9-0.8c1-0.1,2.1-0.2,3-0.2
			c0.9-0.1,1.7-0.1,2.6-0.1c2.2-0.2,4.4-0.2,6.5-0.3c0.5,0,1.1,0,1.6,0c0.3-0.1,0.6-0.2,0.9-0.2c0.7,0.2,1.7,1.4,1.8,2.1
			c0,0.3,0,1-0.2,1.6c0,0.4-0.1,0.8-0.2,1.3c0.5,0.2,1.3,0.2,1.9,0.6s1.1,0.9,1.6,1.5c0.2,0.2,0.3,0.5,0.5,0.7
			c1.9,2.5,3.5,6.2,6,6.9c0.3,0.1,0.6,0.2,1,0.2c0.2,0,0.5,0,0.7,0c0.7-0.1,1.6-0.2,2.3-0.5c0.3-0.1,0.6-0.2,0.9-0.2
			c0.2,0,0.3-0.1,0.4-0.1c0.2-0.1,0.4-0.1,0.5-0.2c-0.2,0.1-0.4,0.1-0.5,0.2c1.6-0.5,3.3-0.9,4.7-0.9c3.4,0,6.5,0,9.6,0.8
			s6.5,2.1,9.6,2.5c3.2,0.4,6.8-0.7,9.8,0.2s1.7,1.9,4.6-0.5c1.4-1.1,2.7-2.2,4.1-3.3c2.6-2.3,5.8-3.3,8.6-5.3
			c2.6-1.8,6.1-4.5,8.5-6.7c2.6-2.5,3.5-6.5,7.9-3.8c3,1.8,4,7.2,8.4,4.9c2.3-1.3,4.9-2.5,6.8-4.3c0.4-0.4,0.8-0.7,1.2-1
			c0.2-0.2,0.3-0.3,0.5-0.6c0.3-0.5,1-0.9,1.6-1.3c0.5-0.3,0.9-0.5,1.3-1c0.1-0.2,1.2-1.6,1.1-1.6c2.3,0.2,4.1-1.1,6.2-1.8
			c1.9-0.6,3.9-0.5,5.8-1.2c0.7-2.2,4.5-6.1,6.5-5.4c1.6,0.6,2.7,4.2,4,4.7c1.2,0.5,3.4-0.3,4.7-0.5c2.9-0.4,6.5,0,9.2-0.8
			c3.7-1,5.4-5,7.3-7.6c1-1.3,2.6-2.3,3-4c0.4-1.5-0.9-2.8-0.8-4c0.3-2.7,4-5.2,6.2-6.6c2.9-1.7,5.7-2.7,9.3-2.3
			c1.7,0.2,3.3,0.2,4.8,0.9c1.9,1,2.5,2.6,4.5,1.6c0.9-0.5,2.3-3.2,3.4-4.1c0.3-0.2,0.7-0.5,1-0.8l0,0c0.9-0.7,1.9-1.3,2.9-2
			C459.5,257.4,460.5,254.4,460.3,251.4z"/>
	
		<path id="gilgit" title="gilgit" class="land" d="
		M77.3,158.1c4.4-1.9,0.2-9.2,5.7-11.9c5.7-2.7,9.3,4.8,13.2,7.8c2,1.6,4.1,1.3,6.5,2.2c2.2,0.9,3.5,1.5,6.1,1.8
		c3.9,0.5,7.4,1.1,11.4-0.7c3.1-1.4,6.5-4.6,9.8-2.9c1.9,1,3.4,4.1,5.4,4.9c3,1.2,2.1-1,3.9-1.9c4-2,8.8,0.1,11.7,2.7
		c3.3,2.9,6.6,2.9,9.9,6c3.3,3.1,6.4,5.8,8.6,9.6c0.3,0.5,0.6,1.1,1,1.6l0,0l0,0c1.9,2.8,4.8,5.3,7.2,7.9c1.8,1.9,2.9,4.2,4.8,5.8
		c3.1,2.7,1.3-0.1,4.6,0c1.9,0.1,2.2,2.7,4.4,3.3c1.4,0.3,3.4-0.4,4.7-0.8c1.8-0.5,3.3-1.5,5.3-1.3c2.3,0.3,2.6,1.3,5.2,0.7
		c3.5-0.8,5.7-2.7,8.1-5c0.2-0.2,0.3-0.4,0.5-0.5c-0.4-0.1-0.9-0.1-1.5,0.1c0.5-0.2,1.1-0.2,1.5-0.1c2-2.4,1.9-5.6,1.1-9.1
		c-0.8-3.3-0.9-6.3-1.1-10.1c-0.2-4.2,1.8-7.1,5.5-9.6c3.7-2.4,7.7-3.2,7.9,1.9c0.1,2.1-0.9,7.1,0.5,9.6c1-1.5,4.2-1.7,5.8-3.3
		c0.5-0.5,0.7-0.2,1.2-0.8c0.3-0.4,0.5-1.6,0.7-1.8c0.7-0.8,0.8-1.6,2.3-1.7c-0.1-1,0.5-1.6,0.5-2.6c3.2,0.8,3-2,3-4.4
		c4.3,0.6,6.5-3.8,7.7-7.3c-1.3-1.3-3.7-2-3.9-4c-0.3-3,1.8-1.7-0.3-4.4c-2.6-3.4-5.9-4.5-6.2-9.2c-0.1-1,10.9-2.1,12.2-2.7
		c0.9-0.5,1.4-1,2.3-1.4c1.2-0.5,1.3,0.3,2.2-0.8c1.1,2,1.9,3.9,2.9,6c1.3,0,2.4-1.2,3.8-1.6c1.3-0.3,2.9,0.2,4.2,0
		c2.3-0.5,1.7,0.2,2.7-2c0.5-1.2,0.4-3,0.9-4.3c1.2-3.4,5.5-14.5,9-12.5c2.7,0.6,2.6-1.4,4.4-2.3c2.3-1.1,3.9,0.2,6.1-1.9
		c2.8,5.5,9.4,12.6,15.7,13.3c2.3,0.2,4.8-0.3,6.9,0.5c2.3,0.8,3,1.6,5.8,1.5c1.7,0,4.6-0.2,5.7,1.3c1,1.4,1,3.8,2.1,5.5
		c0.2,0.2,2.1,0.5,2.6,1.2c0.9,1,0.1,2.8,0.9,3.8c1.2,1.4,3.2,1.1,4.8,1.1c2.6,0,2.7-0.5,4.6-1.4c2.3-1.2,6.7-1.9,8.1-4.7
		c-0.2,0-0.5,0-0.7,0c0-1.3,0.5-2.5,0.6-3.7c0.1-1.9-0.6-2.7-0.7-4.2c-0.3-3.8,1.6-4.1,3.9-6.4c0.9-0.9,2.5-1.9,3-3
		c0.9-2-0.2-2.5-0.3-4.2c-0.2-3.9,0.8-4.3,4.2-4.5c0.5-2.3-2-5-3-6.7c-0.9-1.6-3.6-4.2-4.3-6.3c-0.9-2.9,0.8-3.9,2.3-5.2
		c1.1-0.9,2-1.6,2.9-2.6c0,0.1,0.1,0.1,0.1,0.2c-0.9-1.4-0.5-3.7-0.6-5.3c-0.7-5.4-7.1-5.6-8.5-10c-0.9-3.1,1.1-5.2-0.8-8.5
		c-1.4-2.4-3.5-3.8-5.5-5.1c-3-2-3.2-4.5-6.1-6.1c-1.3-0.8-1.9-0.8-3-2c-0.7-0.8-0.7-2.3-1.9-2.8c-1.3-0.6-3.6,0.4-5,0
		c-1.5-0.4-1.7-0.9-3-1.7c-3.7-2.6-4.1-1.3-7.8-0.2c-1.6,0.4-3.5-0.7-4.7,0.5c-1.6,1.6,0.2,3,0,4.9c-1.4,0.3-2.7,0.2-3.9,0.8
		c-1.7,0.8-0.8,2.6-2.7,1c-1.2-1-1.7-5.3-2.1-6.8c-0.7-2.7-0.8-5.6-1.6-8.1c-1.2-3.6-2-7.1-3.3-10.6c-0.5-1.4-0.3-2.9-0.9-4.3
		c-0.9-2.5-4.4-4.2-7.6-3.6c-1.1,5.7-4.9,2.9-8.4,2.3c-1.4-0.2-3.4,0-4.8-0.8c-1.5-0.9-1.6-2.4-3.1-3.2c-1.1,2.6-4.7,1.6-6.9,1.6
		c-3,0-4,0.2-6.2,1.6c-2.3,1.6-3.3,2.1-6.2,2.4c-1.1,0.2-2.4-0.3-3.5,0c-1.3,0.3-1.2,1.9-3,1.6c-4.1-0.9-3.8-7.7-5.1-10.3
		c-1.6-3.4-1.8-0.9-3.6,1c-1.8,2-3.5,2.2-6,1.3c-0.2-4.5-0.8-7.5-6.2-6.3c-2,0.4-3.5,1.4-5,3.2c-1.2,1.3-2,4.6-3.7,4.5
		c-0.1,2.5,0,5.3-3.3,4.3c-2.6-0.8-1.5-3.1-3.2-4.5c-1-0.8-5.8-0.6-7-0.3c-2.8,0.7-4.8,2.7-7.2,4.2c-3.8,2.5-8.3,7.8-13.6,7
		c-2.8-0.4-3.7-2.2-6.2-0.6c-2.9,1.9-2.2,4.6-2.3,7.7c-3.3,0.3-5.5,3.1-8.3,2.9c-0.9-0.1-2.1-0.9-3.2-1.1c-1.2-0.2-3,0.5-4.1-0.1
		c-2.4-1.1-2.7-3.4-5.8-3.9c-1.3-0.2-3,0.4-4.2-0.1s-1.6-1.8-2.6-2.4c-2.6-1.6-4.3,0-7.1-1c-1.3-0.5-2.2-1.8-3.3-2.2
		c-1-0.4-2.6-0.4-3.7-0.6c-3.2-0.6-5.7-0.7-4.3,3.6c0.4,1.3,1.5,3.6,2.6,4.5c1.2,0.9,3.6,0.9,3.7,2.8c2-0.1,5.4,0.9,5,3.6
		c2.1-0.2,5.1,1.3,6.7,2.7c2.1,2,1.9,3.6,1.6,6.5c-1.8,0.2-2.6,1-4.6,0.9c-1.2,0-2.5-1.4-3.9-0.9c-1.7,0.6-1.4,2.4-3.1,2.5
		c-1.2,0.1-1.9-1.3-3.1-1.6c-3.1-0.6-1.5,1.1-3.7,2.1c-1.1,0.5-3-0.2-4.3-0.2c-2.3-0.2-6.9,0.8-7.4-2.3c-3.7,0.2-7.2-1.8-11.1-2.1
		c-4.1-0.2-7.1-0.9-11.1,0.2c-1.4,0.4-4.3,0.2-5.8,0.8c-2.4,1-2.3,2-5.1,1.9c-3.8-0.2-6.2-2.3-10.2-2c-1,5.1-3.3,1-5.5,4.9
		c0.1-0.2,0.5,2.3,0.5,2.5c0,0.8-0.9,1.3-0.9,2.2c0.1,1,1.5,1.4,1.6,2.4c0.2,1.2-0.6,1.5-0.8,2.4c-0.2,0.9,0.2,1.6-0.5,2.5
		c-0.6,0.9-1.6,0.5-2.2,1.6c-0.8,1.5,0.2,3.8-1.2,4.8c-0.9,0.7-3.5-0.5-4.6-0.1c-1.1,0.5-2.6,2-2.7,3.6c-0.1,2.3,2.1,2.7,2.3,4.7
		c-3.2,0.6-8.6-1.2-11.4,0.3c-4.8,2.6,1.2,8.1-3.2,11.1c-1.6,1.1-3.7,0.3-5.3,2c-0.6,0.6-0.4,2.1-1.2,2.8c-0.5,0.4-1.8,0.5-2.3,0.7
		c-3.2,1.8-8.4,4.6-8.2,9.1c-2.8,0.7-5.4-3.8-8.4-1.7c-0.5,0.4-2.8,4.8-3.4,5.6c-1.2,1.7-1.9,3.1-1.5,5.4c5.8,0.2-0.8,5-1.6,6
		c-1.4,1.7-2,5.5-2.3,7.7c2.3,0.4,4.4-0.3,5.9,2.3c0.9,1.7,0.9,4.2-1.7,4.2c0.1,1.5-0.9,2.6-2.3,2.4c0.4,3.1-3,4.1-2.3,7
		c2,1.1,3.2,2.6,5.1,4c1.5,1,3.1,0.9,4.6,2c1.6,1.1,2.9,3.2,4.6,4.3c3,2,1.3,0.9,4.4-0.8c1.9-1,3-0.5,4.8-0.3
		c1.2,0.2,0.7,1.6,2.4,0.7c1.1-0.5,0-1.7,0.5-2.1c2.2-1.6,6.4-1.7,9.1-1.5c-0.1,2.4,1.9,2.7,2.1,4.6c3.1,1,5.8-2.3,9.2-1.5
		c0.5,0.2,2.2,1.7,2.3,1.6c1.6-0.2,2.6-3.3,4.6-3.9c3-0.9,3.8,2.9,4,2.9c0.8,0,2,0.4,2.9,0.2c0.9,2.7-2.2,3.4-2.2,5.6
		c0,0.2,0,0.2,0,0.4C70.5,157.9,74.6,159.2,77.3,158.1z"/>
	
		<path id="astore" title="Astore-Valley" class="land" d="
		M229.5,161.4c-0.2-5.1-4.2-4.3-7.9-1.9s-5.6,5.4-5.5,9.6c0.2,3.8,0.3,6.8,1.1,10.1c0.8,3.5,0.9,6.7-1.1,9.1c3,0.6,1.9,6.3,2.7,8.9
		c1.4,4.4,4.1,6.7,4.6,11.7c0.2,1.9-0.4,4.1,0,6c0.5,2.3,2.6,3.6,3.1,5.7c1.6,5.9-4.7,8.3-8.2,11c-2.8,2.1-5.4,2-8.4,3.4
		c-2.3,1-3.8,4-6.2,4.9c-1.2,0.5-3,0.5-4.1,0.8c-1.2,0.4-1.9,0.9-3.4,0.9c-0.3,1.2,0,2.4,0.5,3.3c0.9-0.5,1.7-1,1.7-1
		c1.2,0.2,1.6,1.8,2.6,2.6c1.1,0.7,2.6,0.7,3.8,1.2c-0.2,0.6,0.2,1.6,0.2,2.3c2.9,0.8,0,12.1,5.2,7.4c0.2,3.1-0.4,5.9-0.7,8.4
		c-0.2,1.2-0.3,3.4,0.1,4.4c0.9,2.6,1.1,1.4,3.3,2c5.1,1.3,8.9,6.5,13.5,8.9c2.8,1.5,5.4-0.4,8.4,0.4c0.9,0.2,2.3,0.8,3.6,1.1
		c1.8,0.5,1.8,0.4,3.2,1.9c1.6,1.8,2.3,4.5,5.3,3.5c3-1.1,2.9-6,6.2-7c2-0.6,4.4,0.7,6.5,0.3c0.2-4.5-0.3-7.2,3.9-8.7
		c3.3-1.2,6.6-1.8,10.4-2.6c-0.5-1.3-1.2-3.8-0.8-5.5c1-3.1,2.2-2.3,1.6-5.6c-0.4-2.3,0.1-9.1-1.6-10.8c1.6-1.6,5.5-2.7,5.5-6.1
		c0.1-4.2-4.1-4.6-6.2-6.7c-2.6-2.5,0.2-5.3,0-8.5c-0.2-3.8-2.5-5.6-4.1-8.9c-3.2,0-4.4-4.1-5.7-6.4c-1.2-2.3-2.1-3.4-4.4-4.6
		c-3.5-2-9.7-3.3-9.5-8.6c-2.8-0.1-11.6-7.7-12.9-10.7c-1.9-4.5,9.1-2.6,7.1-9.4c-0.3,0-0.6-0.1-0.9-0.2c1-6.2-9.7-1.9-12-6.6
		c0-0.1,0.1-0.2,0.2-0.2C228.6,168.5,229.6,163.4,229.5,161.4z"/>
	
		<path id="darel" title="Darel" class="land" d="
		M153.4,191.4c2.5-3.2,5.5-10.7,10.4-10c1.2,0.2,2.3,1.6,3.4,1.6c2.2-0.1,1.3-1,2.1-2.4c0.9-1.7,1.6-0.7,1.8-2.6
		c-0.4-0.5-0.7-1.1-1-1.6c-2.1-3.9-5.3-6.6-8.6-9.6c-3.3-3.1-6.5-3.1-9.9-6c-2.9-2.6-7.7-4.6-11.7-2.7c-1.8,0.9-0.9,3-3.9,1.9
		c-2-0.8-3.4-3.8-5.4-4.9c-3.3-1.7-6.7,1.5-9.8,2.9c-4,1.8-7.4,1.2-11.4,0.7c-2.6-0.3-3.9-0.9-6.1-1.8c-2.3-0.9-4.4-0.6-6.5-2.2
		c-3.9-3-7.5-10.4-13.2-7.8c-5.5,2.6-1.2,9.9-5.7,11.9c-2.6,1.1-6.8-0.2-9.8,0.5c0.2,2,1.7,2.7,1.2,5.2c-0.5,2.4-2,3.8,0.5,5.9
		c1.6,1.3,3.7,1.3,5.5,2.7c1.8,1.5,3.8,3.7,5.4,5.6c2.1,2.4,2.1,2.6,4.8,3.5c3.1,1,6.2,3,8.6,5.2c1.7,1.6,0.6,1.9,3,2.3
		c2.1,0.3,5-0.6,7.3-0.2c1.9,0.3,2.6,1.7,4.4,2.2c1.5,0.5,2.6-0.5,4.1-0.6c1.3-0.2,3-0.1,4.2,0c0.7,0.1,1.7-0.2,2.4-0.1
		c0.8,0.2,1.2,1.6,1.8,1.6c3.1,0.4,6-2.5,8.4,1.6c0.9-0.7,1.8-1,3-0.9c0.2,0.3,0.2,0.6,0.2,1c0.3,0.2,0.6,0.2,0.9,0.2
		c-0.2,2.7,1.2,5.3,0.8,7.5c4.5-2.7,2.6-1.9,7.8-2.8C147,198.7,150.9,194.6,153.4,191.4z"/>
	
		<path id="chilas" title="Chilas" class="land" d="
		M178.7,251.4c-1.2,5.7,4.7,0.5,5.8,0.3s2.7,1,3.8,0.9c1.8-0.2,2.7-1.9,4.6-1.8c0.5-1.5,0.5-3.7,1.5-4.9c0,0,1.2-0.6,2.3-1.3
		c-0.5-0.9-0.9-2.1-0.5-3.3c1.5,0.1,2.2-0.5,3.4-0.9c1.1-0.3,2.9-0.3,4.1-0.8c2.4-0.9,3.9-3.8,6.2-4.9c3-1.4,5.6-1.3,8.4-3.4
		c3.6-2.7,9.7-5.1,8.2-11c-0.5-2.1-2.6-3.4-3.1-5.7c-0.4-1.9,0.2-4,0-6c-0.5-4.9-3.2-7.3-4.6-11.7c-0.9-2.6,0.3-8.3-2.7-8.9
		c-0.2,0.2-0.3,0.4-0.5,0.5c-2.4,2.3-4.6,4.2-8.1,5c-2.6,0.5-3-0.4-5.2-0.7c-1.9-0.2-3.5,0.6-5.3,1.3c-1.2,0.4-3.3,1.1-4.7,0.8
		c-2.3-0.5-2.5-3.3-4.4-3.3c-3.3-0.1-1.6,2.7-4.6,0c-1.9-1.7-3-4-4.8-5.8c-2.5-2.6-5.3-5.1-7.2-7.9c-0.2,1.9-0.9,0.9-1.8,2.6
		c-0.8,1.4,0.1,2.3-2.1,2.4c-1.1,0-2.2-1.5-3.4-1.6c-4.9-0.6-7.9,6.8-10.4,10c-2.4,3.1-6.5,7.3-10.7,8.1c-5.1,0.9-3.3,0.1-7.8,2.8
		c-0.2,1.3-1,2.3-3,3.2c-2.2,0.9-2.7,0.7-4.2,2.3c-3,3.4-3.5,9.9-1.7,14.2c0.9,2.3,1.5,2.3,1.3,4.7c-0.1,1.7-0.8,3.6-1.6,5.1
		c3.3,2,4.1-0.5,7.1-2.2c3.1-1.6,4.1-0.3,6.5,1.9c2.7,2.4,3,1.6,6.3,1.7c3.6,0.2,3.3,1.2,3.5,4.5c2.3,0.9,3-1.7,4.9-1.5
		c2.7,0.3,2.4,3.2,3.7,4.4c2,2,7.5,4.1,10.4,4.1c0.2,0.9,0.1,1.6-0.6,2.4c1.9,0.6,4.1,1.3,5.8,2C175,249.9,177,251.1,178.7,251.4z"
		/>	
		<path id="poonchjk" title="Poonch" class="land" d="
		M174.9,444.9c2.7,0,3.9,0.7,5.8,2.3c1.4,1.1,3.1,2.3,4.9,2.5c3.3,0.3,5.7-3.3,7.7-5.4c0.8-0.8,1.6-1.6,3-0.9c0.8,0.4,0.9,1.7,2,1.6
		c0.8-0.1,1.5-2.3,2.3-2.5c1.3-0.3,2.1,1,2.3,2c0.1,0.3,0.1,1.3,0,1.6c-0.2,0.5-0.9,1.6-0.9,2c0.3,1.1,2.3,1.3,3.2,1.2
		c1.6-0.1,1.9-0.8,3-1.8c1.2-1.1,2.3-2.1,3.8-2.4c-0.9-0.9-1.4-2.2-1.9-3.3c-0.1,0-1.1-0.1-1.1-0.1c-1.6-1.3-4-2.6-5-4.9
		c-0.6-1.5-0.5-3.1,0-4.5c0.2-0.8,0.5-1.5,0.7-2.2c0.5-1.5,0.7-3.4,0.9-4.9c0.1-0.7,0.2-1.3,0.2-2c0-1.5-0.5-2.8-1.4-3.9
		c-0.9-1.2-2.3-2.3-3.3-3.3c-0.3-0.2-2.7-2.3-2.8-2.3c-1.2-2.4,0.4-4.8-1.8-7.8c-0.8-1-1.9-1.7-2.7-2.8c-1.3-2-0.8-1.2-0.5-3.1
		c0.2-1.1,0.4-2.1,0.5-3.2c0.3-2,0.2-4.2-1.1-6c-1.9-2.6-4.4-2-7.6-2.2c-0.4-1.8-0.3-3.8-0.9-5.5c-2.5-0.2-5,0.2-7.4-0.1
		c-0.2,0-0.4-0.1-0.5-0.1c0.1,0.2,0.2,0.3,0.3,0.5c0.9,1.7,2.3,7.8,1.6,9.6c-0.4,1.1-2.5,2.4-3.3,3.5c-1.7,2.4-1.2,2.9-4.1,4.2
		c-2.3,1-4.4,1.9-6.3,3.6c-2.9,2.7-6.5,0.5-9.4,3c-0.8,0.6-1.9,3-2.9,4c-1,1.1-2.7,2.6-3.9,4c-2,2.7,0.3,4.6,0.6,8.1
		c0,0.5,0.1,0.9,0.2,1.3c0.9,0.3,1.6,1.1,2.1,2.7c0.8,0.4,1.7,0.9,2.8,1.6c1.9,1.4,3.9,3.1,5.8,4.4c5.3,3.8,5.7,8.4,7.2,14.2
		c0,0.1,0,0.1,0,0.2c1-0.2,2.9-2,3.8-2.4C172.4,445,173.4,444.9,174.9,444.9z"/>
	
		<path id="rajauri" title="Rajauri" class="land" d="
		M215,505.6c0.6-0.6,0.7-1.7,0.8-2.8c0.1-2.1,0-4.3,0-6.4c0-0.9-0.2-2.3,0-3.2c0.2-0.8,1.2-1.9,1.4-2.5c0.2-0.8,0.2-1.8,0.3-2.7
		c0.2-0.6,0.6-0.2,0.5-1.3c-0.1-0.3-0.3-0.8-0.4-1.2c-1.6,0.2-3.3-0.9-4.9-1.3c-0.6-2.1,2.5-5.6,4.5-4.9c1.6,0.5,2.3,1.9,4.2,1.3
		c0.6-0.2,1.5-0.6,2-1c1-0.8,0.7,0.1,0.8-1.3c0.1-0.5-0.3-1.4-0.2-2c0.3-0.9,0.9-0.3,0.7-1.6c-0.1-0.9-1-2-1.6-2.7
		c-1.3-1.9-2.3-3.1-1.6-5.6c-0.2,0.5,0.8-1.2,0.6-0.9c-0.2-0.3-0.1-0.5,0.2-0.7c0.2-0.5,0.9-0.9,1.2-1.4c0.5-0.7,0.7-0.6,1.2-1.5
		s0.5-0.8,0.6-1.9c0.2-1.4-0.3-2.1-0.8-3.3c-0.4-0.9-0.4-2.2-0.9-3.1c-0.9-2-2.8-3.8-3.8-5.6c-0.8-1.3-2.3-3.1-3.7-3.5
		c-0.2,0.1-0.5,0.2-0.8,0.4c-1.7,0.9-0.6,2.7-3,0.6c-0.1-0.1-0.1-0.1-0.2-0.2c-1.5,0.3-2.6,1.3-3.8,2.4c-1.2,1-1.3,1.7-3,1.8
		c-0.9,0.1-2.9-0.2-3.2-1.2c-0.2-0.5,0.7-1.5,0.9-2c0.1-0.3,0.1-1.3,0-1.6c-0.2-1-1-2.3-2.3-2c-0.8,0.2-1.5,2.4-2.3,2.5
		c-1.1,0.2-1.2-1.2-2-1.6c-1.3-0.7-2.2,0.2-3,0.9c-2,2.1-4.4,5.7-7.7,5.4c-1.8-0.2-3.5-1.4-4.9-2.5c-2-1.6-3.1-2.3-5.8-2.3
		c-1.6,0-2.5,0-3.8,0.6c-1,0.5-2.8,2.1-3.8,2.4c0.7,2.7,0.7,6.6,0.4,9.5c-0.5,4.2-3.5,5.1-5.9,7.8c-2.7,3-5.1,3.2-8.5,5.4
		c-0.9,0.5-1.4,1.2-1.6,1.7c0.2-0.1,0.3-0.1,0.3-0.1s-0.1,0-0.3,0.1c-0.8,1.6,0.3,3.6,1.9,5.5c3.6,4.2,8.4,4.9,10.9,10.3
		c1.8,3.8,1.2,6.6,5.3,8c4.1,1.5,7.7,3.3,11.5,5.9c2.9,2,2.2,3.5,3,6.6c0.3,1,1.2,1.6,1.6,2.8c0.3,1.4,0,3.3,0.1,4.7
		c0.4-0.2,0.8-0.5,1.1-0.7c0.5-0.3,1.9-0.4,2.3-0.7c1.3-1.3,1.8-3.5,3-4.9c2.6,1.2,5.4,2.7,8.1,3.3c2.3,0.4,2.6-0.6,4.1-1.8
		c0.4-0.3,1.2-1.3,1.6-1.5c0.9-0.2,2.1,0.3,3,0.1c0.6-0.2,1.2-1.3,1.7-1.5c0.7-0.2,1.5,0,2.2-0.2c0.2-0.1,0.4-0.1,0.5-0.2
		C213.2,506.7,214.3,506.3,215,505.6z"/>
	
		<path id="udhampur" title="Udhampur" class="land" d="
		M323.4,515.3c-0.5-0.1-1,0.2-1.5,0.1c-0.6-0.2-0.5-0.8-1.1-0.9c-1.4-0.3-3.3,0-4.7,0.1c-2.2,0-3.7-0.5-5.4-1.4
		c-3.6-1.8-5.9-5.2-8.6-8.5c-2.6-3.1-5.8-6.6-9-8.8c-2.6-1.8-7.4-0.9-10.5-0.9c-0.6,0-1.6,0.2-2.3,0.1c-0.5-0.1-0.5-0.7-1-0.9
		c-0.4-0.2-0.9,0.2-1.2,0.1c-0.5-0.2-0.7-0.7-1.2-0.9c-0.5-0.2-1,0.2-1.5,0.1s-0.5-0.7-1-0.9c-0.4-0.2-0.9,0.2-1.2,0.1
		c-0.5-0.2-0.6-0.8-1.2-0.9c-0.5-0.1-1,0.2-1.5,0.1c-0.3-0.1-0.9-0.6-1.1-0.6c-0.2-0.1-1.6-0.1-1.6-0.2c-0.5-0.5-0.1-0.8-0.3-1.3
		c0.1,0.2-0.7-1.3-0.6-0.9c-0.3-1-0.1-1.9-1-2.7c2.3-2.9,4.3-6.9,2.6-10.4c-0.5-0.9-1-2-1.6-2.8c-0.7-1.3-1.2-2.1-2.2-3.1
		c-0.9-0.9-1.3-1.4-2.6-1.7c-0.4-0.1-0.9,0.2-1.2,0.1c-0.5-0.2-0.9-0.9-1.5-1c0.2-1.2-0.6-1.3-0.9-2.3c-0.2-0.9,0.2-1.8,0.3-2.6
		c0.4-1.6,1.3-3.1,1.6-4.8c0.2-1.5,0.5-4.1-0.1-5.4c-0.4-1-1.8-1.6-2.2-2.7c-0.2-0.5,0-1.7,0-2.4c-0.9-0.1-1.8-0.1-2.7-0.1
		c-1.6,0-3.4-0.2-5,0s-2.5,1.3-3.8,1.6c-1.3,0.3-3.9,0.6-5,0.8c-1.5,0.2-3.3,0.4-4.6,0.5c-1.3,0.2-3.3,0.6-4.5-0.3
		c-0.9-0.7-0.6-2.2-1.4-2.9c-0.5-0.5-1.2-0.2-1.7-0.5c-0.5-0.4-3.3-2.7-3.5-2.9c-1.9-0.6-3.3,0.9-5.3,1.1c-1.6,0.2-2.9-0.2-4.1,0.2
		c1.4,0.4,3,2.3,3.7,3.5c1.1,1.9,3,3.7,3.8,5.6c0.4,0.9,0.5,2.2,0.9,3.1c0.5,1.2,0.9,1.9,0.8,3.3c-0.2,1.1-0.2,1-0.6,1.9
		c-0.4,0.9-0.6,0.8-1.2,1.5c-0.3,0.5-0.9,0.9-1.2,1.4c-0.2,0.2-0.3,0.4-0.2,0.7c0.2-0.3-0.7,1.4-0.6,0.9c-0.6,2.5,0.3,3.7,1.6,5.6
		c0.5,0.7,1.5,1.8,1.6,2.7c0.1,1.3-0.5,0.6-0.7,1.6c-0.2,0.6,0.2,1.4,0.2,2c-0.1,1.4,0.2,0.5-0.8,1.3c-0.5,0.5-1.3,0.9-2,1
		c-1.9,0.5-2.6-0.8-4.2-1.3c-2-0.7-5.1,2.8-4.5,4.9c1.6,0.4,3.3,1.5,4.9,1.3c0.1,0.4,0.3,0.8,0.4,1.2c0.2,1-0.4,0.7-0.5,1.3
		c-0.2,0.8-0.2,1.8-0.3,2.7c-0.2,0.6-1.2,1.6-1.4,2.5s0,2.3,0,3.2c0,2.1,0.1,4.3,0,6.4c-0.1,1.1-0.1,2.2-0.8,2.8
		c-0.6,0.6-1.8,1-1.4,2.3c1.7-0.6,3.1-2,5.1-0.9c1.3,0.7,1.7,1.6,3.2,1.9c1.9,0.3,4.8,0.3,6.5-0.2c1.3-0.3,3.8-1.3,5.4-0.6
		c1,0.5,2.5,2.3,3.6,3.1c1.2,1,2.4,2.1,3.7,3c1.7,1.1,3.3,2,4.5,3.6c1,1.4,3.3,5.8,5.5,5.2c0.8-0.2,1.9-1.6,2.7-2.1
		c0.7-0.4,1-0.6,1.9-0.8c1.6-0.2,2.7,1,4.2,1.5c1.9,0.6,3.8,0.9,5.5,2c1.9,1.1,2.3,1.9,3,4.1c0.4,1.2,0.7,1.6,0.7,3
		c0,1.5,0,2.9,0,4.4c0,1.6,0,2.6-0.8,4c-0.5,0.9-0.9,1.8-0.8,3.2c0.4,2.9,3.1,2.4,5.5,2.8c0.8,0.2,1.8,0.5,2.6,0.7
		c0.9,0.2,2.3,0.4,3.1,0.9c1.6,1,2.7,2.4,4.7,2.7c1.3,0.2,2.6,0.8,3.8,1.2c1.5-1.1,3-0.4,4.4-2.1c1.2-1.6,2.4-2.8,4.2-3.8
		c1.8-1,2.9-2,5.1-1.2c2.2,0.9,2.3,1,2.8-1.6c0.4-2.3,1.2-3.1,2.7-4.6c0.7-0.7,1.1-1.4,1.9-2c0.4-0.3,1.6-1.3,1.9-1.5
		c1.3-0.3,2.6,0.5,3.7,1.3c1.9,0.9,3.8-1.2,5.1-2.1c1.7-1.2,2.9-2.8,3.4-5.1s0.6-4.6,1.2-7c0.2-0.9,0.7-3.5,1.2-5
		C324.5,515.7,324,515.4,323.4,515.3z"/>
	
		<path id="anantang" title="Anantang" class="land" d="
		M295.6,348.8c-0.9,0.6-2.6,0.9-3.6,1.3c-2.1,0.8-4.4,0.8-6.5,1.6c-2.6,1-3.3,4-5.1,6c-1.4,1.7-4.4,2.5-6.5,2.8
		c-0.2,0.8-1.2,1.3-1.6,2c-0.6,0.9-1.1,1.9-1.4,2.8c-0.1,0.2,0,1-0.2,1.2c-0.1,0.2-0.2,0.2-0.4,0.3c0.9,2.6,0.2,7.3,0.3,9.3
		c0.1,1.8,0.5,3.2,1.8,4.4c1.8,1.6,2.3,2.5,0.3,4.7c-0.9,0.9-1.1,0.7-1.3,2.1c-0.2,1,0,2.2,0,3.2c0,1.1,0,2.2,0,3.3
		c0,1.6-0.1,1.6-0.8,2.7c-0.9,1.5-1.5,2.2-3.3,3.1c-1.6,0.8-3.3,1.5-5,2.4c-1.8,1-2.7,1.8-3.7,3.3c-1,1.6-2.1,2.2-4.1,2.7
		c-1.7,0.5-3.3,1-5,1.6c-1.6,0.5-3.7,0.5-5,1.8c-1.4,1.3-1.4,3.4-0.1,4.6c1.5,1.4,2.3,0.8,2.2,3.3c-0.2,5.2-4.8,5.2-7.7,8.1
		c-1.1,1.1-3.3,2.7-3.9,4c-0.5,1.3,0.2,2-0.8,3.2c-0.6,0.8-1.7,1.3-1.7,2.3c-1.9-0.2-2.3,1-4.1-0.5c-1.1-1-2-2.4-3-3.6
		c-2.2-2.7-4.3-3.4-7.6-3.4c-2.5,0-5.1,1.6-7.7,0.9c-0.4-0.1-1.1-0.8-1.6-1c-0.8-0.4-1.2-0.5-2-0.8c-0.7-0.2-1.2-0.4-1.9-0.5
		c-0.4,2.7-2.4,5.8-1.1,8.7c1,2.3,3.4,3.6,5,4.9c0,0,1,0.1,1.1,0.1c0.5,1.1,1,2.4,1.9,3.3c0.4-0.1,0.4-0.1,0,0
		c0.1,0.1,0.1,0.1,0.2,0.2c2.5,2.1,1.3,0.3,3-0.6c0.4-0.2,0.7-0.3,1-0.5c-0.1,0-0.2-0.1-0.3-0.1c0.1,0,0.2,0,0.3,0.1
		c1.4-0.5,2.2,0.1,3.9-0.1c1.9-0.2,3.4-1.7,5.3-1.1c0.3,0.1,3,2.5,3.5,2.9c0.5,0.3,1.2,0,1.7,0.5c0.9,0.7,0.5,2.2,1.4,2.9
		c1.2,0.9,3.2,0.5,4.5,0.3c1.2-0.2,3.1-0.4,4.6-0.5c1.2-0.2,3.7-0.5,5-0.8s2.3-1.4,3.8-1.6c1.6-0.2,3.3,0,5,0c0.9,0,1.8,0.1,2.7,0.1
		v-0.1v0.1c2.6,0.2,5.1,0.1,6.5-2.6c-1.3-1.4-4.5-2-4.1-4.4c3-0.9,4-4.7,5.6-7.2c1.3,2.2,0.2,5.2,1.6,7.6c2.3,4.1,3.9,1.6,7,3.2
		c1.2,0.6,3,3.8,4.1,4.9c1.6,1.6,3.1,3.1,4.8,4.6c3.3,3.1,6.2,9.7,11.1,8.9c3.7-0.5,8.1-4.6,8.7-8.6c0.4-2.7-0.8-2.7-1.6-4.8
		c-1.8-4.2,3-6.1,4.5-9.9c-0.9-1.6-2.1-3.2-1.6-5.2c1.6,0.2,2.9-1.2,2.5-2.8c-0.5,0.1-1.3-0.2-1.7-0.2c-0.1-1.5,0.3-3.6,0-5.1
		c-0.5-2.2-1.7-2.5-1.2-5.1c0.4-2.3,1.9-2.5,0.2-4.9c-1.1-1.6-3.5-2.2-4.5-4.5c-0.2-0.6,0.4-1.8,0.1-2.4c-0.4-0.9-1.2-0.8-1.7-1.8
		c-1.2-2.3-0.5-3-0.5-5.4c-0.1-4.7-3.5-6.2-1.5-11.4c1.7-4.4,5.6-8.1,10-9.6c6.3-2,0.7-4.3,1.6-8.6c0.5-2.6,2.7-7,4.4-9.6
		c-0.5-1.6,0-3.2-1.2-4.7c-1.3-0.1-4.5,0.5-5.6-0.2c-1.6-1.1-1.8-4.4-2.7-5.9c-1.2-2-1.4-2.7-4.2-3.2c-0.7-0.2-1.5-0.2-2.3-0.1
		C295.9,348.5,295.7,348.8,295.6,348.8z"/>
	
		<path id="pulwama" title="Pulwama" class="land" d="
		M205.3,428.3c0.6,0.1,1.2,0.2,1.9,0.5c0.9,0.3,1.2,0.4,2,0.8c0.5,0.2,1.2,0.9,1.6,1c2.6,0.7,5.2-0.9,7.7-0.9c3.2,0,5.4,0.8,7.6,3.4
		c0.9,1.2,1.9,2.6,3,3.6c1.6,1.6,2.2,0.4,4.1,0.5c0-1.1,1.1-1.6,1.7-2.3c0.9-1.3,0.2-2,0.8-3.2c0.5-1.3,2.8-2.9,3.9-4
		c2.9-2.9,7.4-2.9,7.7-8.1c0.2-2.6-0.8-2-2.2-3.3c-1.3-1.3-1.2-3.4,0.1-4.6s3.4-1.3,5-1.8s3.3-1.2,5-1.6c1.9-0.5,3-1.1,4.1-2.7
		c0.9-1.6,1.9-2.3,3.7-3.3c1.6-0.9,3.3-1.6,5-2.4c1.8-0.9,2.4-1.6,3.3-3.1c0.6-1.2,0.8-1.2,0.8-2.7c0-1.1,0-2.2,0-3.3
		c0-1-0.2-2.2,0-3.2c0.2-1.3,0.5-1.2,1.3-2.1c2.1-2.2,1.5-3.1-0.3-4.7c-1.3-1.2-1.7-2.7-1.8-4.4c-0.2-2,0.6-6.7-0.3-9.3
		c-0.2,0.1-0.4,0.2-0.5,0.5c-0.3,1.2,0.2,2-0.7,3.1c-0.9,1.3-3,2.2-4.4,3.1c-1.9,1.3-3.2,2.5-4.6,4.2c-2.7,3.2-6.2,5.2-10.1,5.6
		c-1.6,0.2-3,0.3-4.7,0.4c-2.9,0.2-2.3,1.5-2,3.9c0.2,2-0.3,2.7-1.5,4.1c-1,1.3-2.3,2.7-3.1,4c-0.8,1.4-0.5,3.6-1.7,4.8
		c-1.2,1.2-3.2,1.6-4.3,3c-0.9,1-1.7,2.7-2.6,3.9c-1.3,1.7-2.6,3.1-3.7,4.9c-2.2,3.6-5.1,4.3-8.6,6.2c-2.2,1.2-5.8,3.6-8.2,3.8
		c-0.5,1.1-1.5,1.6-2.4,2.3c-0.4,0.3-0.5,0.9-1.3,1.3c-0.1,0.1-0.2,0.2-0.3,0.2c-0.1,0.5-0.2,1.1-0.2,1.7
		C205.3,428.2,205.3,428.2,205.3,428.3z"/>
	
		<path id="badgam" title="Badgam" class="land" d="
		M240.3,382.8c-1.6-0.9-2.1-0.5-3.3-2.1c-1.4-1.9-3.3-3.7-5-5.3c-0.9-0.8-2.2-1.9-3.2-2.3c-1.1-0.5-2.1-0.5-3-1.3
		c-1.2-0.9-2.1-2.3-3.7-2.3c-1.2-0.1-1.9,1.4-2.7,2.1c-0.1,0.2-0.2,0.2-0.2,0.4c-0.8,1.4-0.9,1.8-0.9,3.4c0,1.2-0.2,2.5,0,3.8
		c0.2,2.1,1.8,5.8,0.2,7.6c-1.2,1.5-4.9,1.7-6.6,2.4c-3,1.1-5.8,2-8.4,3.6c-1.2,0.7-2.3,1.3-3.6,1.7c-2.1,0.5-4.1,0.3-5.6-1
		c0.4,2.3-0.3,4.7-0.6,6.6c-0.3,2-0.9,1.1,0.5,3.1c0.7,1.1,1.9,1.7,2.7,2.8c2.2,3,0.5,5.3,1.8,7.8c0,0.1,2.5,2,2.8,2.3
		c1.1,1,2.5,2.1,3.3,3.3c1.9,2.5,1.5,4.5,1,7.1c0.1-0.1,0.2-0.2,0.3-0.2c0.8-0.4,0.9-1,1.3-1.3c0.9-0.8,1.8-1.2,2.4-2.3
		c2.5-0.2,6-2.6,8.2-3.8c3.5-1.9,6.5-2.6,8.6-6.2c1.1-1.9,2.3-3.3,3.7-4.9c0.9-1.2,1.8-2.9,2.6-3.9c1.2-1.3,3.1-1.8,4.3-3
		c1.1-1.1,0.9-3.3,1.7-4.8c0.8-1.4,2-2.7,3.1-4c1.1-1.4,1.7-2,1.5-4.1c-0.2-1.4-0.4-2.4-0.1-3.1C242.6,383.9,241,383.2,240.3,382.8z
		"/>
	
		<path id="srinagar" title="Srinagar" class="land" d="
		M293.1,348c-0.2-1.3,0.2-2.4,0.3-3.7c-1.2-0.6-2.1-1.2-3.9-1c-2.3,0.2-4.4,0.8-6.7,0.8c-0.9,0-2-0.2-2.9,0s-1,0.7-1.6,1.1
		c-1.8,1.2-3.9,1.4-6,1.3c-2.6-0.1-2.9-1.7-4.4-3.5c-1.6-1.9-3.4-3.3-5.2-4.9c-1.2-1.1-3.1-2.7-4.5-2.7c-1.6,0.1-3.5,2.7-4.7,3.5
		c-1.5,1-3.3,1-5,1.6c-2.1,0.8-3.6,2.3-5.4,3.5c-3.1,2.1-7.1,3.2-10.5,4.4c-1.4,0.5-3.4,0.3-4.8,0.9c-1.2,0.6-0.5,0.9-0.9,2
		c-0.5,1.3-0.8,2-1.7,2.7c-1.4,1.1-3.1,1.3-4.6,2c-1.4,0.7-3.3,3.2-3.7,4.9c-0.5,2.1,0.8,3.9,1.5,5.7c0.3,0.8,0.5,1.6,0.8,2.4
		c0.3,1.3,0.5,1.5,0.1,2.3c0.8-0.7,1.5-2.1,2.7-2.1c1.6,0.1,2.6,1.5,3.7,2.3c1,0.8,2,0.9,3,1.3c1,0.5,2.3,1.5,3.2,2.3
		c1.7,1.6,3.6,3.4,5,5.3c1.2,1.6,1.7,1.3,3.3,2.1c0.8,0.4,2.4,1.2,3,2c0.2-0.5,0.9-0.8,2.1-0.9c1.6-0.1,3-0.2,4.7-0.4
		c4-0.4,7.4-2.4,10.1-5.6c1.4-1.6,2.7-2.8,4.6-4.2c1.3-0.9,3.4-1.9,4.4-3.1c0.9-1.2,0.4-2,0.7-3.1c0-0.2,0.1-0.2,0.2-0.2
		c0.1-0.1,0.2-0.2,0.3-0.2c-0.2-0.3-0.2-0.5-0.2-0.5s0.1,0.2,0.2,0.5c0.2-0.1,0.3-0.2,0.4-0.3c0.1-0.2,0.1-0.9,0.2-1.2
		c0.3-0.9,0.8-2,1.4-2.8c0.5-0.7,1.4-1.2,1.6-2c2.1-0.4,5.1-1.1,6.5-2.8c1.7-2.1,2.5-5,5.1-6c2-0.8,4.4-0.9,6.5-1.6
		c1-0.4,2.7-0.6,3.6-1.3c0.2-0.1,0.3-0.5,0.5-0.8C295.1,348.1,294,348.1,293.1,348z"/>
	
		<path id="jammu" title="Jammu" class="land" d="
		M263.4,562.1c0.7-1.1,0.9-1.1,1.9-1.4c1.2-0.3,1.6-0.4,2.6-1c2.8-1.6,6.4-1.8,9.5-3.1c0.7-0.3,0.6-0.8,1.7-0.6
		c0.5,0.1,1,0.7,1.5,0.9c1.9,0.8,3-0.3,3.2-2.4c1.2-0.3,2.2-2.6,3.1-3.4c0.2-0.1,0.2-0.2,0.4-0.3c-1.2-0.4-2.5-1-3.8-1.2
		c-1.9-0.3-3-1.7-4.7-2.7c-0.8-0.5-2.2-0.7-3.1-0.9s-1.9-0.6-2.6-0.7c-2.3-0.4-5.1,0.1-5.5-2.8c-0.2-1.4,0.2-2.3,0.8-3.2
		c0.9-1.4,0.8-2.3,0.8-4c0-1.5,0-2.9,0-4.4c0-1.3-0.3-1.9-0.7-3c-0.7-2.2-1.1-2.9-3-4.1c-1.7-1-3.6-1.3-5.5-2
		c-1.5-0.5-2.6-1.8-4.2-1.5c-0.9,0.2-1.2,0.4-1.9,0.8c-0.8,0.5-1.9,1.9-2.7,2.1c-2.3,0.6-4.4-3.8-5.5-5.2c-1.2-1.6-2.9-2.5-4.5-3.6
		c-1.3-0.9-2.5-2-3.7-3c-1-0.9-2.5-2.7-3.6-3.1c-1.6-0.7-4.1,0.3-5.4,0.6c-1.8,0.5-4.7,0.5-6.5,0.2c-1.5-0.2-1.9-1.2-3.2-1.9
		c-2.3-1.3-3.7,0.6-5.7,1.1c-0.8,0.2-1.5-0.1-2.2,0.2c-0.5,0.2-1.1,1.3-1.7,1.5c-0.9,0.2-2.1-0.3-3-0.1c-0.5,0.2-1.2,1.2-1.6,1.5
		c-1.6,1.2-1.9,2.3-4.1,1.8c-2.7-0.5-5.5-2.1-8.1-3.3c-1.2,1.3-1.7,3.7-3,4.9c-0.4,0.4-1.9,0.5-2.3,0.7c-0.3,0.2-0.7,0.5-1.1,0.7
		c0,0,0,0,0,0.1c3.5-0.4,7.3,1.1,8,4.5c0.5,2-0.2,4.4,0,6.4s0.9,3.4,1.2,5.2c0,0.1,0,0.2,0.1,0.3c3.2-0.2,6.2,1.9,9.2,2.5
		c2.6,0.5,8.3,1.5,10.7,0.6c-0.2-0.8,0.2-1.8,0.1-2.6c3.3-0.6,3.5-7.5,5.5-9.9c1.2-1.5,2-2.8,2.2,0.2c0.2,2.3-1.6,2.8-2.9,4.5
		c-1.7,2.3-3.1,7.6-3.3,10.3c-0.2,3.5,3.8,6,3.1,9.1c-0.5,2.7-4.6,2.7-5.1,5.4c-0.3,2,1.9,4.3,1.9,6.8c0,1.6-0.8,1.5-0.2,3.3
		c0.2,0.7,1.4,1.5,1.7,2.2c1.2,2.1,0.8,4.2,1.5,6.5c4.6,0.3,10,0.7,13.4-1.6c2.4-1.6,2.8-1.8,5.3,0.5c2,1.9,2.4,2.7,5.1,3.1
		c2.6,0.5,2.9,0.8,5,2c3,1.7,2.1-0.1,3.7-3c1.3-2.3,2.9-4.5,5.4-3.4c0.2,0.1,0.8,1.9,1.6,2.3c0.2,0.1,0.5,0.2,0.8,0.2
		c0.4-2,1.2-4.3,1.6-5.3C261.8,564.8,262.6,563.4,263.4,562.1z"/>
	
		<path id="doda" title="Doda" class="land" d="
		M439.3,480c-3-0.6-4.3-4.9-4.5-7.7c-2.6-0.2-3.4,0.1-5.5-1.5c-2.4-1.9-2.7-3.7-6-3.4c-1.9,0.2-3.4,1.4-5.8,1.2
		c-2.6-0.3-3.6-0.9-5.1-3.7c2.2-2.2,3.4-5.3,2.7-8.8c-0.5-2.7-3-7.5-6.1-7.4c-0.8-3.1-2.1-8.1-5.5-9.6c-1.2-0.5-3.3,0.2-4.6-0.2
		c-1.2-0.3-3.5-1.3-4.4-2c-2.3-2-4.2-8.8-8.1-6.6c-2.6,1.5-1.8,7-6.3,6.4c-0.3,4.1-6.5,3.1-9.1,3.2c2.8-4-3.7-4.7-2.2-8.3
		c0.5-1.1,2.1-1.6,2.7-3.2c0.6-1.5,0.5-3.1,0.5-4.6c0.1-3.5-1.2-5.7-1.6-8.8c-0.4-3.8,0.9-6.7-1.6-9.6c-2.2-2.7-5.7-3.4-8.5-5.7
		c-0.9-0.8-3.6-2.3-3.9-3.9c-0.2-1.5,1.5-3.1,1.2-4.9c-0.2-1.9-1.2-2.9-3.1-3.2c-2.1-0.3-2.3,1.3-4.1,1.5c-2.1,0.3-5.7-0.5-7.9-0.7
		c-1.9-0.2-3.6-1-5.4-0.9c-0.2-2,1.6-2.7,1.6-4.7c-4.4,0-9.8-5-11.7-8.8c-0.6-1.3-0.3-1.5-1-2.6c-1-1.5-1.8-0.9-2.4-3.1
		c-0.5-2,0.2-4.7-0.2-6.7c-5.3-1.4-6.6-1.6-11.8,0.4c0-0.1-0.1-0.1-0.1-0.2c-1.7,2.6-3.8,7-4.4,9.6c-0.9,4.3,4.7,6.7-1.6,8.6
		c-4.3,1.3-8.3,5.2-10,9.6c-2,5.2,1.4,6.7,1.5,11.4c0,2.4-0.6,3.1,0.5,5.4c0.5,1,1.3,0.9,1.7,1.8c0.3,0.6-0.3,1.8-0.1,2.4
		c1,2.3,3.3,2.9,4.5,4.5c1.6,2.3,0.2,2.6-0.2,4.9c-0.5,2.6,0.6,2.9,1.2,5.1c0.4,1.5-0.1,3.6,0,5.1c0.4,0,1.2,0.3,1.7,0.2
		c0.5,1.6-0.9,3-2.5,2.8c-0.5,2,0.7,3.6,1.6,5.2c-1.6,3.8-6.2,5.6-4.5,9.9c0.9,2,2.1,2.1,1.6,4.8c-0.6,4-5,8.1-8.7,8.6
		c-4.9,0.8-7.7-5.9-11.1-8.9c-1.6-1.5-3.2-3.1-4.8-4.6c-1.2-1.2-2.9-4.3-4.1-4.9c-3.1-1.6-4.7,0.9-7-3.2c-1.4-2.4-0.2-5.4-1.6-7.6
		c-1.6,2.6-2.6,6.3-5.6,7.2c-0.3,2.4,2.8,2.9,4.1,4.4c-1.5,2.6-3.9,2.7-6.5,2.6c0,0.7-0.2,1.8,0,2.4c0.4,1,1.8,1.6,2.2,2.7
		c0.5,1.4,0.2,3.9,0.1,5.4c-0.2,1.6-1.2,3.1-1.6,4.8c-0.2,0.8-0.5,1.7-0.3,2.6s1.1,1,0.9,2.3c0.7,0.2,0.9,0.9,1.5,1
		c0.4,0.1,0.9-0.2,1.2-0.1c1.2,0.3,1.6,0.8,2.6,1.7c1,1,1.4,1.9,2.2,3.1c0.5,0.9,1.1,1.9,1.6,2.8c1.7,3.6-0.3,7.5-2.6,10.4
		c0.9,0.8,0.7,1.6,1,2.7c-0.1-0.3,0.7,1.2,0.6,0.9c0.3,0.5-0.2,0.8,0.3,1.3c0.1,0.1,1.4,0.1,1.6,0.2s0.8,0.5,1.1,0.6
		c0.5,0.2,1-0.2,1.5-0.1c0.6,0.2,0.7,0.7,1.2,0.9c0.4,0.1,0.9-0.2,1.2-0.1c0.5,0.2,0.5,0.8,1,0.9c0.5,0.2,1-0.2,1.5-0.1
		c0.5,0.2,0.7,0.7,1.2,0.9c0.4,0.1,0.9-0.2,1.2-0.1c0.5,0.2,0.6,0.8,1,0.9c0.6,0.2,1.6-0.1,2.3-0.1c3.1,0,7.9-0.9,10.5,0.9
		c3.2,2.3,6.4,5.8,9,8.8c2.7,3.1,5.1,6.6,8.6,8.5c1.8,0.9,3.3,1.4,5.4,1.4c1.5,0,3.3-0.3,4.7-0.1c0.6,0.2,0.5,0.8,1.1,0.9
		c0.5,0.1,1-0.2,1.5-0.1c1.2,0.3,2.2,0.9,3.5,0.8s2.5-0.5,3.8-0.7c1.8-0.2,3.6-0.1,5.4-0.1c1.1,0,1.6-0.1,2.5,0.5
		c0.2,0.2,0.4,0.3,0.5,0.5c0.3-0.2,0.5-0.2,0.9-0.2c3.2-0.5,6.5,2.8,8.9,4.7c4,3.2,5.9-0.4,9.2-3.5c3.3-3.1,7.2-5.4,7.3-10.4
		c2.1,0.3,5.9-1,7.7-1.5c2.3-0.6,5.7-0.2,8-1.2c3.5-1.3,3.1-4.5,3.4-7.8c0.4-4.1,2.6-4.4,5.1-7c1.7-1.8,3.3-4.4,5.4-5.6
		c3-1.9,3.3,0.2,6.1,1c6.1,1.6,9.3-4.8,15-3.9c0.8,3.4,7.1,5.5,9.3,4.5c2.1-0.9,3-1.7,5.7-1.8c2.1-0.1,4.3-0.1,6.4,0.1l0.2-0.5
		C438,482.1,438.6,481,439.3,480z"/>
	
		<path id="kupwara" title="Kupwara" class="land" d="
		M129.6,336.5c0.9,1.2,4.5,2.3,5.9,3.6c1-5.2,9.3-4.2,11.1,0.5c1,2.8-0.3,3.7,2.3,5.7c2.5,2,3.6,1.3,3.8,5.1c0.2,3,0.7,5.1-0.9,6.9
		c-0.9,1-2.1,1.6-3.3,2.3c0.1,0.1,0.2,0.1,0.2,0.2c1.2,0.9,1.3,2.4,3,2.3c1.9-0.2,4.4-1.7,6.2-2.5c1.4-0.6,2.1-0.7,3.7-0.7
		c1.2,0,2-0.2,3.1-0.4c1-0.2,2.2-0.5,3.2-0.9c1.4-0.6,1.6-1.5,3-0.5c0.9,0.6,1.5,2,2.6,2.3c0.6,0.2,2-0.3,2.7-0.4
		c1.7-0.3,3.5-0.2,5.2-0.5c1-0.2,2.3-0.8,2.7-1.8c0.3-0.8-0.2-1.9,0.2-2.5c0.5-1.1,1.4-0.4,2.2-0.9c1.2-0.8,0.7-1.1,0.9-2.3
		c0.2-1.3,0.9-2,1.3-3.2c0.2-0.4,0-0.9,0.2-1.3s0.7-0.3,0.9-0.8c0.4-1.3-0.8-4.1,0-5.2c1-1.3,4.6-1.3,5.9-2.2c1.4-0.9,1.1-3,0.9-4.7
		c-0.5-3-4.4-4.6-3-8.5c0.3-0.8,1.6-1.6,2.1-2c0.9-0.5,1.6-0.9,2.3-1.6c1.4-1.2,2.6-2.3,4.2-3.2c1.9-1.1,2.1-2.2,2.1-4.5
		c0-2-0.5-3.7,1.2-4.9c0.8-0.5,1.9-0.9,2.7-1.5c0.2-0.2,1.1-0.3,1.3-0.5c0.2-0.4-0.1-0.8,0.2-1.2c0.8-1.5,0.6-2.8,0.9-4.8
		c1.1-0.3,1.9-0.3,2.3-1.3c0.4-0.9-0.2-2.3,0-3.2c0.3-1.4,2.2-1.2,1.9-2.7c-1-1.4-2.2-3.2-3.3-3.8c-2.3-1.1-5.4-2.7-7.9-3.2
		c-1.5-0.3-3.4,0-5,0c-1.5,0-3.1,0.2-4.6,0c-2.3-0.2-2.9-1.3-4.8-2.2c-3.9-2-5.5,0.4-8.5,3.1c-3.3,3.1-6.1,4.3-9.7,6.3
		c-3.1,1.7-5.4,4.2-9.3,4c-2.7-0.2-6.7-2.7-9.5-1.6c-3,1.3-4.5,5.7-4.8,8.8c-0.2,1.5,0.5,3,0.2,4.9s-2.1,3.2-3,4.5
		c-1.6,2-3.7,5.8-4.7,8.5c-0.7,1.9,0.1,2.4-1.7,3.9c-1.2,0.9-3.3,2-4.6,2.8c-0.2,0.2-0.4,0.2-0.6,0.3c0,0.1,0,0.1,0,0.2
		c0-0.1,0-0.1,0-0.2C130.3,332.4,127.1,333.5,129.6,336.5z"/>
	
		<path id="baramullah" title="Baramullah" class="land" d="
		M212.6,297.5c-0.2,0.9,0.4,2.4,0,3.2c-0.5,0.9-1.2,0.9-2.3,1.3c-0.2,2-0.1,3.2-0.9,4.8c-0.2,0.3,0.1,0.7-0.2,1.2
		c-0.2,0.3-1,0.4-1.3,0.5c-0.9,0.5-1.9,1-2.7,1.5c-1.7,1.1-1.2,2.8-1.2,4.9c0,2.3-0.2,3.4-2.1,4.5c-1.6,0.9-2.8,2-4.2,3.2
		c-0.8,0.6-1.5,1.1-2.3,1.6c-0.5,0.3-1.8,1.1-2.1,2c-1.4,3.8,2.6,5.5,3,8.5c0.2,1.7,0.5,3.8-0.9,4.7c-1.3,0.9-4.9,0.9-5.9,2.2
		c-0.8,1.1,0.3,3.9,0,5.2c-0.2,0.5-0.6,0.3-0.9,0.8c-0.2,0.3,0,0.9-0.2,1.3c-0.5,1.2-1.1,1.9-1.3,3.2c-0.2,1.3,0.2,1.6-0.9,2.3
		c-0.8,0.5-1.6-0.2-2.2,0.9c-0.3,0.7,0.2,1.7-0.2,2.5c-0.5,1-1.7,1.6-2.7,1.8c-1.7,0.4-3.5,0.2-5.2,0.5c-0.7,0.2-2,0.5-2.7,0.4
		c-1.1-0.2-1.6-1.6-2.6-2.3c-1.3-0.9-1.6-0.1-3,0.5c-0.9,0.5-2.2,0.6-3.2,0.9c-1.1,0.3-1.9,0.4-3.1,0.4c-1.7,0-2.3,0.1-3.7,0.7
		c-1.7,0.8-4.3,2.3-6.2,2.5c-1.7,0.2-1.8-1.3-3-2.3c-0.1-0.1-0.2-0.1-0.2-0.2c-1.4,0.9-2.9,1.6-3.7,2.9c-1.4,2.1-0.6,4.8-0.9,7.5
		c-0.3,2.5-1.9,5.5,0.1,8c0.2,0,0.2,0.1,0.4,0.1c0.3,0,0.7,0,1.1,0c0.4-0.1,0.9-0.2,1.2-0.2c1.2-0.4,2.2-1.2,3.3-1.4
		c0.4-0.1,0.7-0.2,1.1-0.2c0.8-0.2,1.6-0.5,2.3-0.5c1.1-0.2,2.1-0.2,3.1-0.1c1.2-0.1,2.3-0.1,3.4,0c0.5,0.1,1,0.2,1.6,0.2
		c0.5,0,1,0.1,1.6,0.2c0.5,0.2,0.8,0.3,1.2,0.5c0.9,0.3,2,0.3,3,0.7c0.5,0.2,0.9,0.3,1.4,0.5c0.4,0.2,0.7,0.4,1.1,0.5
		c0.5,0.2,0.9,0.2,1.3,0.3c0.5,0.1,1.2,0.1,1.7,0.3c0.5,0.2,0.9,0.5,1.3,0.8c0.9,0.5,1.9,1.3,2.5,2.3c0.2,0.1,0.3,0.1,0.5,0.1
		c2.4,0.2,5-0.1,7.4,0.1c0.5,1.7,0.5,3.7,0.9,5.5c3.2,0.2,5.5-0.5,7.6,2.2c0.6,0.8,0.9,1.7,1.1,2.6c1.5,1.3,3.6,1.6,5.6,1
		c1.3-0.4,2.4-0.9,3.6-1.7c2.6-1.6,5.5-2.6,8.4-3.6c1.8-0.6,5.4-0.9,6.6-2.4c1.6-1.9,0-5.5-0.2-7.6c-0.2-1.2,0-2.5,0-3.8
		c0-1.6,0.2-2,0.9-3.4c0.1-0.2,0.2-0.3,0.2-0.4c-0.3,0.3-0.7,0.5-1.2,0.3c0.5,0.2,0.9,0,1.2-0.3c0.4-0.9,0.2-1.1-0.1-2.3
		c-0.2-0.8-0.5-1.6-0.8-2.4c-0.7-1.8-1.9-3.6-1.5-5.7c0.4-1.7,2.3-4.2,3.7-4.9c1.5-0.8,3.2-0.9,4.6-2c1-0.8,1.3-1.5,1.7-2.7
		c0.4-1-0.4-1.3,0.9-2c1.3-0.6,3.3-0.5,4.8-0.9c3.4-1.2,7.4-2.3,10.5-4.4c1.8-1.3,3.3-2.8,5.4-3.5c1.7-0.6,3.5-0.5,5-1.6
		c1.2-0.9,3.1-3.5,4.7-3.5c1.4-0.1,3.3,1.6,4.5,2.7c1.8,1.6,3.6,3.1,5.2,4.9s1.9,3.4,4.4,3.5c2.1,0.1,4.2-0.1,6-1.3
		c0.7-0.5,0.8-0.9,1.6-1.1s2,0,2.9,0c2.3,0,4.4-0.6,6.7-0.8c1.8-0.2,2.6,0.4,3.9,1c0.1-0.5,0.1-0.9,0.1-1.4c-0.2-2-0.8-2.9-1.2-4.9
		c-0.2-1.3,0.6-3.7-0.2-4.7c-0.6-0.9-4.1-2.2-5.2-2.7c-0.2-0.5-0.2-1.3,0-1.8c5.3-0.6,1.2-5.1,1.5-7.3c0.2-1.3,1.9-2.2,2.3-3.6
		c0.2-0.4,0.2-0.9,0.2-1.5c-0.9,0.2-1.6,0.4-2.3,0.5c0.8-0.1,1.6-0.2,2.3-0.2c-0.7,0-1.5,0.1-2.3,0.2c-0.2,0-0.5,0-0.7,0
		c-0.6,0-1.3,0-1.9-0.2c-1.3-0.4-2.3-2-3.1-3.2c-0.7-1.2-1.3-2.5-2.1-3.7c-1.1-1.4-2.3-2.4-3.9-2.5c0-0.1,0-0.2,0-0.2
		c-0.1-0.1-0.2-0.1-0.2-0.2c0.2-0.2,0.3-0.5,0.4-1.1c0.2-2.3-0.4-3.4-2.6-3.6c-0.2,0.1-0.2,0.1-0.4,0.1c-0.5,0.1-1.2,0.2-1.6,0.2
		c-0.9,0.1-1.9,0-2.8,0c-1,0-2.1-0.1-3.2-0.1c-0.5,0-1,0.1-1.6,0.1c-2.1,0.2-4.1,0.6-5.9,1.1c-0.2,0.1-0.5,0.2-0.7,0.2
		c-1.1,0.2-2.2,0.6-3.3,0.7c-1.6,0.1-2.8-0.3-4.2-0.9c-1-0.4-3.2-0.7-3.8-1.7c0,0,0-0.1-0.1-0.1c-1.9-0.5-3.7-0.2-6.2-0.5
		c-2.4-0.3-5.7-1.3-8.1-1.6c-3-0.4-5.8,0.2-8.5-0.7c-2.6-1-5.3-1.6-8-2.6c-0.5-0.2-1-0.9-1.6-1.6
		C214.8,296.3,212.9,296.1,212.6,297.5z"/>
	
		<path id="kargil" title="Kargil" class="land" d="
		M368,303.9c-4.4,2.3-5.5-3-8.4-4.9c-4.4-2.7-5.3,1.3-7.9,3.8c-2.4,2.3-5.9,4.9-8.5,6.7c-3,2-6,3-8.6,5.3c-1.2,1.1-2.6,2.2-4.1,3.3
		c-2.9,2.3-1.6,1.3-4.6,0.5c-3-0.9-6.6,0.2-9.8-0.2c-3.1-0.4-6.5-1.6-9.6-2.5c-3-0.8-6.2-0.8-9.6-0.8c-1.7,0-3.9,0.8-6,1.3
		c0,0.5,0,1.1-0.2,1.5c-0.5,1.4-2.2,2.3-2.3,3.6c-0.2,2.2,3.8,6.7-1.5,7.3c-0.2,0.5-0.2,1.3,0,1.8c1.2,0.5,4.5,1.7,5.2,2.7
		c0.8,1-0.1,3.4,0.2,4.7c0.4,2,1.2,4,1.1,6.1c0,0.4-0.7,3.8-0.2,3.8c1.7,0.3,3.6-0.2,5.3,0.2c2.8,0.5,3,1.2,4.2,3.2
		c0.9,1.5,1.2,4.8,2.7,5.9c1.1,0.8,4.3,0.2,5.6,0.2c1.2,1.5,0.6,3.1,1.2,4.7c0.2-0.2,0.3-0.5,0.5-0.7c-0.2,0.2-0.3,0.5-0.5,0.7
		c0,0.1,0,0.1,0.1,0.2c5.2-2,6.5-1.9,11.8-0.4c0.4,2-0.5,4.8,0.2,6.7c0.6,2.2,1.3,1.6,2.4,3.1c0.8,1.1,0.4,1.3,1,2.6
		c1.9,3.8,7.4,8.8,11.7,8.8c-0.1,2-1.8,2.7-1.6,4.7c1.8,0,3.5,0.8,5.4,0.9c2.2,0.2,5.8,1.1,7.9,0.7c1.7-0.3,1.9-1.9,4.1-1.5
		c1.8,0.3,2.8,1.3,3.1,3.2c0.2,1.9-1.5,3.4-1.2,4.9c0.3,1.6,3,3.1,3.9,3.9c2.7,2.3,6.2,3,8.5,5.7c2.3,2.9,1.2,5.7,1.6,9.6
		c0.3,3.1,1.6,5.3,1.6,8.8c0,1.6,0.1,3.1-0.5,4.6c-0.6,1.6-2.3,2.1-2.7,3.2c-1.5,3.6,5,4.3,2.2,8.3c2.6-0.1,8.8,0.9,9.1-3.2
		c4.5,0.6,3.7-4.9,6.3-6.4c3.9-2.2,5.8,4.5,8.1,6.6c0.9,0.8,3.3,1.6,4.4,2c1.3,0.4,3.4-0.4,4.6,0.2c3.3,1.5,4.7,6.5,5.5,9.6
		c3.2-0.2,5.5,4.7,6.1,7.4c0.7,3.4-0.5,6.7-2.7,8.8c1.5,2.7,2.5,3.4,5.1,3.7c2.3,0.2,3.9-0.9,5.8-1.2c3.3-0.3,3.6,1.5,6,3.4
		c2,1.6,2.9,1.3,5.5,1.5c0.2,2.7,1.6,7,4.5,7.7c-0.7,1-1.3,2-1.7,3.1l-0.2,0.5h0.1c0,0.2,0,0.3,0,0.5c0,0.1,0,0.1,0,0.2s0,0.2,0,0.3
		c0,0.1,0,0.1,0,0.2s0,0.2,0,0.2c0,0.1,0,0.1,0,0.2s0,0.2,0,0.2s0,0.1,0,0.2s0,0.2,0.1,0.2c0,0.1,0,0.1,0.1,0.2c0,0.1,0,0.1,0.1,0.2
		c0,0.1,0,0.1,0.1,0.2c0,0.1,0.1,0.1,0.1,0.2s0.1,0.1,0.1,0.2c0.4,0.8,1.1,1.4,1.9,2.1c0.6,0.5,1.6-0.1,2.3,0.9
		c0.4,0.5,0.3,2.3,0.5,3.1c3.7,0.5,3.3,1.6,3.4,5.2c4.3-0.4,4.4,3.4,7.2,5.4c2.3,1.7,4.1,2.4,6.2,4.5c2.3,2.3,5.2,3.8,7.8,5.8
		c4,3.1,6.9,5,11.8,5.6c0.1,0,0.2,0,0.3,0.1c-0.4-1.2-0.6-2.5-0.7-3.6c-0.1-0.9-0.1-2,0-2.8c0.2-1.3,0.2-1,0.8-2
		c1.4-2.6,0-7.9,0-11.2c0-1,0-2,0-3c0-1.3,0.4-1.7,0.6-2.7c0.4-1.8-0.1-3.8,0.2-5.6c0.5-3.9,4-5.7,7.1-7.8c0.8-0.5,2-0.9,2.2-1.9
		c0.1-0.5-0.3-2.3-0.4-2.8c-0.3-1.5-1.3-2.4-1.9-3.7c-0.5-0.9-0.5-2.3-0.9-3.2c-0.5-1.5-0.9-1.3-0.1-2.7c0.4-0.6,0.9-1.5,1.4-2
		c0.7-0.6,1.9-0.9,2.4-1.5c0.9-0.9,0.4-1.6,0.5-2.9c0.2-1.2,0-1.1,0.8-2c0.9-1.2,2.9-2.1,4.3-2.8c2.1-1,3.7-0.9,3.7-3.6
		c0.1-1.6,0.2-3.5-0.1-5.2c-1-0.2-1.6-0.4-1.5-1.6c0.1-1.3,0.8-1.6,1.4-2.5c0.4-0.5,0.3-0.7,0.8-1.3c0.3-0.3,0.9-0.7,1.2-1
		c0.5-0.7,0.9-1.9-0.2-2.7c-1.7-1.3-4.5-1.2-6.4-2.4c-2.1-1.3-3.7-3.4-6-4.4c-0.5,0.9-1.4,1.3-2,2c-0.3,0.5-0.7,2.4-1.1,2.7
		c-1.1,0.6-2.5-0.9-3-1.9c-0.8-1.4-0.7-3.3-1.4-4.9c-0.8-1.8-1.8-3.1-2.9-4.7s-1.3-2.1-3-3c-1.6-0.8-2.5-2.6-3.8-3.9
		c-0.7-0.6-1.2-1.8-2-2.3s-1.5-0.4-2.3-0.8c-0.6-0.3-1.1-1-1.8-1.4c-1.9-0.9-3.9-1.5-5.9-0.9c-0.5,0.2-0.9,0.5-1.5,0.6
		c-0.4,0.1-0.9-0.1-1.2,0c-1.6,0.2-2.2,0.8-4,0.8c-6.2-0.1-14.3-0.2-18.3-5.6c-1.1-1.4-2.1-3.9-3.6-4.9c-1.2-0.8-2.9-0.4-4.1-0.9
		c-1.1-0.4-2.2-1.6-3.3-2.3c-1.5-0.9-2.6-2.3-4.1-3.1c-2.3-1.1-4.5-0.9-6.1-3.3c-1.5-2.3-2.4-5.5-4.5-7.2c-1.8-1.5-1.7-2.3-1.7-4.5
		c0-1.8-0.2-3,0.9-4.2c0.8-0.1,3.5-0.5,3.8-1.3c0.4-0.9-1-2.1-1.2-2.9c-0.9-3.5,2.5-4.8,4.6-2.7c0.5,0.5,0.5,1.1,1.2,1.3
		c0.3,0,0.5-0.2,0.8-0.4c0.5,0,1.5,0,2-0.2c1.5-0.5,1.6-1.6,1.2-3.1c-0.4-1.6-0.7-2.4-0.7-4.2c0-1.4,0-2.8,0-4.2
		c0-1.6-0.5-2.4-0.9-4c-0.3-1.4,0.1-3.1-0.2-4.4c-0.5-1.8-2.6-2.4-3.1-4c-0.4-1.3,0-2.8-0.6-4.1c-0.4-0.9-1.2-2-1.7-2.8
		c-1.2-2.1-3.9-4.9-6.4-5.3c-0.5-1.3,0.5-1.1,0.8-1.9c0.2-0.6,0-1.7,0-2.3c0-1.4,0-2.4-0.5-3.7c-0.9-2.6-2.6-3.4-3.7-5.6
		c-0.6-1.2-1-2.5-1.6-3.6c-0.6-1.5-1.5-1.9-3.1-2.5c-1.8-0.8-7.6-1.8-8.1-3.9c0.9-0.4,0.5-1.1,1-1.5c0.5-0.5,1.4-0.6,1.9-1
		c1.2-0.8,1.9-1.2,1.7-2.8c-0.2-2.3-2.3-4.5-4.1-5.6c-3.8-2.6-9.7,0.2-13.5-2.3c-1.1,0.9-2.2,1.7-3,2.4
		C372.9,301.4,370.3,302.6,368,303.9z"/>
	
		<path id="ladakh" title="Ladakh" class="land" d="
		M718.5,538.6c0.7-2.6,3.5-4.1,3.2-7c-0.2-2.3-2.2-3.2-3.3-5.1c-0.9-1.6-1.2-3.1-2.6-4.9c-1.4-1.7-2.2-3.4-3.6-5.2
		c-2.9-3.5-6.4-5.2-9.6-8.1c-1.6-1.5-3.2-3.1-4.8-4.7c-0.5-0.5-1.7-1.3-2.1-2c-0.9-2.2-0.5-0.9,0.5-3.1c1.7-3.4,1-6.2,1.9-10
		c0.7-3.1,4.1-5.9,5.8-8.6c0.9-1.6,2.2-2.3,2.3-4.5c0.2-4.6-3.4-6-4.8-9.7c-3.5-0.2-7.1-0.1-10.6-0.1c-5.8,0-10.7-1.6-16.4-0.8
		c-3,0.4-3,0.4-5.4-1.4c-1.9-1.4-4.5-3.7-7.1-4.8c-1.1-0.5-2.3-0.8-3.3-0.7c-0.2-2.9-6.4-7.7-8.3-9.8c-3-3.4-6.2-6.3-8.9-9.9
		c-2.3-3.1-4.6-6.7-6.5-10.2c-2.1-3.8-3.9-5.4-1.1-9.2c2.1-2.8,4.7-6.2,6.2-9.6c1.9-4.5-2.3-6.5-5.1-9.6c-3-3.5-3.3-5.8-1.9-10
		c1.2-3.6,0.9-7.1,3.5-10.1c0.7-0.9,2.6-1.9,2.4-3.2c-0.4-2.4-3.2-1.3-4.5-1.9c-2.9-1.3-4.2-5.4-1.7-8c0.2-0.2,1.9-0.9,2.4-1.3
		c0.8-0.6,1.2-2.2,2.2-2.8c1.6-1,3.4-0.6,5-1.3c3-1.4,6.3-3.4,9.2-4.9c1.9-1,2.6-1.1,4.2-3c1.4-1.6,2.4-2.9,3.1-5
		c-2.7-2.7,1.6-7.8,0.5-11.1c-2.3-0.8-4.3-3.4-6.7-4.5c-2.1-1-4.6-0.3-7-0.7c-5.5-0.9-8.9-8.1-12.7-12c-2-2-4.4-3.3-6.7-5.1
		c-2.3-1.8-4.5-3.8-6.9-5.6c-6.4-4.7-11.9,0.9-18.1,1.1c-2.6,0.1-1.9-1-2.6-3.2c-0.8-2.4-0.8-2.9-3.3-3.8c-1.7-0.5-2.9-0.1-4.5-1
		s-3.5-2.6-4.9-3.7c-3.1-2.3-6.2-5.2-6.9-9.2c-0.3-1.6,0.2-3.4-0.2-5c-0.4-2.1-1.6-3.3-2.3-5.1c-1.2-3.1-0.9-7-2.5-10
		c-0.9-1.7-3-2.9-3.7-4.8c-0.9-2.7-0.1-2.7-2.2-5.1c-2.6-3-6.9-6.1-3.1-9.4c2.1-1.9,4.1-4,6.2-5.8c-0.9-2.3-5.6-5-7.5-7.2
		c-2.3-2.7-5-5.7-5.6-9.1c-0.5-2.7,0-5.8-0.6-8.2c-0.8-3.1-1.6-5.9,0.2-9.1c1.4-2.5,6.2-3.8,6.9-6.6c0.6-2.9-4.8-2.6-7.2-2.6
		c-4.1,0-4.4,0.2-7.1,2.8c-2.3,2.2-5.4,4.2-8.6,3.8c-0.2-3.8-0.8-4.7-2.6-7.8c0-0.1-0.1-0.1-0.1-0.1c-0.9-1.6-1.5-2.2-2-2.3
		c-0.9-0.1-1.6,1.3-3.9,2.3c-14.7,11.8-29.4,23.6-44.2,35.4c-8.1,6.5-16.2,13-24.2,19.4c-2.2,1.7-4.4,3.5-6.5,5.2
		c-1.3,1-2.9,2-4.1,3c-1.1,0.9-2.5,3.6-3.4,4.1c-2,1-2.6-0.5-4.5-1.6c-1.5-0.8-3.1-0.8-4.8-0.9c-3.6-0.4-6.4,0.5-9.3,2.3
		c-2.2,1.3-5.8,3.9-6.2,6.6c-0.2,1.2,1.2,2.5,0.8,4c-0.5,1.7-2.1,2.7-3,4c-2,2.6-3.6,6.6-7.3,7.6c-2.8,0.8-6.4,0.4-9.2,0.8
		c-1.2,0.2-3.4,0.9-4.7,0.5c-1.2-0.5-2.3-4.1-4-4.7c-1.9-0.7-5.8,3.1-6.5,5.4c-1.9,0.7-3.9,0.5-5.8,1.2c-2.2,0.7-3.9,2-6.2,1.8
		c-0.4,1.1-1.5,2.1-2.7,3.1l0,0c3.8,2.5,9.7-0.2,13.5,2.3c1.8,1.2,4,3.4,4.1,5.6c0.1,1.6-0.5,2-1.7,2.8c-0.5,0.4-1.5,0.5-1.9,1
		c-0.5,0.5-0.2,1.2-1,1.5c0.5,2.1,6.4,3.2,8.1,3.9c1.6,0.6,2.5,1,3.1,2.5c0.5,1.2,0.9,2.4,1.6,3.6c1.1,2.2,2.8,3.1,3.7,5.6
		c0.5,1.3,0.5,2.3,0.5,3.7c0,0.6,0.2,1.7,0,2.3c-0.2,0.9-1.2,0.6-0.8,1.9c2.5,0.4,5.2,3.2,6.4,5.3c0.5,0.9,1.3,2,1.7,2.8
		c0.6,1.3,0.2,2.8,0.6,4.1c0.5,1.6,2.6,2.2,3.1,4c0.4,1.3-0.1,3.1,0.2,4.4c0.4,1.6,0.9,2.4,0.9,4c0,1.4,0,2.8,0,4.2
		c0,1.8,0.3,2.7,0.7,4.2c0.4,1.5,0.2,2.7-1.2,3.1c-0.5,0.2-1.5,0.2-2,0.2c-0.2,0.2-0.5,0.4-0.8,0.4c-0.8-0.2-0.8-0.8-1.2-1.3
		c-2.2-2-5.5-0.8-4.6,2.7c0.2,0.8,1.6,2,1.2,2.9c-0.3,0.7-3.1,1.2-3.8,1.3c-1,1.3-0.9,2.4-0.9,4.2c0,2.3-0.1,3.1,1.7,4.5
		c2.2,1.7,3,4.9,4.5,7.2c1.6,2.3,3.9,2.2,6.1,3.3c1.6,0.7,2.6,2.3,4.1,3.1c1.1,0.6,2.2,1.9,3.3,2.3c1.2,0.5,3,0.1,4.1,0.9
		c1.4,0.9,2.5,3.4,3.6,4.9c4.1,5.5,12,5.6,18.3,5.6c1.8,0,2.3-0.5,4-0.8c0.4-0.1,0.9,0.1,1.2,0c0.6-0.1,1-0.5,1.5-0.6
		c2-0.5,4.1,0,5.9,0.9c0.7,0.4,1.2,1.1,1.8,1.4c0.8,0.4,1.5,0.3,2.3,0.8s1.3,1.6,2,2.3c1.4,1.3,2.3,3.1,3.8,3.9c1.6,0.9,1.9,1.4,3,3
		s2.1,3,2.9,4.7c0.7,1.6,0.7,3.4,1.4,4.9c0.5,0.9,1.9,2.5,3,1.9c0.5-0.2,0.8-2.2,1.1-2.7c0.6-0.8,1.6-1.2,2-2c2.3,0.9,3.9,3.1,6,4.4
		c1.9,1.2,4.7,1.1,6.4,2.4c1,0.8,0.7,1.9,0.2,2.7c-0.2,0.3-0.9,0.6-1.2,1c-0.5,0.5-0.4,0.6-0.8,1.3c-0.5,0.9-1.2,1.3-1.4,2.5
		c-0.1,1.3,0.4,1.4,1.5,1.6c0.2,1.6,0.1,3.4,0.1,5.2c-0.1,2.7-1.6,2.6-3.7,3.6c-1.5,0.7-3.3,1.6-4.3,2.8c-0.8,0.9-0.6,0.8-0.8,2
		c-0.2,1.3,0.3,2-0.5,2.9c-0.6,0.6-1.8,0.9-2.4,1.5c-0.5,0.5-1,1.3-1.4,2c-0.8,1.4-0.5,1.2,0.1,2.7c0.4,1,0.4,2.3,0.9,3.2
		c0.6,1.3,1.6,2.2,1.9,3.7c0.1,0.5,0.5,2.3,0.4,2.8c-0.2,0.9-1.3,1.3-2.2,1.9c-3.1,2-6.5,3.8-7.1,7.8c-0.2,1.9,0.2,3.8-0.2,5.6
		c-0.2,1-0.6,1.4-0.6,2.7c0,1,0,2,0,3c0,3.3,1.5,8.6,0,11.2c-0.5,1-0.6,0.7-0.8,2c-0.2,0.9-0.1,2,0,2.8c0.2,1.2,0.3,2.4,0.7,3.6
		c1.8,0.2,3.8,0.1,5.4,0.9c1.9,1,2.5,2.9,4.7,3.5c1.9,0.5,4.1-0.2,6.1,0.5c1.5,0.5,3.3,1.5,4.8,2.3c1.1-1.8-0.6-4.3-1.9-5.6
		c2.4-1.5,6.8-0.1,9.6-0.1c4.1,0.1,5.2-1.4,8.5-2.6c1.5-0.5,3.2-0.8,4.6-1.6c1.8-1,2.8-3.4,4.5-4.5c1.5-0.9,2.7-0.6,4.3-1.8
		c1.5-1.2,1.6-3.2,3.5-4c4.2-1.8,2.7,2.7,4.9,4.9c0.9,0.9,2.4,0.9,3.2,1.6c1.5,1.3,1.2,3,2.3,4.5c1.6,2.3,3.1,3.1,4.4,6
		c1,2.3,2.3,5.2,3.8,7.1c1.9,2.3,3.3,1.4,5.6,2.6c0.1,1.1,0.5,3.3,0.1,4.4c-0.8,2.1-2.5,1.7-1.6,4.5c0.6,2,4.2,3.9,6.1,4.1
		c0.9,1.6,1.6,3.4,2,5.2c0.6,2.6,0.8,2.6,1.9,4.8c1.6,0.5,4.6-0.5,6.4-0.9c0.1-1.7-1.6-2.9-1.6-4.2c0.2-2.7,1.4-1,3.1-1.7
		c1.2-0.5,4.4-5.2,5.5-1.3c3.5,1.5,2.1-1,3.9-2.7c2-1.8,4.1,0.9,6.4,0.2c-0.1-2.8,0.9-2.7,2.7-3.4c1.5-0.6,3.3-1.4,4.9-1.7
		c0.1-1.7-0.9-2.4-0.6-4.2c2.3-0.2,3.8-0.1,5.7,1.2c-0.3,6,4.2,10.5,3.1,16.8c-0.5,2.7-4.5,5.4-5.6,8.1c-0.7,1.7-2.2,7.3-0.2,8.8
		c2.2-2.9,3-4.2,6.2-6.1c3.9-2.3,7.7-5.5,11.9-7.2c0.8-0.3,1.2-1.4,1.9-1.7c0.6-0.2,1.6,0.2,2.3,0.1c0.9-0.2,3.1-0.5,4.2-0.9
		c1.7-0.6,4.8-4.9,6.5-6.7c2-2,4.3-5.5,7.7-4.5c0.5,2.2-0.9,5-0.7,7.6c0.2,2.4,0.5,4.6,1.2,6.8c1.2,4.5,1.9,9.8,3.9,14
		c1.5,2.9,6.7,4.6,9.7,6.8c3.7,2.7,5.8,6.5,9.5,9.4c2.3-2.8,0.7-6.9,3.8-8.9c2.2-1.4,7.2,0.7,9.3-0.8c2.5-1.8-0.9-7.5,2-9.5
		c2.3-1.6,7.2,1.3,9.4-0.3c3.7-2.9,3.6-19.3,9.8-14.4c2,1.6,2.8,4.1,4.4,5.8c3,3.3,5.2,0.9,6.9-2.7c1.3-2.7,2.9-4.4,4.4-6.9
		c0.5-0.9,0.7-2.5,1.3-3.1c0.9-1,2.2-0.1,3.1-1.6C719.1,544,718.1,540.3,718.5,538.6z"/>
	
		<path id="kathua" title="kathua" class="land" d="
		M338.6,515.9c-0.9-0.6-1.4-0.6-2.5-0.5c-1.8,0-3.7-0.2-5.4,0.1c-1.4,0.2-3.2,0.8-4.6,0.7c-0.4,0-0.7-0.1-1-0.2
		c-0.5,1.5-1.1,4.1-1.2,5c-0.5,2.3-0.6,4.7-1.2,7c-0.5,2.3-1.8,4-3.4,5.1c-0.8,0.5-1.6,1.2-2.5,1.6c-1.2,0.5-1.9,0.8-3.2,0.2
		c-1.1-0.5-1.9-1.4-3.3-1.1c-0.4,0.1-1.5,1.2-1.9,1.5c-0.8,0.5-1.1,1.3-1.9,2c-1.6,1.6-2.3,2.2-2.7,4.6c-0.5,2.7-0.6,2.4-2.8,1.6
		c-2.2-0.9-3.3,0.2-5.1,1.2c-1.8,1-3,2.3-4.2,3.8s-3.2,1.2-4.6,2.3c-1.2,0.9-1.8,3.2-3.3,3.7c-0.2,2.2-1.2,3.2-3.2,2.4
		c-0.5-0.2-0.9-0.9-1.5-0.9c-1.1-0.2-1,0.3-1.7,0.6c-3.1,1.3-6.7,1.6-9.5,3.1c-1.1,0.6-1.5,0.7-2.6,1c-1,0.3-1.2,0.3-1.9,1.4
		c-0.8,1.3-1.6,2.8-1.9,4.2c-0.3,1.1-1.2,3.3-1.6,5.3c0.9,0.1,2.3-0.1,3-0.1c0.1,1.7-0.2,3.9,0.5,5.5c1.8,3.7,1.9,0.7,4.1,0.5
		c3.2-0.3,4.8,2.7,7,4.8c2.3,2.1,4.8,2.8,7.3,4.9c1.6,1.3,2.1,1.7,4.1,1.7c2.3-0.1,3-1.6,4.9-1.6c1,1.6,2,2.9,3.9,3.1
		c1.7,0.2,3.6-1.5,5-1.8c3.3-0.8,1.6-0.3,3.2,1.7c0.9,1.2,2.4,2.4,2.3,4.1c0.2-3.4,1.9-9.5,5.2-10.8c3.3-1.3,7.3,0,10.7-0.5
		c0.1-2.7,1.8-4.2,4.2-4c0.2-2.1-0.5-5.2,2.3-4.9c0.1-2.5,3-1.8,4.4-2.4c0.5-0.2,1.2-1.5,1.8-1.8c0.5-0.3,2.3-0.1,3-0.2
		c-0.4-3.7,3-4.2,2.8-7.8c3-1.3,6.2-5.9,6.7-9.6c-0.9-0.2-1.2-0.8-2.1-1c-0.2-2.9-0.2-5.1,1-7.7c1.9-4.4,1.7-4.1-0.5-8.1
		c-0.6-1.1-0.4-3.1-0.9-3.8c-0.6-0.9-2.8-1.7-3.7-2.6c-2.4-2.2-8.4-5.9-5.2-9.5c0.9-1,2.3-2.7,3.7-3.4
		C339,516.1,338.8,516,338.6,515.9z"/>

</g>

</svg>
