<?xml version="1.0" encoding="utf-8"?>
<!-- Generator: Adobe Illustrator 21.0.0, SVG Export Plug-In . SVG Version: 6.00 Build 0)  -->
<svg version="1.1" id="Layer_1" xmlns="http://www.w3.org/2000/svg" xmlns:amcharts="http://amcharts.com/ammap" xmlns:xlink="http://www.w3.org/1999/xlink" x="0px" y="0px"
	 width="1024px" height="768px" viewBox="0 0 1024 768" style="enable-background:new 0 0 1024 768;" xml:space="preserve">
    <defs>
    <amcharts:ammap projection="mercator" leftLongitude="73.443604" topLatitude="75.19043" rightLongitude="74.245605" bottomLatitude="74.4104"></amcharts:ammap>
    </defs>
    <g>
<path id="fatehpur" title="Fatehpur" class="land" d="M777,208c-3.8,3.3-1,7.4-5,12c-4.3,5-8.7,1.6-19,7c-6.4,3.3-13,9-13,9l0,0c0,0-2.8,8.5-8,14
	c-2.4,2.6-2.9,1.8-11,7c-8.2,5.2-12.3,7.9-13,11c-1.2,5.5,4,13,4,13l0,0c-8.3,7.2-10,12-10,12c-2.4,7,1.3,16.2,7,21
	c4.1,3.5,5.6,1.6,10,5c5.3,4,4.6,7.9,11,21c2.7,5.6,2.9,5.1,8,15c5.6,11.1,5.9,12.7,6,14c0.6,7.6-4.1,9.8-4,18c0,3.7,1,6.9,4,13
	c6.4,13.2,11.2,17.9,18,29c7.4,12.1,11.2,18.2,13,27c2.2,10.3,0.2,15.3,5,23c1.3,2.1,5.5,8.8,13,11c3,0.9,3.3,0.1,16,0
	c9.4-0.1,11.2,0.3,13,1c5.9,2.3,5.7,5.7,10,7c5.1,1.6,8.6-2.3,21-9c11.3-6.1,10.7-4.1,21-10c7.3-4.2,7.3-5,19-12
	c9.2-5.5,9.6-5.3,11-7c3.3-4.2,2.9-8.3,2-28c-1.5-31.2-0.7-25.4-1-28c-0.8-6.6-1.7-9.3,0-13c2.7-6,8-5.5,13-13c1.3-1.9,4-6.1,4-12
	c0-1.8,0-7.8-4-12c-4.7-4.9-9.9-1.9-16-7c-2.4-2-3.6-4.3-6-9c-4.7-9.1-6.7-16.9-7-18c-2.8-10.5-6.5-19-14-36
	c-6.4-14.4-9.6-21.7-15-29c-4.9-6.6-4.5-4.3-23-24c-8.9-9.5-10.8-12-16-15c-5.6-3.3-11.1-4.5-22-7C781.1,204.9,778,207.1,777,208z"/>
    
<path id="kotlidist" title="Kotli" class="land" d="M464,248c-10,19.1-11.8,22.6-12,25c-0.1,1,0,1.8,0,2c0.1,2,0.8,7.3,6.5,14.5c4.3,5.5,8.8,8.7,12,11
	c3.3,2.3,4.2,2.5,13.8,8.7c4.5,2.9,5.2,3.4,5.7,3.8c3,2.3,7.6,5.7,10,11c0.8,1.8,2,5.1,2,12c0,5,0,14.6-5,25
	c-5.3,11.1-13.3,17.4-21.2,22.8c-15.4,10.5-20.1,9.3-23.2,16.1c-1.8,3.8-1.4,11.6-0.6,27.1c0.5,10.1,1.1,12.8-1,16
	c-3.1,4.8-7.4,4.1-18,9c-12.8,5.9-13.4,10.2-23,13c-8.5,2.5-8.9-1.1-19,1c-11.8,2.4-12.7,6.9-23,8c-6.5,0.7-11.9-0.6-18-2
	c-12.8-3-18.3-7.5-21-5c-2.2,2,1,5.3,0,13c-1,8.2-5.1,9-6,17c-0.4,3.1,0.4,6.7,2,14c2,9.4,3.1,14.1,6,17c3.4,3.4,5.2,1.8,12,6
	c4.4,2.7,10.6,6.6,11,12c0.3,3.8-2.7,3.8-5,11c0,0-0.6,2-2,14c4.6,6.7,9.4,10.1,13,12c5.8,3,9.4,2.7,11,6c2.1,4.5-3.2,8.3-2,15
	c0.6,3.5,2.6,5.4,7,10c10.2,10.5,15.7,16.2,19,20c6.6,7.8,4.3,8.3,12,19c3.3,4.6,11.5,15.4,24,25c13.1,10.1,13.7,5.6,24,14
	c14,11.4,16.5,22.4,31,37c5.4,5.4,10,10,10,10c8.2,8.2,8.1,7.9,9,9c8.1,9.5,10,18.5,12,18c1.9-0.4,0.6-8.2,3-9c2.3-0.7,4.1,6.2,9,8
	c8.7,3.3,26.6-9.5,33-26c1.9-4.9,3.3-11.3,9-19c5.4-7.2,8.3-7.1,9-7c4.1,0.4,3.7,6.4,10,11c5.8,4.3,9,1.4,16,6c5.3,3.5,3.9,5.6,9,9
	c3.9,2.6,9,3.5,19,5c12,1.8,13,1,17,3c6.4,3.2,7.6,7.4,11,7c4.4-0.5,6.4-7.7,9-14c4-9.7,10.6-17.8,24-34c0,0,2-2.4,23-25
	c8.9,1.4,22.2,2.7,38,1c79-8.6,124.5-82.2,133-96c8.7-14.1,20.7-33.9,25-63c4.5-30.5-1.6-55.4-6-69c-1.9,2.7-5.1,6.5-10,10
	c-1.7,1.2-5.9,4-12,6c-9.1,3-11.6,0.7-16,4c-3.9,2.9-2.4,5.1-7,10c-3,3.2-6.3,4.8-13,8c-8,3.9-12,5.8-16,5c-3.1-0.6-3-1.8-10-6
	c-7.6-4.6-11.4-6.9-15-6c-5.1,1.2-5.5,6.7-10,7c-3.1,0.2-5.6-2.3-9-6c-5.3-5.7-8.5-11.8-11-18c-2.2-5.3-2.6-7.4-5-15
	c-4.9-15.4-7.4-23.1-12-31c-2.8-4.8-6.3-9.5-11-16c-6.5-8.9-8-10-9-14c-1.3-5.2,0.6-6,0-18c0-0.9-0.4-4.3-1-11
	c-0.9-9.8-1.1-11.1-2-13c-2-4.5-3.9-3.9-7-9c-3.5-5.7-1.7-7.2-5-14c-3-6.1-6.9-9.9-9-12c-5.2-5-7.3-3.8-11-8c-3.1-3.5-7.3-10.5-5-15
	c2.1-4,7.6-2.8,10-7c1.8-3.2-1.6-4.7-1-11c0.5-6.1,4.1-12.3,4-12c5.3-1.6,12.2-4.6,17-11c5.2-6.9,3.6-11.8,9-16
	c5.8-4.5,9.7-0.3,20-5c8.5-3.9,12.2-9.7,13-11c2.1-3.4,4.7-9.6,3-11c-2.6-2.1-10.6,10.6-26,13c-2,0.3-11,1.5-20-3
	c-3.8-1.9-6.5-4.6-12-10c-3.4-3.3-8.4-8.3-14-16c-9.3-12.8-7.5-15.4-13-20c-6.9-5.8-12.1-3.7-24-7c-18.2-5-15.7-12.4-34-19
	c-16.9-6.1-18.3,0.4-42-6c-3.8-1-10.3-2.9-18-1c-5.7,1.4-7.4,3.8-13,7c-12.6,7.3-18.5,3.9-34,10c-12.9,5.1-16.6,6.4-18,10
	c-0.3,0.8-0.3,1.2,0,12c0.3,10.3,0.3,11.5,0,14c-0.6,4.2-2,10-2,10c-0.7,4.3-1.3,8.7-2,13c-6.3,3.7-12.7,7.3-19,11
	c-4.5,1.6-10.9,4.7-16,11C467.6,239.9,467.8,240.8,464,248z"/>
    
<path id="sensa" title="Sensa" class="land" d="M500.1,335.5c1.6,12.1-5,25-5,25c0,0-8.8,12.2-20.8,23c-7.1,6.4-10.9,9.2-12.9,10.8c-7.3,5.6-9,6-10.9,10.2
	c-6.5,15,6.8,27.6-1,38c-2.7,3.6-4.8,2.7-17.8,9c-12.8,6.2-14.8,8.9-22.8,13c-15.6,7.9-30,8.5-41.6,9c-18.9,0.8-32.3,1.4-38.6-7
	c-5.2-6.8,0-12.1-6.4-25.5c-2.2-4.6-6-8.9-12.9-18c-5.3-6.9-9.8-11.7-12.9-15c-11.1-11.7-21.1-19.1-23.8-21
	c-12.2-8.9-18.3-13.3-25.8-15c-11.4-2.6-16.3,1.1-26.8-4c-5.8-2.8-7.9-5.7-11.9-5c-6.5,1.2-5.8,10-12.9,13c-8,3.5-12.7-6.5-26.8-7
	c-2.2-0.1-8.5-0.1-13.4-4.5c-0.2-0.2-0.3-0.3-0.5-0.5c-5.5-5.9-0.9-17.7-2-18c-0.6-0.2-1.5,3.3-4.9,6.6c-1.4,1.4-3.9,3.8-6,3.4
	c-2.4-0.5-3-4.3-5-11c-3.4-11.7-4.5-10.6-5.9-18c-1.6-8-3-14.8,0-17c4.9-3.6,17.2,7.8,19.8,5c1.3-1.4-0.7-5.5-3-10
	c-3.3-6.7-5.4-7.5-5.9-11c-1-6.1,3.8-11.7,5-13c4.5-5.1,10.8-7.5,19.8-11c5.1-1.9,7.4-2.4,8.9-5c2-3.3,1.6-8.5-1-12
	c-4.6-6.2-13.5-3.1-15.9-8c-1.5-3,1.2-5.6,4-13c2.1-5.5,2.7-11.7,4-24c1.4-13.2,2.1-19.8,1-22c-6.2-12.6-28.1-7-32.7-18
	c-4.1-9.9,9.9-23,5.9-27c-3.1-3.2-11.4,5.3-19.8,2c-7.8-3.1-5.6-12.3-14.9-20c-9.6-8.1-17.6-2.8-21.8-9c-6.7-10,13.4-24.8,7.9-44
	C89.4,59.9,82,57.3,82.4,47c0.1-3,0.9-6.8,6.9-16C100.9,13.2,107.6,2.9,117,3c10.9,0.1,20.8,14.1,24.8,23c3.8,8.5,2.9,14.2,8.9,19
	c5.5,4.5,9.8,2.4,13.9,7c4.9,5.5,0.8,10.8,4,19c4.8,12.3,21.9,21.7,32.7,18c5.7-2,9.3-7.6,12.9-6c0.8,0.3,1.9,2.3,4.2,6.3
	c1.9,3.2,3.3,6,6.7,7.7c5.1,2.5,10.3,1.8,12.9,2c9,0.8,16,16.1,21.7,28.8c0,0.1,0.1,0.1,0.1,0.2c10.3,22.8,42.5,56.9,52.5,51
	c3-1.8,0.5-5,5-22c2.5-9.5,3.3-8.8,5.9-19c3.3-12.6,2.7-16,5.9-18c6-3.6,16.6,3.1,17.8,4c7.6,4.9,7.9,9.9,13.9,11
	c5.1,0.9,9.7-1.7,11.9-3c7-4,6.3-8.5,10.9-10c5.5-1.8,11.6,2.9,21.8,11c11.8,9.4,9.5,10.5,15.9,14c12.3,6.7,23.4,3.6,25.8,10
	c0.8,2.1,0.9,5.8,4.1,9.9c0.1,0.1,1,1.3,1.9,2.1c5.4,5,19.3,1.8,22.8,1c22.4-5.2,27.2-7.6,31.2-4.5c2.6,2,3.2,5.5,4.3,12.5
	c1.8,11.1-0.7,19.7-2,24c-1.9,6.2-2.9,9.7-6.3,12.5c-2.4,2-3.8,2.1-11,5.5c-2.4,1.1-5.4,2.7-9.3,5c-2.9,1.7-9.2,4.8-14.5,11.5
	c-0.8,0.9-1.3,1.5-1.4,1.5c-1.7,2.4-4,5.8-6.1,10.2c-0.3,0.7-1.3,2.7-2.2,4.8c-1.2,2.8-4.2,10.5-4.2,20c0,6.7,0,11.7,3.1,16.5
	c4,6.3,8.2,5.9,20.4,13.8c3.1,2,6.5,4.9,10.3,9.2C492.4,317.5,498.6,324.6,500.1,335.5z"/>
    </g>
</svg>
