 <!-- Created with Method Draw - http://github.com/duopixel/Method-Draw/ -->
<svg version="1.1" id="Layer_1" xmlns="http://www.w3.org/2000/svg" xmlns:amcharts="http://amcharts.com/ammap" xmlns:xlink="http://www.w3.org/1999/xlink" x="0px" y="0px"
	 width="1024px" height="768px" viewBox="0 0 1024 768" style="enable-background:new 0 0 1024 768;" xml:space="preserve">
    <defs>
    <amcharts:ammap projection="mercator" leftLongitude="73.443604" topLatitude="75.19043" rightLongitude="74.245605" bottomLatitude="74.4104"></amcharts:ammap>
    </defs>
 <g>
  <path id="dadyal" title="Dadyal" class="land" d="m245.666697,16.666647c0,0 23.33332,3.999998 22.999815,3.333341c0.333505,0.666657 37.000151,33.333306 36.666645,32.666648c0.333506,0.666658 1.000172,14.66665 0.666667,13.999992c0.333505,0.666658 -0.999827,17.999981 -1.333333,17.333324c0.333506,0.666657 13.000165,13.999983 12.66666,13.333325c0.333505,0.666658 -11.666488,7.333321 -11.999994,6.666663c0.333506,0.666658 -10.333155,11.333319 -10.66666,10.666661c0.333505,0.666658 -7.66649,6.666654 -7.999995,5.999996c0.333505,0.666658 -10.999822,-2.666673 -11.333327,-3.333331c0.333505,0.666658 -10.333156,9.999986 -10.666661,9.333328c0.333505,0.666658 -13.666487,13.999984 -13.999992,13.333325c0.333505,0.666659 -2.999826,38.666638 -3.333331,37.999978c0.333505,0.66666 -0.999828,21.333315 -1.333333,20.666655c0.333505,0.66666 -25.66648,-24.666659 -25.999985,-25.333319c0.333505,0.66666 1.666837,-17.33333 1.333333,-17.999989c0.333504,0.666659 -2.999827,-12.666667 -2.999827,-12.666667c0,0 -2.666666,-25.999986 -3.00017,-26.666644c0.333504,0.666658 -5.666492,-12.000001 -5.999996,-12.666659c0.333504,0.666658 -12.999822,-7.333338 -13.333326,-7.999996c0.333504,0.666658 -3.666494,-14.666666 -3.999998,-15.333324c0.333504,0.666658 5.666835,-14.666667 5.333331,-15.333325c0.333504,0.666658 13.000163,-15.333333 12.666659,-15.99999c0.333504,0.666657 -2.333161,-12.666669 -2.666665,-13.333326l38.333483,-18.666666z" />
  <path id="mangla" title="Mangla-Reservior" class="land" d="m208.333384,36.666636l1.666495,11.333336l-13.333326,17.333324l-5.33333,15.99999l4.666664,13.999992l11.999993,7.33333l9.333328,15.99999l3.333332,36.666646l-0.666667,17.999989l25.999985,24.666653l3.999998,-59.333299l26.666651,-21.333321l9.999995,3.999997l19.333322,-18.666655l11.333327,-5.999997l-13.333326,21.999987l4.666664,43.999975l-12.666659,15.999991l-32.666648,9.333328l0,9.999994l39.999977,-14.666658l30.666649,20.666654l2.666665,10.666661l-7.333329,17.99999l37.333311,17.333323c0.333507,0.66666 9.666835,19.333316 9.666835,19.333316c0,0 -14.666658,11.333327 -15.000165,10.666667c0.333507,0.66666 -18.33315,-6.000003 -18.999816,-6.000003c-0.666666,0 -3.999998,-22.666654 -4.333504,-23.333314c0.333506,0.66666 -27.666478,-19.333328 -27.999984,-19.999988c0.333506,0.66666 -27.666478,3.999991 -27.999983,3.333331c0.333505,0.66666 -2.999827,-25.333325 -3.333332,-25.999985c0.333505,0.66666 -14.333153,1.333326 -14.666658,0.666666c0.333505,0.66666 9.000167,39.999971 8.666662,39.333311c0.333505,0.66666 -23.666482,12.666654 -23.999987,11.999993c0.333505,0.666661 -22.333149,-2.000005 -22.666653,-2.666665c0.333504,0.66666 17.666828,-47.333313 17.333323,-47.999972c0.333505,0.666659 -30.333145,-31.333323 -30.666649,-31.999982c0.333504,0.666659 -5.666492,-67.333303 -5.999996,-67.999961c0.333504,0.666658 -19.666485,-14 -19.999989,-14.666658c0.333504,0.666658 1.00017,-31.99999 0.666666,-32.666648c0.333504,0.666658 7.000167,-13.333335 21.000159,-25.333328z" />
  <path id="mirpurthesil" title="Mirpur" class="land" d="m264.333353,208.66654l14.333153,-1.333326l3.999998,25.999985l28.66665,-3.999998l27.333318,20.666655c0.333506,0.66666 4.333503,23.333314 4.333503,23.333314c0,0 17.99999,7.333329 17.666484,6.666669c0.333506,0.66666 15.666831,-11.333333 15.333324,-11.999993c0.333507,0.66666 -10.333154,-17.33333 -10.66666,-17.99999c0.333506,0.66666 -36.33314,-16.666663 -36.666646,-17.333323c0.333506,0.66666 7.666835,-17.33333 7.333329,-17.99999c0.333506,0.66666 -2.333159,-11.333334 -2.666665,-11.999993c0.333506,0.666659 -30.333143,-19.333329 -30.666649,-19.999989c0.333506,0.66666 -39.666472,15.999984 -39.999977,15.333325c0.333505,0.666659 0.333505,-10.000001 0,-10.666661c0.333505,0.66666 35.000152,-9.333335 34.666647,-9.999994c0.333505,0.666659 11.666832,-15.333332 11.333327,-15.999991c0.333505,0.666659 -4.333159,-41.999983 -4.666664,-42.666642c0.333505,0.666659 7.000168,-10.666668 6.666663,-11.333326c0.333505,0.666658 9.000167,3.333323 8.666661,2.666665c0.333506,0.666658 67.000135,77.333281 67.000135,77.333281c0,0 14.666659,16.666658 14.333152,15.999998c0.333507,0.66666 -0.33316,13.999986 -0.666666,13.333326c0.333506,0.66666 3.000172,16.666651 2.666665,15.999991c0.333507,0.66666 -7.666489,11.33332 -8.333155,11.33332c-0.666666,0 -15.999991,7.999996 -16.333498,7.333336c0.333507,0.66666 6.333503,12.666653 5.999997,11.999993c0.333506,0.66666 -6.333156,13.999986 -6.333156,14.666652c0,0.666666 -11.333327,9.999995 -11.666834,9.333334c0.333507,0.666661 9.000168,18.66665 9.000168,18.66665c0,0 5.999997,9.333329 5.66649,8.666667c0.333507,0.666662 -24.999812,34.666642 -25.333318,33.999981c0.333506,0.666661 -0.999827,7.333324 -4.666664,12.666659c0.333506,0.666662 -5.666491,22.66665 -5.999997,21.999988c0.333506,0.666662 -8.333156,5.333326 -8.666662,4.666664c0.333506,0.666662 -12.333153,1.333328 -12.333153,1.333328c0,0 -11.999993,-15.333325 -12.333499,-15.999987c0.333506,0.666662 -2.33316,-15.333329 -2.33316,-15.333329c0,0 -12.666659,-33.999981 -13.000164,-34.666642c0.333505,0.666661 -20.33315,-12.666665 -20.33315,-12.666665c0,0 -33.333315,-5.999996 -33.333315,-5.999996c0,0 -16.666657,-17.333324 -16.666657,-17.333324c0,0 -0.666666,-17.99999 -0.666666,-17.99999c0,0 1.333332,-12.666659 0.999828,-13.333319c0.333504,0.66666 22.333492,5.333324 21.999987,4.666664c0.333505,0.66666 25.000158,-12 24.666653,-12.66666c0.333505,0.66666 -4.333159,-15.333331 -8.333157,-39.333317z" />
 </g>
</svg>