<svg version="1.1" id="Layer_1" xmlns="http://www.w3.org/2000/svg" xmlns:amcharts="http://amcharts.com/ammap" xmlns:xlink="http://www.w3.org/1999/xlink" x="0px" y="0px"
	 width="1024px" height="768px" viewBox="0 0 1024 768" style="enable-background:new 0 0 1024 768;" xml:space="preserve">
    <defs>
    <amcharts:ammap projection="mercator" leftLongitude="73.443604" topLatitude="75.19043" rightLongitude="74.245605" bottomLatitude="74.4104"></amcharts:ammap>
    </defs>
    <g>
        <path id="muzaffarabadtehsil" title="Muzaffarabad" class="land" d="m624.478797,122.239379c0,0 -32.638161,-8.829968 -32.638161,-8.829968c0,0 -3.496946,4.414984 -5.828243,5.297981c-2.331297,0.882997 -25.64427,-7.946971 -25.64427,-7.946971c0,0 -8.15954,-17.659936 -8.15954,-17.659936c0,0 -11.656486,-0.882997 -12.82211,-0.883002c1.165624,0.000005 -6.993916,6.180983 -8.159565,6.180983c-1.165649,0 -15.153432,-21.191924 -15.153432,-21.191924c0,0 -8.159541,-16.776939 -8.159541,-16.776939c0,0 -10.490837,3.531987 -10.490837,3.531987c0,0 -22.147323,-23.840913 -22.147323,-23.840913c0,0 -33.80381,-10.595962 -34.969459,-10.595962c-1.165649,0 -19.816026,3.531988 -19.816026,3.531988c0,0 -11.656486,-7.063975 -12.822134,-7.063975c-1.165649,0 -27.975567,23.840914 -27.975567,23.840914c0,0 -31.472512,-3.531987 -34.969458,-2.64899c-3.496946,0.882997 -24.478622,2.64899 -24.478622,2.64899c0,0 -25.644269,0 -26.809918,0c-1.165649,0 -8.15954,18.542933 -6.993892,18.542933c1.165649,0 -1.165649,33.553879 -1.165649,33.553879c0,0 -12.822134,21.191923 -12.822134,21.191923c0,0 5.828243,32.670882 5.828243,32.670882c0,0 -4.662594,22.957918 -5.828214,22.957911c1.165619,0.000006 -9.325218,33.553884 -9.325218,33.553884c0,0 1.165649,30.904889 1.165649,31.787885c0,0.882997 -4.662594,32.670882 -4.662594,32.670882c0,0 -4.662596,21.191923 -4.662596,21.191923c0,0 -20.981675,22.074921 -20.981675,22.074921c0,0 2.331297,19.425929 2.331297,19.425929c0,0 4.662594,15.893942 3.496976,18.542924c1.165618,0.000009 22.147294,7.063983 22.147294,7.063983c0,0 2.331297,18.542934 2.331297,18.542934c0,0 13.987783,15.010945 12.822164,10.595952c1.165619,0.00001 4.662565,22.957927 3.496946,23.840913c1.165619,0.000011 11.656457,14.127959 11.656457,14.127959c0,0 0,24.72391 0,24.72391c0,0 26.809918,-15.893942 25.644298,-19.42594c1.165619,0.000011 6.993864,17.659946 6.993864,17.659946c0,0 -19.816027,32.670882 -18.650349,29.138884c1.165619,0.000011 5.828214,31.787897 5.828214,31.787897c0,0 18.650379,38.851859 18.650379,38.851859c0,0 -5.828243,44.149841 -5.828243,44.149841c0,0 -1.165649,22.957918 -1.165649,22.957918c0,0 3.496946,41.50085 3.496946,41.50085c0,0 0,37.085866 -1.165621,37.08585c1.165621,0.000016 31.472484,-10.595947 31.472484,-10.595947c0,0 -1.165649,-22.07492 -1.165649,-21.191923c0,0.882997 15.153432,-4.414984 13.987811,-4.414999c1.165621,0.000015 4.662566,30.904903 4.662566,30.904903c0,0 2.331297,12.361956 2.331297,12.361956c0,0 11.656184,0.882939 20.981676,2.64899c97.917669,107.729115 152.700802,30.905923 125.890075,-0.883013c17.485236,28.256833 -15.153456,-21.191908 -15.153456,-21.191908c0,0 -20.981676,-44.149841 -20.981676,-44.149841c0,0 -1.165649,-31.787885 -1.165649,-32.670881c0,-0.882997 -17.484729,-35.319873 -17.484729,-36.202869c0,-0.882997 -5.828243,-17.659936 -5.828243,-18.542933c0,-0.882997 5.828243,-13.244953 5.828243,-13.244953c0,0 34.969458,21.191924 34.969458,21.191924c0,0 19.816027,7.063974 19.816027,7.063974c0,0 41.963349,-25.606908 40.797725,-25.60692c1.165624,0.000012 23.312948,-36.202856 23.312948,-36.202856c0,0 24.47862,-12.361956 24.47862,-12.361956c0,0 8.15954,-26.489904 8.15954,-28.255897c0,-1.765994 -15.153432,-30.904889 -16.319057,-30.904899c1.165625,0.000011 3.496922,-60.043772 3.496922,-60.043772c0,0 18.650377,-30.021892 18.650377,-30.021892c0,0 1.165649,-47.681828 1.165649,-47.681828c0,0 -11.656486,-7.063974 -11.656486,-7.063974c0,0 -20.981675,-15.893942 -20.981675,-15.893942c0,0 4.662594,-36.202869 4.662594,-36.202869c0,0 2.331297,-19.42593 1.165649,-20.308927c-1.165649,-0.882997 -13.987783,-14.127949 -13.987783,-15.010945c0,-0.882997 30.306863,-32.670882 29.141238,-32.670888c1.165625,0.000005 2.331274,-28.255892 2.331274,-29.138889c0,-0.882997 5.828243,-22.074921 5.828243,-22.074921z" />
  <path id="hattian" title="Hattian" class="land" d="m568.957914,585.909132c-1.851134,0 -12.957936,11.454551 -12.957936,11.454551c0,0 31.469272,74.454585 31.469272,74.454585c0,0 -3.702267,30.545471 -3.702267,32.454563c0,1.909092 27.767004,64.909125 27.767004,64.909125c0,0 24.064737,21.000011 24.064737,21.000011c0,0 33.320406,38.181839 35.171539,38.181839c1.851134,0 37.022673,-5.727276 37.022673,-5.727276c0,0 35.171539,-3.818184 35.171539,-3.818184c0,0 33.320406,15.272736 33.320406,15.272736c0,0 27.767005,-15.272736 27.767005,-15.272736c0,0 57.385143,32.454563 57.385143,32.454563c0,0 -1.851134,36.272747 -3.701984,35.318443c1.85085,0.954304 24.064454,37.227051 24.064454,37.227051c0,0 27.767004,-1.909093 27.767004,-1.909093c0,0 53.682876,19.090919 53.682876,19.090919c0,0 22.213605,-3.818184 22.213605,-3.818184c0,0 9.255668,-36.272747 9.255668,-36.272747c0,0 -27.767004,-53.454573 -29.618139,-53.454573c-1.851134,0 -35.171539,-66.818218 -35.171539,-68.72731c0,-1.909092 -5.553401,-63.000033 -5.553401,-63.000033c0,0 96.25895,-45.818207 96.25895,-45.818207c0,0 61.087411,-17.181827 61.087411,-17.181827c0,0 -7.404535,-19.090919 -9.255393,-20.045213c1.850858,0.954293 14.808794,-73.500292 14.808794,-73.500292c0,0 31.469272,1.909092 31.469272,1.909092c0,0 9.255668,-51.545481 9.255668,-51.545481c0,0 -42.576074,-53.454574 -44.427207,-53.454574c-1.851134,0 -87.003282,-53.454574 -87.003282,-53.454574c0,0 -14.809069,7.636367 -14.809069,7.636367c0,0 -7.404534,-22.909103 -7.404534,-22.909103c0,0 -14.809069,-7.636367 -16.660203,-7.636367c-1.851134,0 -101.812351,-34.363655 -101.812351,-34.363655c0,0 -61.08741,-1.909092 -61.08741,-1.909092c0,0 -5.553401,-15.272736 -5.553401,-15.272736c0,0 -18.511336,-5.727275 -18.511336,-5.727275c0,0 -3.702267,-11.454552 -3.702267,-11.454552c0,0 -18.511336,1.909092 -18.511336,1.909092c0,0 -9.255669,32.454563 -11.106513,31.50028c1.850845,0.954283 12.957647,20.045202 12.957647,20.045202c0,0 -7.404535,34.363655 -7.404535,34.363655c0,0 -3.702267,36.272747 -3.702267,36.272747c0,0 -1.851134,22.909103 -1.851134,22.909103c0,0 11.106802,34.363655 11.106802,34.363655c0,0 -11.106802,45.818206 -11.106802,45.818206c0,0 -31.469272,17.181827 -31.469272,17.181827c0,0 -24.064737,42.000022 -25.91558,41.045731c1.850843,0.954292 -46.278632,23.863394 -46.278632,23.863394c0,0 -38.873807,-3.818184 -38.873807,-5.727275c0,-1.909092 -24.064737,-28.636378 -25.915871,-28.636378z" />
 </g>
</svg>