<svg version="1.1" id="Layer_1" xmlns="http://www.w3.org/2000/svg" xmlns:amcharts="http://amcharts.com/ammap" xmlns:xlink="http://www.w3.org/1999/xlink" x="0px" y="0px"
	 width="1024px" height="768px" viewBox="0 0 1024 768" style="enable-background:new 0 0 1024 768;" xml:space="preserve">
    <defs>
    <amcharts:ammap projection="mercator" leftLongitude="73.443604" topLatitude="75.19043" rightLongitude="74.245605" bottomLatitude="74.4104"></amcharts:ammap>
    </defs>
 <g>
  <path id="rawalakot" title="Rawalakot" class="land" d="m411.5,411c0,0 23,-21 23,-21c0,0 17,4 19,4c2,0 12,-3 12,-3c0,0 24,-6 24,-6c0,0 12,-16 12,-16c0,0 26,-4 25.5,-4c0.5,0 -3.5,-21 -4,-21c0.5,0 21.5,-8 21.5,-8c0,0 26,-28 26,-28c0,0 36,-7 36,-7c0,0 5,-31 5,-31c0,0 -7,-22 -7,-22c0,0 2,-16 2,-16c0,0 -38,-16 -39,-16c-1,0 -24,7 -24.5,7c0.5,0 -55.5,-20 -55.5,-19c0,1 -9,23 -9,23c0,0 1,15 0,16c-1,1 -17,9 -17,9c0,0 -26,-11 -26,-11c0,0 -23,2 -23,2c0,0 -7,-12 -7,-12c0,0 -26,11 -26.5,11c0.5,0 -27.5,-17 -27.5,-17c0,0 13,-22 13,-22c0,0 -6,-18 -6,-18c0,0 -37,8 -37,8c0,0 -30,-34 -31,-35c-1,-1 -21,-10 -21,-10c0,0 -7,-22 -7,-22c0,0 -7,-6 -7.5,-6c0.5,0 3.5,-15 3.5,-15c0,0 -41,-22 -41,-22c0,0 -18,10 -18.5,10c0.5,0 -18.5,13 -19,13c0.5,0 -7.5,25 -7.5,25c0,0 -7,29 -7,29c0,0 -12,8 -12.5,8c0.5,0 2.5,23 2.5,23c0,0 -9,-6 -9,-6c0,0 -8,9 -8,9c0,0 -8,-7 -8,-7c0,0 -4,11 -4,11c0,0 23,43 23,43c0,0 -8,25 -8,25c0,0 -9,33 -9,33c0,0 -8,29 -8,29c0,0 -7,18 -7.5,18c0.5,0 26.5,-1 26.5,0c0,1 18,9 18,9c0,0 23,-16 23,-16c0,0 39,-4 40,-3c1,1 27,5 26.5,5c0.5,0 21.5,24 21.5,24c0,0 37,14 38,14c1,0 32,7 31.5,7c0.5,0 23.5,15 23.5,15c0,0 11,15 11,15c0,0 21,-10 20.5,-10c0.5,0 14.5,5 14.5,5z"/>
  <path id="hahira" title="Hajira" class="land" d="m412.5,411c0,0 20,-23 20,-23c0,0 22,5 22,5c0,0 35,-8 35,-8c0,0 13,-17 13,-17c0,0 24,-1 24,-1c0,0 -3,-26 -3,-26c0,0 23,-4 23,-4c0,0 24,-31 24,-31c0,0 38,-6 38,-6c0,0 13,15 13,15c0,0 0,15 0,15c0,0 8,24 8,24c0,0 3,20 2.5,20c0.5,0 12.5,3 12.5,3c0,0 17,25 17,25c0,0 24,11 24,11c0,0 30,12 30,12c0,0 16,19 15.5,19c0.5,0 -3.5,19 -3.5,19c0,0 1,34 1,34c0,0 3,18 3,18c0,0 -12,21 -13,21c-1,0 -26,15 -26,15c0,0 -9,23 -9,23c0,0 6,26 5.5,26c0.5,0 2.5,36 2.5,36c0,0 6,14 5.5,14c0.5,0 -0.5,22 -0.5,22c0,0 16,34 16,34c0,0 16,8 16,8c0,0 23,32 22.5,32c0.5,0 -24.5,-4 -26.5,-5c-2,-1 -31,-22 -33,-22c-2,0 -29,-3 -29,-3c0,0 -12,-12 -12,-12c0,0 -11,5 -11,5c0,0 -17,-2 -17,-2c0,0 -16,19 -17,19c-1,0 -27,5 -27,5c0,0 -11,-30 -11,-30c0,0 33,-16 33,-16c0,0 -3,-19 -3,-19c0,0 10,-6 10,-5c0,1 -6,-16 -6,-16c0,0 16,2 15.5,2c0.5,0 19.5,-2 19,-2c0.5,0 19.5,-15 19.5,-15c0,0 -36,-33 -36,-33c0,0 -7,-17 -7,-17c0,0 -17,-13 -17,-13c0,0 -25,-5 -25,-4c0,1 -9,10 -10,10c-1,0 -12,-42 -12,-42c0,0 11,-24 11,-25c0,-1 -20,-27 -20,-27c0,0 -32,1 -32,1c0,0 -7,7 -8,7c-1,0 -16,11 -19,11c-3,0 -25,-14 -25.5,-14c0.5,0 -16.5,-30 -16.5,-31c0,-1 -19,-29 -19,-29c0,0 -7,-13 -7,-13z"/>
  <path id="abbaspur" title="Abbaspur" class="land" d="m610.5,232c-3,14 -4,15 -4,15c0,0 7,18 7,18c0,0 -4,34 -4,34c0,0 12,20 12.5,20c0.5,0 0.5,12 0.5,12c0,0 8,24 8,24c0,0 4,18 4,18c0,0 11,3 11,3c0,0 14,23 14,23c0,0 53,26 53,26c0,0 21,17 21,17c0,0 25,-25 25,-25c0,0 20,-30 20,-30c0,0 7,-2 7,-3c0,-1 -13,-9 -13.5,-9c0.5,0 -0.5,-25 -1,-25c0.5,0 -20.5,-23 -21,-23c0.5,0 -8.5,-26 -7.5,-26c1,0 -13,-6 -13,-6c0,0 -6,-17 -6,-17c0,0 4,-13 4,-15c0,-2 0,-24 0,-24c0,0 -14,-18 -14,-19c0,-1 -20,-28 -20,-28c0,0 -17,-6 -17,-6c0,0 -7,9 -7,9c0,0 -17,13 -18,13c-1,0 -22,20 -22,22c0,2 -6,7 -19,2z"/>
 </g>
</svg>