<svg version="1.1" id="Layer_1" xmlns="http://www.w3.org/2000/svg" xmlns:amcharts="http://amcharts.com/ammap" xmlns:xlink="http://www.w3.org/1999/xlink" x="0px" y="0px"
	 width="1024px" height="768px" viewBox="0 0 1024 768" style="enable-background:new 0 0 1024 768;" xml:space="preserve">
    <defs>
    <amcharts:ammap projection="mercator" leftLongitude="73.443604" topLatitude="75.19043" rightLongitude="74.245605" bottomLatitude="74.4104"></amcharts:ammap>
    </defs>
    <g>
  <path id="centralsrinagar" title="Central Srinagar" class="land" d="m330.9991,339.9991c-0.49999,0 -0.99999,-10.49997 -0.99999,-10.49997c0,0 20.99994,-2.5 20.49994,-2.5c-0.5,0 -15.49996,-4.49999 -15.49996,-4.49999c0,0 1,-10.99997 1,-10.99997c0,0 -9.99997,-1.99999 -9.99997,-2.49999c0,-0.5 -9.49998,-8.49998 -9.49998,-8.49998c0,0 2,-3.49999 2,-3.49999c0,0 -7.99998,-18.49995 -7.99998,-18.49995c0,0 -12.99997,3.49999 -13.49995,3.49999c0.49998,0 -11.49998,-1.99999 -11.49998,-1.99999c0,0 -9.99998,-8.99998 -9.99998,-8.99998c0,0 -9.49997,-4.49999 -9.49997,-4.49999c0,0 -22.49994,3.99999 -22.49994,3.99999c0,0 -23.49994,-1.99999 -23.49994,-1.99999c0,0 -17.49995,-7.99998 -17.49995,-8.49998c0,-0.5 -4.99999,-5.49999 -5.49997,-5.49999c0.49998,0 -17.99997,15.49996 -17.99997,15.49996c0,0 -8.49998,5.49999 -8.49998,5.49999c0,0 -15.49996,-1 -15.99994,-1c0.49998,0 -4.00001,-4.99999 -4.00001,-4.99999c0,0 -1.49999,-11.49996 -1.99998,-11.49997c0.49999,0.00001 -14.99997,-5.49998 -14.99997,-5.49998c0,0 -14.49996,-6.49998 -14.49996,-6.49998c0,0 -4.49999,1.99999 -8.49996,2.99999c0.49998,0 -0.00002,6.49998 -0.00002,6.49998c0,0 -7.49998,-3.49999 -7.49998,-3.49999c0,0 -7.99998,3.99999 -7.99998,3.99999c0,0 -8.49998,0.5 -8.99998,0.5c-0.49999,0 -8.99997,2.49999 -9.49997,2.99999c-0.5,0.5 -6.99998,4.99999 -8.49998,4.49999c-1.49999,-0.5 -8.99997,0.5 -9.49996,0.5c0.49999,0 -2.50001,7.99998 -2.50001,7.99998c0,0 4.99999,13.49996 4.99999,13.49996c0,0 1,11.99997 1,11.99997c0,0 9.49997,-1 9.49997,-1c0,0 16.49996,-0.5 16.49996,-0.5c0,0 10.49997,-6.49998 10.49997,-6.49998c0,0 7.49998,2.49999 7,2.49999c0.49998,0 8.99996,3.99999 8.99996,3.99999c0,0 9.99997,-3.49999 9.99997,-3.49999c0,0 8.49998,1.5 8.49998,1.5c0,0 8.99998,5.49998 8.49998,5.49998c-0.5,0 -1.5,5.49999 -1.5,5.49999c0,0 0,8.49998 0,8.49998c0,0 4.99999,6.99998 4.99999,6.99998c0,0 25.49993,3.49999 24.99995,3.49999c0.49998,0 7.49996,3.49999 7.49996,3.49999c0,0 26.49993,1 26.49993,0.5c0,-0.5 7.99998,-6.49998 7.5,-6.49999c0.49998,0.00001 21.49992,-0.99999 21.49992,-0.99999c0,0 24.99994,-6.49998 24.99994,-6.49998c0,0 15.49996,0.99999 15.49996,0.99999c0,0 10.99997,6.49999 10.99997,6.99998c0,0.5 11.49997,9.99998 11.49997,9.99998c0,0 13.99996,4.49999 13.49998,4.49998c0.49998,0.00001 10.99995,3.5 10.49997,3.49999c0.49998,0.00001 11.49995,-0.49999 10.99995,-0.49999z" />
  <path id="channapora" title="Channapora/Natiapora" class="land" d="m349.499055,351.499067c0,0 -16.499956,1.499996 -16.999955,1.499996c-0.499999,0 -14.499962,-2.999992 -14.499962,-2.999992c0,0 -0.999997,-10.499972 -0.999997,-9.999973c0,0.499999 14.499962,0 14.499962,0c0,0 10.999971,2.499993 10.499987,2.499991c0.499984,0.000003 10.999956,8.49998 10.499972,8.499977c0.499984,0.000003 4.999972,-5.499982 4.999972,-5.499982c0,0 11.499969,-2.999992 11.499969,-2.999992c0,0 7.49998,-5.499985 6.999996,-5.499988c0.499985,0.000003 -6.999996,-8.999973 -6.999996,-8.999973c0,0 -5.499985,-3.999989 -5.99997,-3.999992c0.499984,0.000003 5.499971,-4.999984 5.499971,-4.999984c0,0 19.499948,6.499983 19.499948,6.499983c0,0 4.999987,-3.999989 4.999987,-3.999989c0,0 9.499975,8.499977 8.99999,8.499975c0.499985,0.000003 9.99996,1.499999 9.99996,1.499999c0,0 3.499991,-6.999981 3.000006,-6.999984c0.499985,0.000003 7.499966,-3.499988 7.499966,-3.499988c0,0 4.499988,2.499993 4.499988,2.499993c0,0 -3.499991,4.499988 -3.999976,4.499985c0.499985,0.000003 7.499966,6.999984 6.999981,6.999981c0.499985,0.000003 -3.500004,7.999982 -3.999989,7.999979c0.499985,0.000003 -12.999979,10.999974 -12.999979,10.999974c0,0 -1.499996,4.499988 -1.499996,4.499988c0,0 6.999981,2.499993 6.999981,2.499993c0,0 6.999981,8.499977 6.999981,8.499977c0,0 -4.499988,5.499985 -4.499988,5.499985c0,0 -9.999973,0.499999 -9.999973,0.499999c0,0 -4.999987,0.999997 -4.999987,0.999997c0,0 6.499983,11.999968 6.499983,11.999968c0,0 -3.499991,4.499988 -3.499991,4.499988c0,0 -5.499985,0 -5.499985,0c0,0 -4.999987,7.999979 -4.999987,7.999979c0,0 -16.999955,3.999989 -17.499954,3.499991c-0.499999,-0.499999 -6.499983,-1.499996 -5.999984,-1.499996c0.499999,0 3.999989,-9.499975 3.500005,-9.499978c0.499985,0.000003 -10.999985,-6.999978 -10.999985,-6.999978c0,0 -11.499969,0.499999 -11.999968,0.499999c-0.499999,0 -6.999981,-3.499991 -6.999981,-3.499991c0,0 -0.999997,-8.999976 -1.499996,-8.999976c-0.499999,0 -4.499988,-6.499983 -4.499988,-6.499983c0,0 6.499983,-9.999973 6.499983,-9.999973c0,0 3.999989,-1.499996 3.999989,-1.499996c0,0 -3.499991,-4.999987 -3.499991,-4.999987z" />
  <path id="southsrinagar" title="South" class="land" d="m352.999046,349.499073c-3.499991,1.999995 3.999989,-4.499988 3.999989,-4.499988c0,0 13.999963,-3.499991 13.499978,-3.499994c0.499984,0.000003 5.99997,-4.999984 5.99997,-4.999984c0,0 -5.999984,-8.999976 -5.999984,-8.999976c0,0 -6.499983,-3.499991 -6.499983,-3.499991c0,0 4.499988,-4.499988 4.499988,-4.499988c0,0 18.499951,5.999984 18.499951,5.999984c0,0 6.499983,-4.499988 6.499983,-3.999989c0,0.499999 7.999979,7.49998 7.999979,7.49998c0,0 10.999971,2.499993 10.499986,2.499991c0.499985,0.000003 3.499977,-7.999976 2.999992,-7.999979c0.499985,0.000003 -9.999987,-5.999981 -9.999987,-5.999981c0,0 0,-10.499972 0,-10.499972c0,0 -3.499991,-4.999987 -3.499991,-4.999987c0,0 0,-12.999966 0,-12.999966c0,0 6.499983,-7.49998 6.499983,-7.49998c0,0 7.49998,4.999987 6.999995,4.999984c0.499985,0.000002 9.499961,0.000002 8.999976,0c0.499985,0.000002 12.499953,1.499998 12.499953,1c0,-0.499999 -8.999976,-7.49998 -8.999976,-7.49998c0,0 -7.49998,-0.999997 -7.49998,-0.999997c0,0 -0.999997,-5.999984 -0.999997,-5.999984c0,0 -8.999976,-0.499999 -8.999976,-0.499999c0,0 -25.499932,-21.999942 -25.999917,-21.999944c0.499985,0.000002 -3.500005,4.49999 -3.999989,4.499988c0.499985,0.000002 -0.000014,6.499985 -0.000014,6.499985c0,0 -7.999979,5.499985 -7.999979,5.499985c0,0 1.499996,7.999979 1.000012,7.999976c0.499985,0.000002 -7.999993,0.000002 -7.999993,0.000002c0,0 -4.999987,3.999989 -4.999987,3.999989c0,0 -8.999976,-2.499993 -9.49996,-2.499996c0.499984,0.000002 7.999964,-6.49998 7.999964,-6.49998c0,0 -7.49998,-5.999984 -7.999979,-5.999984c-0.499999,0 -13.499964,2.499993 -13.499964,2.499993c0,0 -6.999981,-8.999976 -6.999981,-8.999976c0,0 -9.499975,2.999992 -9.499975,2.999992c0,0 -9.999973,4.499988 -9.999973,4.499988c0,0 -2.499993,6.499983 -2.999977,6.49998c0.499984,0.000002 2.999977,6.999984 2.499993,6.999981c0.499984,0.000002 8.999961,18.499953 8.999961,18.499953c0,0 -1.999995,3.499991 -1.999995,3.499991c0,0 8.999976,8.499977 8.999976,8.499977c0,0 9.999973,1.999995 9.999973,1.999995c0,0 -0.499999,9.499975 -0.999983,9.499972c0.499984,0.000003 14.499947,5.499988 14.499947,5.499988c0,0 -18.499951,3.499991 -18.499951,3.499991c0,0 0.499999,9.499975 0.499999,9.499975c0,0 10.499972,2.999992 10.499972,2.999992c0,0 10.999971,14.499962 10.999971,7.49998z" />
  <path id="northsrinagar" title="North" class="land" d="m399.99892,169.49955c-0.5,0 -9.99997,5.49999 -9.99997,5.49999c0,0 9.99997,9.49997 9.49999,9.49997c1.49998,11.99997 -8.49999,13.99996 -8,13.99996c0.5,0 -4.99998,8.49998 -4.99998,8.49998c0,0 -10.49998,0.5 -10.99996,0.5c0.49998,0 -7.99999,7.99998 -8.49998,7.99998c0.49999,0 -0.50001,11.49997 -0.50001,11.49997c0,0 -5.99998,0.5 -6.49997,0.49999c0.49999,0.00001 -5.5,-3.99998 -6,-3.99998c-0.5,0 -8.99997,-0.5 -8.99997,-0.5c0,0 3.49999,-9.49998 3.49999,-9.49998c0,0 -3.99999,-6.49998 -3.99999,-6.49998c0,0 -1,-8.99998 -1,-8.99998c0,0 -3.49999,-4.49998 -3.49999,-4.49998c0,0 -3.49999,2.99999 -3.49999,2.99999c0,0 3.49999,6.49998 3.49999,6.49998c0,0 -5.99998,-1 -5.99998,-1c0,0 -12.99997,-11.99996 -13.49995,-11.99997c0.49998,0.00001 -5,4.99999 -5,4.99999c0,0 -6.49999,-2.49999 -6.49999,-2.49999c0,0 -1.49999,-6.99998 -1.99998,-6.99998c0.49999,0 -10.49998,-3.99999 -10.49998,-3.99999c0,0 4.99998,-8.49998 4.99998,-8.49998c0,0 4.49999,-6.49998 4.00001,-6.49998c0.49998,0 5.99997,-1.5 5.49998,-1.5c0.49999,0 0.99998,-11.99997 0.99998,-11.99997c0,0 4.99999,-14.49996 4.99999,-14.49996c0,0 -7.49998,-0.5 -7.49998,-0.5c0,0 -4.99999,-6.99998 -4.99999,-6.99998c0,0 -1.49999,-6.99998 -1.49999,-6.99998c0,0 -5.99999,0 -5.99999,0c0,0 2,-7.49998 2,-7.49998c0,0 5.99998,-6.49998 5.99998,-6.49998c0,0 -0.99999,-7.99998 -1.49998,-7.99998c0.49999,0 7.49997,-5.49999 7.49997,-5.49999c0,0 1.99999,-7.99997 1.99999,-7.99997c0,0 -3.49999,-8.99998 -3.49999,-8.99998c0,0 2.49999,-6.49998 2.49999,-6.49998c0,0 4.99999,-3.49999 4.50001,-3.5c-2.00001,-5.99998 -3.50001,-13.49996 -3.99999,-13.49996c0.49998,0 9.49996,-5.49998 9.49996,-5.49998c0,0 9.49997,2.99999 9.49997,2.99999c0,0 -0.99999,8.49998 -0.99999,8.49998c0,0 -3.99999,5.99998 -3.99999,5.99998c0,0 3.99999,6.99998 3.99999,6.99998c0,0 20.49994,1 20.49994,1c0,0 18.49995,-3.99999 18.49995,-3.99999c0,0 3.99999,-8.49998 3.99999,-8.99998c0,-0.5 -3.99999,-10.49997 -4.49999,-10.49997c-0.5,0 -9.49997,-5.99998 -9.49997,-5.99998c0,0 0.5,-8.99998 0.00001,-8.99998c0.49999,0 -0.00001,17.49995 1,-6.49998c0.49998,0 8.49996,0 8.49996,0c0,0 4.49999,6.99998 4.49999,6.99998c0,0 -0.5,7.99998 -0.5,7.99998c0,0 4.49999,1.99999 4.49999,1.99999c0,0 11.99997,-4.49999 11.99997,-4.49999c0,0 5.49998,3.5 5.49998,3.5c0,0 -4.49998,11.99996 -4.49998,11.99996c0,0 3.99999,16.99996 3.99999,16.99996c0,0 10.49997,-8.99998 10.99997,-8.99998c0.5,0 14.49996,-2.99999 14.49996,-2.99999c0,0 5.99998,5.99998 5.99998,5.99998c0,0 -1.99999,12.99997 -1.99999,12.99997c0,0 -10.99997,9.49997 -10.99997,9.99997c0,0.5 -15.99996,8.99998 -15.99996,8.99998c0,0 -11.49997,13.99996 -11.49997,14.49996c0,0.5 -3.49999,15.99996 -3.49999,16.49996c0,0.5 5.49998,16.99995 5.49998,16.99995c0,0 7.99998,10.49997 7.99998,10.49997c0,0 4.99999,8.99998 4.49999,8.99998z" />
  <path id="eidgah" title="Eidgah" class="land" d="m303.499177,100.999732c0,0 1.499996,7.49998 1.499996,7.49998c0,0 -5.999984,7.49998 -5.999984,7.49998c0,0 -1.499996,8.499977 -1.499996,8.499977c0,0 6.499983,-0.499999 6.499983,-0.999997c0,-0.499999 0,6.999981 0,6.999981c0,0 5.999984,6.999981 5.5,6.99998c0.499984,0.000001 8.499963,-0.499998 8.499963,-0.499998c0,0 -5.499985,14.499962 -5.499985,14.499962c0,0 -1.999995,13.499964 -2.499979,13.499963c0.499984,0.000001 -5.999999,2.999993 -5.999999,2.999993c0,0 -7.999979,13.999963 -7.999979,13.999963c0,0 11.499969,2.999992 10.999986,2.999991c0.499984,0.000002 2.999977,7.99998 2.999977,7.99998c0,0 5.999984,1.999995 5.999984,1.999995c0,0 4.999987,-4.999987 4.999987,-4.999987c0,0 11.999968,10.999971 11.999968,10.999971c0,0 7.999979,2.499993 7.999979,2.499993c0,0 -3.999989,-8.499977 -4.499974,-8.499979c0.499984,0.000002 4.999972,-4.499986 4.999972,-3.999988c0,0.499999 2.999992,6.499983 2.999992,6.499983c0,0 1.499996,7.49998 1.499996,7.49998c0,0 2.999992,9.499975 2.999992,9.499975c0,0 -8.999976,-0.999997 -9.49996,-0.999999c0.499984,0.000002 -15.499973,-6.499981 -15.499973,-6.499981c0,0 -3.999989,6.999981 -3.999989,6.999981c0,0 -10.999971,0.999997 -10.999971,0.999997c0,0 2.499993,8.499977 2.499993,8.499977c0,0 -6.499983,2.499993 -6.499983,2.499993c0,0 10.999971,3.999989 10.499987,3.999987c0.499984,0.000002 -4.000004,5.999986 -4.499988,5.999984c0.499984,0.000002 -4.000004,0.500001 -4.499988,0.499999c0.499984,0.000002 2.499979,11.499971 1.999995,11.499969c0.499984,0.000002 4.999972,6.999983 4.999972,7.499982c0,0.499999 5.999984,1.499996 5.999984,1.499996c0,0 -10.499972,8.499977 -10.999956,8.499975c0.499984,0.000002 0.999983,9.999976 0.499999,10.499972c0.499984,0.000002 -13.499979,5.499988 -13.499979,5.499988c0,0 -10.999971,-0.999997 -11.499955,-1c0.499984,0.000002 -9.999988,-10.49997 -9.999988,-10.49997c0,0 -8.999976,-4.499988 -8.999976,-4.499988c0,0 -19.499948,3.999989 -19.499948,3.999989c0,0 -23.499938,-0.499999 -23.999921,-0.500001c0.499983,0.000002 -23.999952,-13.999961 -23.999952,-13.999961c0,0 -17.499954,15.999958 -17.999936,15.999955c0.499983,0.000002 -9.499991,5.999986 -9.499991,5.999986c0,0 -14.99996,-1.999995 -15.499959,-1.999995c-0.499999,0 -5.499985,-4.999987 -5.999968,-4.999989c0.499983,0.000002 0.499983,-12.499965 -0.000016,-12.999963c-0.499999,-0.499999 -28.499924,-11.999968 -28.499924,-11.999968c0,0 -15.499959,-10.499972 -15.499959,-10.499972c0,0 -23.499938,-5.999984 -23.499938,-5.999984c0,0 -11.499969,-0.499999 -11.999951,-0.500001c0.499982,0.000002 0.499982,-5.499984 0,-5.499985c0.499982,0.000002 14.499945,0.500001 14.499945,0.500001c0,0 30.499919,2.499993 30.499919,2.499993c0,0 21.999942,5.999984 21.999942,5.999984c0,0 26.49993,6.499983 26.49993,6.499983c0,0 25.999931,4.999987 25.999931,4.999987c0,0 13.499964,-2.499993 12.999981,-2.499995c0.499983,0.000002 0.999982,-12.999964 0.999982,-12.999964c0,0 13.499964,-3.999989 13.499964,-3.999989c0,0 14.99996,-4.999987 14.499962,-4.499988c-0.499999,0.499999 -6.499983,-10.999971 -6.999966,-10.999973c0.499983,0.000002 -17.999968,-4.999985 -18.499951,-4.999987c0.499983,0.000002 -20.99996,-10.999969 -21.499958,-10.999969c-0.499999,0 -11.499969,-11.999968 -11.499969,-11.999968c0,0 -1.999995,-8.999976 -1.999995,-8.999976c0,0 16.499956,-12.499967 16.499956,-12.499967c0,0 18.99995,7.49998 18.99995,7.49998c0,0 11.999968,-0.499999 11.999968,-0.499999c0,0 0.499999,-13.499964 0.499999,-13.499964c0,0 -8.499977,-10.499972 -8.999976,-10.999971c-0.499999,-0.499999 -2.999992,-5.499985 -2.999992,-5.499985c0,0 13.999963,-8.499977 13.999963,-8.499977c0,0 10.999971,-3.999989 10.999971,-3.999989c0,0 11.499969,3.499991 10.999986,3.49999c0.499983,0.000001 6.499968,6.499984 6.499968,6.499984c0,0 6.499983,-7.49998 6.499983,-7.49998c0,0 0,-11.999968 0,-11.999968c0,0 0.999997,-6.499983 0.500014,-6.499984c0.499984,0.000001 10.499957,-4.499987 10.499957,-4.499987c0,0 5.499985,1.999995 5.499985,1.999995c0,0 1.499996,6.999981 1.499996,6.999981c0,0 5.999984,0 5.5,-0.000001c0.499984,0.000001 14.499947,-4.499987 14.499947,-4.499987c0,0 10.499972,-5.999984 10.499972,-5.999984z" />
  <path id="khanyar" title="Khanyar" class="land" d="m403.388784,169.453277c0,0 -14.995866,5.498485 -14.995866,5.498485c0,0 11.496831,9.497381 11.496831,9.497381c0,0 0.999724,12.496555 0.499862,12.496555c-0.499862,0 -7.497933,0.999724 -7.497933,0.999724c0,0 -6.498208,8.997519 -6.498208,8.997519c0,0 -12.496555,0.499863 -12.496555,0.499863c0,0 -7.997795,8.497657 -8.497657,7.997798c0.499862,0.499859 1.999449,10.996965 1.999449,10.996965c0,0 -9.497382,0.999724 -9.497382,0.999724c0,0 -4.49876,-3.998897 -4.49876,-3.998897c0,0 -9.997243,0.499862 -9.997243,0.499862c0,0 2.499311,-9.997244 2.499311,-9.497382c0,0.499862 -7.997795,-1.499586 -7.997795,-1.499586c0,0 -13.996142,-4.998622 -13.996142,-4.998622c0,0 -2.499311,7.997795 -2.499311,7.497933c0,-0.499863 -11.996692,-0.499863 -12.496554,-0.999721c0.499862,0.499858 3.499035,8.997516 3.499035,8.997516c0,0 -8.497657,2.999173 -8.497657,2.999173c0,0 12.496555,4.498759 11.996692,3.998901c0.499863,0.499858 -5.498484,5.998342 -5.498484,5.998342c0,0 -3.998897,4.998622 -3.998897,4.998622c0,0 2.999173,9.997244 2.999173,9.997244c0,0 4.998622,4.49876 4.998622,4.998622c0,0.499862 6.498208,0 5.998346,-0.499859c0.499862,0.499859 -6.498208,4.998618 -6.998071,4.49876c0.499863,0.499858 16.995315,-4.498763 16.495453,-4.998622c0.499862,0.499859 6.99807,9.99724 6.99807,9.99724c0,0 12.996417,-2.499311 12.996417,-2.499311c0,0 7.497933,5.998346 7.497933,5.998346c0,0 -4.998622,5.998347 -5.498484,5.498488c0.499862,0.499859 8.497657,5.498481 8.497657,5.498481c0,0 5.498484,-5.998347 5.498484,-5.998347c0,0 6.498208,1.999449 6.498208,1.999449c0,0 0,-9.997244 0,-9.997244c0,0 8.99752,-4.498759 8.99752,-4.498759c0,0 0,-9.497382 0,-9.497382c0,0 5.998346,-5.998346 5.998346,-5.998346c0,0 18.494901,8.997519 18.494901,9.497381c0,0.499863 26.992558,-10.996968 26.992558,-10.996968c0,0 15.495728,-2.999173 15.495728,-2.999173c0,0 0.999724,-7.997795 0.999724,-7.997795c0,0 -5.998346,-9.997243 -5.998346,-9.997243c0,0 -5.998346,-5.998347 -6.498209,-5.998347c-0.499862,0 -2.499311,-8.497657 -2.999173,-8.997516c0.499862,0.499859 5.498484,-6.998074 5.498484,-6.998074c0,0 14.496004,-2.499311 14.496004,-2.999173c0,-0.499862 8.497657,-6.498208 8.497657,-6.498208c0,0 1.999449,-3.998898 1.999449,-3.998898c0,0 -12.996417,-0.499862 -12.996417,-0.499862c0,0 -13.996141,0.499862 -14.995866,0c-0.999724,-0.499862 -21.494074,-7.497933 -21.993936,-7.997791c0.499862,0.499858 -10.996968,-9.997248 -10.996968,-9.997248z" />
  <path id="panthachowk" title="Pantha Chowk" class="land" d="m407.388021,256.92916c-0.499862,0 -18.494901,-9.997244 -18.994763,-10.497102c0.499862,0.499858 -2.999173,4.498756 -2.999173,4.498756c0,0 23.493523,20.994212 23.493523,20.994212c0,0 11.996692,0 11.996692,0c0,0 0,5.998346 0,5.998346c0,0 9.497382,2.999173 8.997519,2.499314c0.499863,0.499859 8.99752,6.498205 8.497658,6.498205c-0.499863,0 -21.494074,0.499862 -21.494074,0.499862c0,0 -8.497658,-5.498484 -8.99752,-5.998342c0.499862,0.499858 -4.998622,8.997515 -4.998622,8.997515c0,0 1.499587,12.496555 0.999725,11.996696c0.499862,0.499859 2.499311,4.998619 2.499311,4.998619c0,0 0,10.497106 0,10.497106c0,0 9.997243,6.99807 9.997243,6.498208c0,-0.499862 7.497933,-3.998897 7.497933,-3.998897c0,0 4.998622,3.499035 4.998622,2.999173c0,-0.499863 7.997795,-4.998622 7.997795,-4.998622c0,0 17.995039,3.998897 17.995039,3.998897c0,0 13.996141,2.499311 14.496003,2.499311c0.499862,0 12.496555,1.999449 12.996417,1.999449c0.499862,0 3.499035,-4.49876 3.499035,-4.998622c0,-0.499862 -3.499035,-11.996692 -3.998897,-11.996692c-0.499863,0 -6.998071,-8.99752 -6.998071,-8.99752c0,0 0.999724,-5.498484 0.999724,-5.498484c0,0 17.495177,-6.99807 16.995315,-6.99807c-0.499862,0 7.497933,-12.496555 7.497933,-12.496555c0,0 12.496554,-0.999724 12.496554,-0.999724c0,0 7.497933,-4.998622 7.497933,-4.998622c0,0 15.495728,-9.497382 15.495728,-9.497382c0,0 13.996141,-2.499311 14.496003,-2.499311c0.499862,0 3.998898,-6.498208 3.998898,-6.99807c0,-0.499862 0.499862,-7.997795 0.499862,-7.997795c0,0 10.497106,4.498759 10.497106,4.498759c0,0 8.497657,3.499036 8.497657,3.499036c0,0 10.497106,-2.999173 10.497106,-3.499036c0,-0.499862 19.994487,-15.495727 19.994487,-15.495727c0,0 2.499311,-9.997244 2.499311,-9.997244c0,0 -4.49876,-13.496279 -4.998622,-13.996138c0.499862,0.499859 1.499587,-17.49518 0.999725,-17.49518c-0.499863,0 -3.998898,0 -7.497933,-0.499862c-3.499035,-0.499862 -14.995866,-5.498484 -15.495728,-5.998343c0.499862,0.499859 -9.997244,-25.492975 -9.997244,-25.492975c0,0 -0.999724,-7.997795 0,-8.497657c0.999725,-0.499862 8.497658,-6.99807 8.497658,-7.497933c0,-0.499862 -1.499587,-9.497381 -1.499587,-9.497381c0,0 9.497381,-10.497106 8.997519,-10.497106c-0.499862,0 -7.497932,-8.997519 -7.997795,-8.997519c-0.499862,0 -9.997243,7.497932 -9.997243,7.497932c0,0 -9.497382,0.499863 -9.497382,0.499863c0,0 -13.996141,-3.499036 -13.996141,-3.499036c0,0 -4.49876,5.998347 -4.49876,5.998347c0,0 8.99752,7.497932 8.497657,6.998074c0.499863,0.499858 5.998347,5.49848 5.998347,5.998342c0,0.499863 -0.499863,15.495728 -0.999725,14.995869c0.499862,0.499859 -3.998897,8.497654 -3.998897,9.497379c0,0.999724 -2.999173,13.496279 -2.999173,13.496279c0,0 -1.499587,13.496279 -1.499587,13.496279c0,0 -14.496003,11.996692 -14.496003,11.996692c0,0 11.49683,6.498208 11.49683,6.498208c0,0 6.498208,11.996693 6.498208,11.996693c0,0 9.997244,6.498208 9.997244,6.498208c0,0 -12.996417,3.499036 -13.496279,3.499036c-0.499862,0 -8.497657,0 -8.497657,0c0,0 -5.998346,-11.496831 -5.998346,-11.496831c0,0 -8.99752,6.998071 -9.497382,6.498212c0.499862,0.499859 -3.998897,14.995862 -3.998897,15.495724c0,0.499863 -18.494901,20.49435 -18.994763,20.994212c-0.499863,0.499862 -12.996417,17.995039 -13.996142,18.994763c-0.999724,0.999725 -12.496554,10.497106 -12.496554,9.997244c0,-0.499862 -13.496279,-2.499311 -16.495452,-2.999173c-2.999173,-0.499862 -4.99542,-1.499186 -12.99535,-3.499169c4.999956,-2.999974 -0.001067,-6.498075 -0.500929,-6.997937c-0.499863,-0.499862 -5.998347,-7.497933 -5.998347,-7.497933c0,0 -10.996968,-0.499862 -10.996968,-0.499862c0,0 -4.498759,-1.499586 -4.998622,-1.499586c-0.499862,0 -8.497657,-3.998898 -7.997795,-3.998898c0.499863,0 -3.499035,-5.498484 -3.998897,-5.498484z" />
 </g>
</svg>